<svg width="520" height="235" viewBox="0 0 520 235" fill="none" xmlns="http://www.w3.org/2000/svg">
<path d="M72.3694 186.707C72.3694 189.451 65.5778 190.823 51.9948 190.823C38.4117 190.823 31.6201 189.451 31.6201 186.707V83.3935H6.92365C4.5912 83.3935 2.94477 80.2378 1.98435 73.9265C1.57274 70.908 1.36694 67.8209 1.36694 64.6653C1.36694 61.5096 1.57274 58.4226 1.98435 55.4041C2.94477 49.0928 4.5912 45.9371 6.92365 45.9371H96.4484C98.7809 45.9371 100.427 49.0928 101.388 55.4041C101.799 58.4226 102.005 61.5096 102.005 64.6653C102.005 67.8209 101.799 70.908 101.388 73.9265C100.427 80.2378 98.7809 83.3935 96.4484 83.3935H72.3694V186.707ZM213.279 88.127C213.279 86.8921 217.052 86.2747 224.598 86.2747C241.612 86.2747 249.981 86.8235 249.707 87.9212L229.538 187.942C229.126 190.137 221.511 191.235 206.694 191.235C191.876 191.235 184.261 190.137 183.849 187.942L175.411 141.842L164.915 187.942C164.504 190 156.615 191.029 141.248 191.029C126.018 191.029 118.198 189.794 117.786 187.325L99.4696 87.0979C99.058 86.2747 104.958 85.8631 117.169 85.8631C129.243 86.0003 135.279 86.2747 135.279 86.6863L144.746 156.248L161.828 87.5095C162.103 86.6863 166.63 86.2747 175.411 86.2747C184.192 86.2747 188.72 86.6863 188.994 87.5095L205.87 155.425L213.279 88.127ZM298.884 188.765C298.884 189.863 292.573 190.412 279.95 190.412C267.465 190.412 261.222 189.931 261.222 188.971V87.9212C261.222 86.9607 267.465 86.4805 279.95 86.4805C292.573 86.4805 298.884 86.8921 298.884 87.7153V188.765ZM298.884 75.5729C298.884 76.5333 292.573 77.0135 279.95 77.0135C267.465 77.0135 261.222 76.6019 261.222 75.7787V46.1429C261.222 44.7709 267.465 44.0849 279.95 44.0849C292.573 44.0849 298.884 44.4965 298.884 45.3197V75.5729ZM355.364 190C342.056 190 331.766 185.747 324.494 177.24C317.222 168.596 313.586 155.905 313.586 139.166C313.586 122.29 318.32 109.119 327.787 99.652C337.391 90.0478 350.082 85.2457 365.861 85.2457C381.776 85.2457 394.879 88.7444 405.169 95.7417V198.232C405.169 208.385 401.053 216.137 392.821 221.488C384.589 226.976 374.024 229.72 361.127 229.72C348.23 229.72 336.705 228.074 326.552 224.781C325.18 221.488 324.494 218.538 324.494 215.931C324.494 207.15 325.935 200.702 328.816 196.586C338.008 200.565 347.818 202.554 358.246 202.554C365.792 202.554 369.565 199.879 369.565 194.528V188.354C363.665 189.451 358.932 190 355.364 190ZM364.831 118.792C355.639 118.792 351.043 125.721 351.043 139.578C351.043 148.222 352.826 153.847 356.394 156.454C358.726 158.238 361.058 159.129 363.391 159.129C365.723 159.129 367.781 158.924 369.565 158.512V119.409C367.919 118.998 366.341 118.792 364.831 118.792ZM432.464 177.858C423.957 168.391 419.704 155.288 419.704 138.549C419.704 121.81 423.957 108.707 432.464 99.2404C441.108 89.7734 452.701 85.0399 467.245 85.0399C481.788 85.0399 493.313 89.7734 501.82 99.2404C510.326 108.707 514.58 121.81 514.58 138.549C514.58 155.288 510.326 168.391 501.82 177.858C493.313 187.325 481.788 192.058 467.245 192.058C452.701 192.058 441.108 187.325 432.464 177.858ZM467.245 119.409C459.561 119.409 455.72 125.721 455.72 138.343C455.72 150.966 459.561 157.277 467.245 157.277C475.065 157.277 478.976 150.966 478.976 138.343C478.976 125.721 475.065 119.409 467.245 119.409Z" fill="#1E1E1E"/>
<path d="M466 74C482.016 74 495 61.0163 495 45C495 28.9837 482.016 16 466 16C449.984 16 437 28.9837 437 45C437 61.0163 449.984 74 466 74Z" fill="#6C63FF"/>
</svg>
