<svg width="7332" height="1573" viewBox="0 0 7332 1573" fill="none" xmlns="http://www.w3.org/2000/svg">
<path d="M1001.78 15.332C1452.73 15.332 1903.73 15.332 2602.4 15.332M1001.78 15.332C1467.98 15.332 1934.17 15.332 2602.4 15.332M1001.78 15.332C939.543 15.332 908.455 52.4054 908.455 126.63M2602.4 15.332C2664.57 15.332 2695.66 52.4054 2695.66 126.63M2695.66 126.63C2695.66 180.562 2695.66 234.572 2695.66 349.149M2695.66 126.63C2695.66 174.162 2695.66 221.772 2695.66 349.149M2695.66 349.149C2695.66 423.296 2664.57 460.369 2602.4 460.369M2602.4 460.369C2085.68 460.369 1569.03 460.369 1001.78 460.369M2602.4 460.369C2093.08 460.369 1583.82 460.369 1001.78 460.369M1001.78 460.369C939.543 460.369 908.455 423.296 908.455 349.149M908.455 349.149C908.455 271.88 908.455 194.611 908.455 126.63M908.455 349.149C908.455 293.656 908.455 238.163 908.455 126.63" stroke="#343A40" stroke-width="29.3264" stroke-linecap="round"/>
<path d="M19.7595 805.755C88.677 711.237 157.66 616.641 195.816 564.27ZM19.7595 805.755C73.4274 732.154 127.161 658.476 195.816 564.27ZM34.3545 976.058C149.152 818.711 263.883 661.285 334.96 563.724ZM34.3545 976.058C143.588 826.282 252.757 676.505 334.96 563.724ZM147.777 1010.87C250.728 869.599 353.679 728.33 474.104 563.177ZM147.777 1010.87C262.247 853.755 376.782 696.72 474.104 563.177ZM286.921 1010.32C359.765 910.341 432.675 810.438 613.248 562.631ZM286.921 1010.32C406.496 846.262 526.071 682.281 613.248 562.631ZM426.065 1009.78C496.161 913.619 566.322 817.384 752.392 562.085ZM426.065 1009.78C541.516 851.335 657.033 692.973 752.392 562.085ZM565.209 1009.23C639.231 907.687 713.319 806.145 887.217 567.47ZM565.209 1009.23C678.762 853.443 792.316 697.734 887.217 567.47ZM704.353 1008.68C829.229 837.443 954.04 666.202 1026.36 566.924ZM704.353 1008.68C816.139 855.316 927.991 701.949 1026.36 566.924ZM843.497 1008.21C952.076 859.218 1060.66 710.3 1165.5 566.377ZM843.497 1008.21C945.793 867.882 1048.09 727.549 1165.5 566.377ZM982.641 1007.67C1049.27 916.194 1115.96 824.799 1304.65 565.831ZM982.641 1007.67C1075.71 879.979 1168.84 752.213 1304.65 565.831ZM1121.78 1007.12C1236.25 850.009 1350.79 692.973 1443.79 565.285ZM1121.78 1007.12C1244.83 838.301 1367.87 669.481 1443.79 565.285ZM1256.61 1012.43C1361.33 868.818 1466.04 725.208 1582.94 564.817ZM1256.61 1012.43C1342.35 894.887 1428.02 777.345 1582.94 564.817ZM1395.75 1011.88C1516.7 846.028 1637.65 680.095 1722.08 564.27ZM1395.75 1011.88C1523.64 836.506 1651.46 661.129 1722.08 564.27ZM1534.9 1011.41C1602.11 919.238 1669.26 827.14 1801.14 646.144ZM1534.9 1011.41C1608.4 910.575 1681.96 809.735 1801.14 646.144ZM1674.04 1010.87C1718.22 950.224 1762.4 889.658 1802.91 834.165ZM1674.04 1010.87C1714.95 954.751 1755.85 898.711 1802.91 834.165ZM216.498 999.473C154.126 934.848 91.753 870.145 14 789.52ZM216.498 999.473C164.99 946.087 113.417 892.623 14 789.52ZM379.073 1002.52C295.429 915.804 211.851 829.169 23.4246 633.89ZM379.073 1002.52C279.264 899.102 179.454 795.608 23.4246 633.89ZM536.673 1000.49C376.782 834.633 216.826 668.856 111.911 560.055ZM536.673 1000.49C441.511 901.833 346.348 803.101 111.911 560.055ZM699.248 1003.53C567.041 866.477 434.835 729.344 269.512 558.026ZM699.248 1003.53C564.685 863.979 430.123 724.505 269.512 558.026ZM856.848 1001.42C715.021 854.379 573.194 707.413 432.086 561.07ZM856.848 1001.42C699.051 837.833 541.189 674.164 432.086 561.07ZM1019.42 1004.47C916.276 897.541 813.194 790.691 589.687 558.963ZM1019.42 1004.47C904.102 884.897 788.782 765.403 589.687 558.963ZM1177.02 1002.36C1074.79 896.448 972.562 790.457 752.196 562.007ZM1177.02 1002.36C1020.8 840.408 864.571 678.456 752.196 562.007ZM1339.6 1005.4C1197.71 858.36 1055.88 711.315 909.862 559.977ZM1339.6 1005.4C1176.5 836.35 1013.4 667.295 909.862 559.977ZM1497.2 1003.38C1397.32 899.804 1297.45 796.311 1067.46 557.87ZM1497.2 1003.38C1407.6 910.497 1318.07 817.696 1067.46 557.87ZM1654.8 1001.27C1505.64 846.652 1356.48 692.037 1229.97 560.914ZM1654.8 1001.27C1567.82 911.121 1480.84 820.896 1229.97 560.914ZM1782.75 968.487C1656.43 837.521 1530.12 706.554 1387.64 558.807ZM1782.75 968.487C1698.13 880.76 1613.57 793.033 1387.64 558.807ZM1802.06 823.003C1713.64 731.374 1625.22 639.666 1550.15 561.851ZM1802.06 823.003C1744.79 763.608 1687.52 704.291 1550.15 561.851ZM1801.6 657.071C1765.21 619.295 1728.82 581.597 1707.75 559.821ZM1801.6 657.071C1780 634.671 1758.34 612.192 1707.75 559.821Z" stroke="#868E96" stroke-opacity="0.7" stroke-width="7.3316" stroke-linecap="round"/>
<path d="M107.985 562.631C558.926 562.631 1009.93 562.631 1708.6 562.631M107.985 562.631C574.176 562.631 1040.37 562.631 1708.6 562.631M107.985 562.631C45.7432 562.631 14.655 599.705 14.655 673.93M1708.6 562.631C1770.77 562.631 1801.86 599.705 1801.86 673.93M1801.86 673.93C1801.86 727.862 1801.86 781.872 1801.86 896.448M1801.86 673.93C1801.86 721.462 1801.86 769.072 1801.86 896.448M1801.86 896.448C1801.86 970.595 1770.77 1007.67 1708.6 1007.67M1708.6 1007.67C1191.88 1007.67 675.229 1007.67 107.985 1007.67M1708.6 1007.67C1199.28 1007.67 690.02 1007.67 107.985 1007.67M107.985 1007.67C45.7432 1007.67 14.655 970.595 14.655 896.448M14.655 896.448C14.655 819.179 14.655 741.911 14.655 673.93M14.655 896.448C14.655 840.955 14.655 785.462 14.655 673.93" stroke="#343A40" stroke-width="29.3264" stroke-linecap="round"/>
<path d="M914.214 1355.62C983.132 1261.11 1052.11 1166.51 1090.27 1114.14ZM914.214 1355.62C967.882 1282.02 1021.62 1208.35 1090.27 1114.14ZM928.809 1525.93C1043.61 1368.58 1158.34 1211.16 1229.42 1113.59ZM928.809 1525.93C1038.04 1376.15 1147.21 1226.38 1229.42 1113.59ZM1042.23 1560.74C1145.18 1419.47 1248.13 1278.2 1368.56 1113.05ZM1042.23 1560.74C1156.7 1403.63 1271.24 1246.59 1368.56 1113.05ZM1181.38 1560.19C1254.22 1460.21 1327.13 1360.31 1507.7 1112.5ZM1181.38 1560.19C1300.95 1396.13 1420.53 1232.15 1507.7 1112.5ZM1320.52 1559.65C1390.62 1463.49 1460.78 1367.25 1646.85 1111.95ZM1320.52 1559.65C1435.97 1401.21 1551.49 1242.84 1646.85 1111.95ZM1459.66 1559.1C1533.69 1457.56 1607.77 1356.01 1781.67 1117.34ZM1459.66 1559.1C1573.22 1403.31 1686.77 1247.6 1781.67 1117.34ZM1598.81 1558.55C1723.68 1387.31 1848.49 1216.07 1920.82 1116.79ZM1598.81 1558.55C1710.59 1405.19 1822.45 1251.82 1920.82 1116.79ZM1737.95 1558.08C1846.53 1409.09 1955.11 1260.17 2059.96 1116.25ZM1737.95 1558.08C1840.25 1417.75 1942.54 1277.42 2059.96 1116.25ZM1877.1 1557.54C1943.72 1466.06 2010.41 1374.67 2199.1 1115.7ZM1877.1 1557.54C1970.16 1429.85 2063.3 1302.08 2199.1 1115.7ZM2016.24 1556.99C2130.71 1399.88 2245.24 1242.84 2338.25 1115.15ZM2016.24 1556.99C2139.28 1388.17 2262.33 1219.35 2338.25 1115.15ZM2151.06 1562.3C2255.78 1418.69 2360.5 1275.08 2477.39 1114.69ZM2151.06 1562.3C2236.8 1444.76 2322.47 1327.21 2477.39 1114.69ZM2290.21 1561.75C2411.16 1395.9 2532.11 1229.97 2616.53 1114.14ZM2290.21 1561.75C2418.09 1386.38 2545.92 1211 2616.53 1114.14ZM2429.35 1561.28C2496.57 1469.11 2563.72 1377.01 2695.6 1196.01ZM2429.35 1561.28C2502.85 1460.44 2576.41 1359.61 2695.6 1196.01ZM2568.5 1560.74C2612.67 1500.09 2656.85 1439.53 2697.36 1384.03ZM2568.5 1560.74C2609.4 1504.62 2650.31 1448.58 2697.36 1384.03ZM1110.95 1549.34C1048.58 1484.72 986.208 1420.02 908.455 1339.39ZM1110.95 1549.34C1059.44 1495.96 1007.87 1442.49 908.455 1339.39ZM1273.53 1552.39C1189.88 1465.67 1106.31 1379.04 917.879 1183.76ZM1273.53 1552.39C1173.72 1448.97 1073.91 1345.48 917.879 1183.76ZM1431.13 1550.36C1271.24 1384.5 1111.28 1218.73 1006.37 1109.93ZM1431.13 1550.36C1335.97 1451.7 1240.8 1352.97 1006.37 1109.93ZM1593.7 1553.4C1461.5 1416.35 1329.29 1279.21 1163.97 1107.9ZM1593.7 1553.4C1459.14 1413.85 1324.58 1274.38 1163.97 1107.9ZM1751.3 1551.29C1609.48 1404.25 1467.65 1257.28 1326.54 1110.94ZM1751.3 1551.29C1593.51 1387.7 1435.64 1224.03 1326.54 1110.94ZM1913.88 1554.34C1810.73 1447.41 1707.65 1340.56 1484.14 1108.83ZM1913.88 1554.34C1798.56 1434.77 1683.24 1315.27 1484.14 1108.83ZM2071.48 1552.23C1969.25 1446.32 1867.02 1340.33 1646.65 1111.88ZM2071.48 1552.23C1915.25 1390.28 1759.03 1228.33 1646.65 1111.88ZM2234.05 1555.27C2092.16 1408.23 1950.33 1261.19 1804.32 1109.85ZM2234.05 1555.27C2070.95 1386.22 1907.86 1217.17 1804.32 1109.85ZM2391.65 1553.25C2291.78 1449.67 2191.9 1346.18 1961.92 1107.74ZM2391.65 1553.25C2302.05 1460.37 2212.52 1367.57 1961.92 1107.74ZM2549.25 1551.14C2400.1 1396.52 2250.94 1241.91 2124.43 1110.78ZM2549.25 1551.14C2462.27 1460.99 2375.29 1370.77 2124.43 1110.78ZM2677.21 1518.36C2550.89 1387.39 2424.57 1256.42 2282.09 1108.68ZM2677.21 1518.36C2592.58 1430.63 2508.02 1342.9 2282.09 1108.68ZM2696.51 1372.87C2608.09 1281.24 2519.67 1189.54 2444.6 1111.72ZM2696.51 1372.87C2639.25 1313.48 2581.98 1254.16 2444.6 1111.72ZM2696.06 1206.94C2659.67 1169.17 2623.28 1131.47 2602.2 1109.69ZM2696.06 1206.94C2674.46 1184.54 2652.79 1162.06 2602.2 1109.69Z" stroke="#868E96" stroke-opacity="0.7" stroke-width="7.3316" stroke-linecap="round"/>
<path d="M1002.44 1112.5C1453.38 1112.5 1904.39 1112.5 2603.05 1112.5M1002.44 1112.5C1468.63 1112.5 1934.82 1112.5 2603.05 1112.5M1002.44 1112.5C940.198 1112.5 909.11 1149.57 909.11 1223.8M2603.05 1112.5C2665.23 1112.5 2696.32 1149.57 2696.32 1223.8M2696.32 1223.8C2696.32 1277.73 2696.32 1331.74 2696.32 1446.32M2696.32 1223.8C2696.32 1271.33 2696.32 1318.94 2696.32 1446.32M2696.32 1446.32C2696.32 1520.47 2665.23 1557.54 2603.05 1557.54M2603.05 1557.54C2086.34 1557.54 1569.68 1557.54 1002.44 1557.54M2603.05 1557.54C2093.73 1557.54 1584.47 1557.54 1002.44 1557.54M1002.44 1557.54C940.198 1557.54 909.11 1520.47 909.11 1446.32M909.11 1446.32C909.11 1369.05 909.11 1291.78 909.11 1223.8M909.11 1446.32C909.11 1390.83 909.11 1335.33 909.11 1223.8" stroke="#343A40" stroke-width="29.3264" stroke-linecap="round"/>
<path d="M1991.55 565.202C2442.49 565.202 2893.5 565.202 3592.16 565.202M1991.55 565.202C2457.74 565.202 2923.93 565.202 3592.16 565.202M1991.55 565.202C1929.31 565.202 1898.22 602.276 1898.22 676.5M3592.16 565.202C3654.34 565.202 3685.43 602.276 3685.43 676.5M3685.43 676.5C3685.43 730.432 3685.43 784.443 3685.43 899.019M3685.43 676.5C3685.43 724.032 3685.43 771.642 3685.43 899.019M3685.43 899.019C3685.43 973.166 3654.34 1010.24 3592.16 1010.24M3592.16 1010.24C3075.45 1010.24 2558.79 1010.24 1991.55 1010.24M3592.16 1010.24C3082.84 1010.24 2573.59 1010.24 1991.55 1010.24M1991.55 1010.24C1929.31 1010.24 1898.22 973.166 1898.22 899.019M1898.22 899.019C1898.22 821.75 1898.22 744.481 1898.22 676.5M1898.22 899.019C1898.22 843.526 1898.22 788.033 1898.22 676.5" stroke="#343A40" stroke-width="29.3264" stroke-linecap="round"/>
<path d="M4383.03 1238.31C4383.03 1256.38 4338.29 1265.42 4248.81 1265.42C4159.33 1265.42 4114.59 1256.38 4114.59 1238.31V557.713H3951.9C3936.53 557.713 3925.69 536.925 3919.36 495.348C3916.65 475.464 3915.29 455.127 3915.29 434.339C3915.29 413.55 3916.65 393.214 3919.36 373.329C3925.69 331.752 3936.53 310.964 3951.9 310.964H4541.66C4557.02 310.964 4567.87 331.752 4574.2 373.329C4576.91 393.214 4578.26 413.55 4578.26 434.339C4578.26 455.127 4576.91 475.464 4574.2 495.348C4567.87 536.925 4557.02 557.713 4541.66 557.713H4383.03V1238.31ZM5311.3 588.896C5311.3 580.761 5336.15 576.694 5385.86 576.694C5497.94 576.694 5553.08 580.309 5551.27 587.54L5418.4 1246.44C5415.69 1260.9 5365.53 1268.13 5267.91 1268.13C5170.3 1268.13 5120.13 1260.9 5117.42 1246.44L5061.84 942.751L4992.69 1246.44C4989.98 1260 4938.01 1266.78 4836.78 1266.78C4736.45 1266.78 4684.93 1258.64 4682.22 1242.38L4561.56 582.117C4558.85 576.694 4597.71 573.983 4678.15 573.983C4757.69 574.886 4797.46 576.694 4797.46 579.406L4859.83 1037.65L4972.36 584.829C4974.16 579.406 5003.99 576.694 5061.84 576.694C5119.68 576.694 5149.51 579.406 5151.32 584.829L5262.49 1032.23L5311.3 588.896ZM5875.23 1251.87C5875.23 1259.1 5833.66 1262.71 5750.5 1262.71C5668.25 1262.71 5627.13 1259.55 5627.13 1253.22V587.54C5627.13 581.213 5668.25 578.05 5750.5 578.05C5833.66 578.05 5875.23 580.761 5875.23 586.184V1251.87ZM5875.23 506.194C5875.23 512.521 5833.66 515.685 5750.5 515.685C5668.25 515.685 5627.13 512.973 5627.13 507.55V312.32C5627.13 303.281 5668.25 298.762 5750.5 298.762C5833.66 298.762 5875.23 301.474 5875.23 306.897V506.194ZM6247.31 1260C6159.63 1260 6091.84 1231.98 6043.94 1175.94C5996.04 1119 5972.08 1035.39 5972.08 925.126C5972.08 813.953 6003.27 727.184 6065.63 664.819C6128.9 601.55 6212.51 569.915 6316.45 569.915C6421.3 569.915 6507.61 592.963 6575.4 639.059V1314.23C6575.4 1381.12 6548.29 1432.18 6494.05 1467.43C6439.82 1503.59 6370.23 1521.66 6285.27 1521.66C6200.31 1521.66 6124.38 1510.82 6057.5 1489.12C6048.46 1467.43 6043.94 1448 6043.94 1430.83C6043.94 1372.98 6053.43 1330.5 6072.41 1303.38C6132.97 1329.6 6197.59 1342.7 6266.29 1342.7C6316 1342.7 6340.85 1325.08 6340.85 1289.83V1249.15C6301.99 1256.38 6270.81 1260 6247.31 1260ZM6309.67 790.905C6249.11 790.905 6218.83 836.549 6218.83 927.837C6218.83 984.78 6230.58 1021.84 6254.08 1039.01C6269.45 1050.76 6284.81 1056.64 6300.18 1056.64C6315.55 1056.64 6329.1 1055.28 6340.85 1052.57V794.972C6330.01 792.261 6319.61 790.905 6309.67 790.905ZM6755.21 1180.01C6699.17 1117.64 6671.15 1031.33 6671.15 921.059C6671.15 810.79 6699.17 724.473 6755.21 662.107C6812.15 599.742 6888.53 568.559 6984.33 568.559C7080.14 568.559 7156.06 599.742 7212.1 662.107C7268.14 724.473 7296.16 810.79 7296.16 921.059C7296.16 1031.33 7268.14 1117.64 7212.1 1180.01C7156.06 1242.38 7080.14 1273.56 6984.33 1273.56C6888.53 1273.56 6812.15 1242.38 6755.21 1180.01ZM6984.33 794.972C6933.72 794.972 6908.41 836.549 6908.41 919.703C6908.41 1002.86 6933.72 1044.43 6984.33 1044.43C7035.85 1044.43 7061.61 1002.86 7061.61 919.703C7061.61 836.549 7035.85 794.972 6984.33 794.972Z" fill="#1E1E1E"/>
</svg>