<svg width="1161" height="843" viewBox="0 0 1161 843" fill="none" xmlns="http://www.w3.org/2000/svg">
<path d="M768 300C768 465.69 667.172 455 501.482 455C464.652 455 395.9 593.36 363.31 581.22H363.3C362.1 580.78 360.91 580.32 359.72 579.85C359.38 579.73 359.04 579.6 358.71 579.46C356.84 578.74 354.98 577.99 353.13 577.22C349.32 575.64 345.55 573.98 341.83 572.26C339.9 571.36 337.98 570.45 336.08 569.51C318.44 560.86 301.77 550.52 286.28 538.71C278.48 532.77 270.97 526.44 263.8 519.78C257.86 514.26 252.15 508.51 246.69 502.53C244.97 500.66 243.29 498.77 241.63 496.86C240.95 496.09 240.29 495.32 239.64 494.55C234.93 489.04 230.43 483.35 226.13 477.5C224.74 475.61 223.37 473.7 222.02 471.77C212.85 458.67 204.7 444.79 197.68 430.27C178.66 390.87 168 346.68 168 300C168 134.31 302.31 0 468 0C633.69 0 768 134.31 768 300Z" fill="#99EDD1"/>
<g opacity="0.5">
<path fill-rule="evenodd" clip-rule="evenodd" d="M1.8302 383.733C0.138587 385.422 0.795647 391.424 0.760159 393.646C0.705313 397.104 0.921469 400.531 1.20968 403.976C1.40433 406.284 2.49586 428.3 5.53495 426.609C7.24807 425.656 6.17375 419.288 6.17052 417.272C6.16407 412.794 5.97695 408.327 5.67906 403.859C5.40161 399.71 5.22739 395.609 5.38655 391.453C5.42526 390.439 6.37485 379.181 1.8302 383.733Z" fill="#89C5CC"/>
<path fill-rule="evenodd" clip-rule="evenodd" d="M75.4962 381.019C60.9642 381.135 46.4377 381.852 31.9122 382.291C24.9221 382.502 17.9373 382.771 10.9558 383.158C8.57593 383.291 3.47314 382.528 1.49117 383.796C-2.90938 386.611 4.1872 387.269 6.07884 387.2C34.8255 386.158 63.5807 384.784 92.351 384.72C106.465 384.689 120.571 385.09 134.685 385.001C140.081 384.966 146.054 382.641 147.417 388.922C148.955 396.007 147.188 403.898 146.707 411.019C146.387 415.772 146.501 420.428 146.715 425.178C146.852 428.22 146.494 431.648 147.033 434.635C147.55 437.51 149.617 439.234 151.512 436.013C152.645 434.089 152.081 429.336 152.156 427.107C152.257 424.104 152.163 421.102 152.163 418.098C152.162 410.767 153.196 403.466 153.06 396.136C152.971 391.41 152.721 382.842 146.76 381.707C140.196 380.456 132.127 381.713 125.409 381.637C108.764 381.446 92.1466 380.889 75.4962 381.019Z" fill="#89C5CC"/>
<path fill-rule="evenodd" clip-rule="evenodd" d="M35.4538 426.871C29.9736 426.871 24.4933 426.905 19.0141 426.995C14.3146 427.073 6.92661 426.094 2.55294 427.775C-0.442061 428.926 -1.23678 432.269 2.55294 433.159C6.68572 434.13 12.9145 432.542 17.2397 432.466C38.9231 432.083 60.8162 431.584 82.4705 432.956C102.761 434.24 123.442 435.487 143.762 434.13C145.472 434.016 154.191 433.669 150.212 430.401C147.892 428.493 138.483 429.747 135.466 429.656C124.826 429.335 114.176 429.264 103.539 428.861C93.0406 428.462 82.5888 427.282 72.0864 426.99C59.886 426.65 47.6586 426.871 35.4538 426.871Z" fill="#89C5CC"/>
<path fill-rule="evenodd" clip-rule="evenodd" d="M29.9702 395.704C38.511 396.077 46.9616 408.464 38.3196 414.449C30.2122 420.067 15.0188 413.911 19.5269 403.019C18.8785 404.593 20.3464 401.308 20.3647 401.287C21.2218 400.277 22.7607 399.158 23.8178 398.362C25.0266 397.451 26.2859 396.448 27.7441 395.991C28.7012 395.691 28.5506 396.819 29.9702 395.704ZM25.8105 391.237C21.8132 392.797 19.9894 394.558 17.2417 397.744C15.3415 399.949 12.9186 401.109 12.9401 404.088C12.9444 404.747 13.7918 405.472 13.9381 406.108C14.1402 406.985 13.9058 408.11 14.066 409.042C15.72 418.667 27.2021 421.912 35.6074 420.094C42.9288 418.511 48.4048 411.483 46.7088 403.841C45.0011 396.147 33.5932 388.192 25.8105 391.237Z" fill="#89C5CC"/>
<path fill-rule="evenodd" clip-rule="evenodd" d="M22.25 404.672C22.25 408.134 27.7195 408.134 27.7195 404.672C27.7195 401.249 22.25 401.102 22.25 404.672Z" fill="#89C5CC"/>
<path fill-rule="evenodd" clip-rule="evenodd" d="M29.0928 403.971C29.0928 406.722 33.4374 406.722 33.4374 403.971C33.4374 401.251 29.0928 401.135 29.0928 403.971Z" fill="#89C5CC"/>
<path fill-rule="evenodd" clip-rule="evenodd" d="M30.438 409.644C29.0464 410.179 27.2817 409.07 26.1385 409.8C24.1157 411.096 26.1439 412.267 27.2279 412.788C32.1113 415.131 32.9792 408.67 30.438 409.644Z" fill="#89C5CC"/>
<path fill-rule="evenodd" clip-rule="evenodd" d="M105.006 401.972C104.861 402.033 104.343 402.252 105.006 401.972ZM83.7436 398.864C80.0883 399.688 77.0029 403.102 73.0326 402.645C69.9902 402.295 67.9298 399.358 64.9262 398.932C61.0837 398.386 50.6254 407.152 56.124 408.655C59.3319 409.533 61.1117 403.671 63.9454 403.359C66.1876 403.113 69.2364 405.862 71.5593 406.254C75.8931 406.984 78.8699 404.597 82.6746 403.057C86.8085 401.384 89.1604 402.891 92.7555 404.75C95.5935 406.217 98.2669 407.173 101.514 406.568C104.561 406 108.391 402.865 111.458 403.187C114.462 403.502 116.607 406.638 119.698 406.929C120.972 407.049 122.869 407.483 122.655 405.517C122.484 403.943 120.727 404.209 119.628 403.637C116.802 402.165 114.158 399.558 110.748 399.781C108.182 399.949 105.847 401.751 103.483 402.614C95.7397 405.438 91.3865 397.149 83.7436 398.864Z" fill="#89C5CC"/>
<path fill-rule="evenodd" clip-rule="evenodd" d="M90.2112 448.729C75.276 448.867 60.2892 449.088 45.3959 450.285C41.8643 450.569 5.8092 453.974 5.87803 454.219C6.00385 454.672 10.6421 455.365 10.613 455.472C10.3001 454.698 9.58602 454.376 8.46976 454.51C42.6644 454.51 76.7514 451.449 110.992 451.999C119.596 452.137 128.231 452.08 136.829 452.351C138.974 452.419 144.293 453.957 145.978 452.988C150.403 450.444 142.365 450.151 141.035 450.044C124.184 448.696 107.109 448.56 90.2112 448.729Z" fill="#56919C"/>
<path fill-rule="evenodd" clip-rule="evenodd" d="M1.45141 455.986C-0.782207 458.225 1.27397 466.279 1.36216 469.306C1.49013 473.682 1.38473 478.089 1.76865 482.454C2.20741 487.439 2.88707 492.752 4.19476 497.589C4.91528 500.254 7.44464 504.489 8.44691 499.647C9.16206 496.188 8.07589 491.6 7.69735 488.077C7.19191 483.364 7.06932 478.712 7.05104 473.975C7.03383 469.849 6.95425 465.704 6.6155 461.591C6.44021 459.455 5.36588 452.092 1.45141 455.986Z" fill="#56919C"/>
<path fill-rule="evenodd" clip-rule="evenodd" d="M57.6283 497.001C47.0291 497.182 36.4074 497.433 25.8265 498.094C21.4894 498.367 17.1555 498.771 12.8356 499.229C11.9537 499.323 2.19446 499.718 6.55522 503.321C8.52321 504.947 16.6199 502.698 19.2945 502.464C23.7918 502.07 28.2881 501.813 32.7994 501.623C43.2501 501.179 53.7332 500.787 64.1947 500.969C83.3014 501.3 102.284 501.449 121.395 501.022C124.111 500.961 145.383 501.53 146.106 498.705C146.688 496.429 139.08 497.473 137.693 497.514C132.605 497.666 127.517 497.631 122.427 497.605C100.863 497.494 79.1751 496.636 57.6283 497.001Z" fill="#56919C"/>
<path fill-rule="evenodd" clip-rule="evenodd" d="M142.505 452.209C142.842 461.646 144.448 471.072 144.962 480.537C145.197 484.864 145.473 489.187 145.685 493.515C145.754 494.912 145.191 498.276 146.842 499.08C149.107 500.181 149.412 497.961 149.836 496.46C151.061 492.123 150.232 486.49 150.121 482.034C150.014 477.721 150.006 473.399 149.688 469.093C149.362 464.695 148.477 460.378 148.065 455.995C147.892 454.141 148.499 451.055 146.531 449.905C144.83 448.91 142.431 450.164 142.505 452.209Z" fill="#56919C"/>
<path fill-rule="evenodd" clip-rule="evenodd" d="M29.3186 465.111C32.6771 466.07 35.4355 465.713 38.6445 468.157C41.304 470.186 44.0322 473.151 44.9141 476.429C46.953 484.002 40.0425 488.153 33.5653 488.235C26.9301 488.318 17.1084 486.779 17.4483 478.275C17.7096 471.741 22.4812 465.364 29.3186 465.111ZM29.5552 460.831C20.8455 461.264 13.8199 471.046 13.8951 479.278C13.9865 489.257 25.2923 491.828 33.3245 491.897C42.389 491.974 51.4278 485.715 48.9995 475.522C47.0531 467.355 37.9304 460.396 29.5552 460.831Z" fill="#56919C"/>
<path fill-rule="evenodd" clip-rule="evenodd" d="M20.7937 474.228C20.7937 477.011 25.1899 477.011 25.1899 474.228C25.1899 471.478 20.7937 471.36 20.7937 474.228Z" fill="#56919C"/>
<path fill-rule="evenodd" clip-rule="evenodd" d="M30.0154 473.007C30.0154 475.812 34.4471 475.812 34.4471 473.007C34.4471 470.235 30.0154 470.116 30.0154 473.007Z" fill="#56919C"/>
<path fill-rule="evenodd" clip-rule="evenodd" d="M24.932 479.354C22.0703 482.211 32.1222 487.219 34.4934 483.245C36.441 479.98 32.2007 481.063 30.6983 480.887C29.0648 480.694 26.2644 478.024 24.932 479.354Z" fill="#56919C"/>
<path fill-rule="evenodd" clip-rule="evenodd" d="M105.301 473.064C105.026 473.18 105.026 473.18 105.301 473.064ZM67.5526 468.414C64.6554 468.957 55.1467 472.165 55.0188 475.602C54.7843 481.85 64.0962 475.451 66.118 474.629C71.6112 472.396 74.4975 476.951 80.0165 477.191C84.8085 477.399 89.2155 473.298 93.7301 473.783C98.4608 474.291 100.736 479.323 106.196 476.652C109.086 475.239 109.013 473.059 105.77 472.854C103.81 472.73 102.463 473.54 100.419 472.697C97.223 471.378 95.9357 469.232 92.1116 469.572C89.2252 469.831 86.6173 471.457 83.7998 472.087C77.3495 473.528 73.7716 467.249 67.5526 468.414Z" fill="#56919C"/>
<path fill-rule="evenodd" clip-rule="evenodd" d="M127.556 475.778C127.356 475.862 127.356 475.862 127.556 475.778ZM128.286 473.176C128.537 473.494 128.318 473.19 128.286 473.176ZM124.965 471.19C124.84 471.287 124.84 471.287 124.965 471.19ZM125.037 471.165C125.681 471.551 130.859 475.092 127.099 475.926C125.189 476.349 123.609 472.507 125.037 471.165ZM123.323 467.243C115.028 471.025 123.954 484.559 130.464 479.061C133.203 476.747 133.563 472.07 130.898 469.659C129.302 468.214 125.49 466.253 123.323 467.243Z" fill="#56919C"/>
<path fill-rule="evenodd" clip-rule="evenodd" d="M45.4584 520.577C35.1077 520.58 24.6666 520.363 14.3298 520.976C12.5909 521.079 5.96422 520.748 5.06733 522.566C3.42842 525.893 10.2465 524.242 11.2369 524.142C31.818 522.081 53.3164 523.267 73.9652 523.855C90.8534 524.334 107.65 524.632 124.518 525.503C128.952 525.731 133.381 525.984 137.812 526.252C139.256 526.339 142.891 527.296 143.195 524.989C143.477 522.854 138.943 523.337 137.811 523.277C128.804 522.803 119.804 522.306 110.8 521.8C89.1284 520.578 67.1644 520.572 45.4584 520.577Z" fill="#89C5CC"/>
<path fill-rule="evenodd" clip-rule="evenodd" d="M4.7347 524.275C2.8022 526.197 3.7077 533.535 3.65393 535.96C3.5593 540.203 3.35926 544.442 3.27 548.682C3.17644 553.115 3.30657 557.568 3.5679 561.995C3.67759 563.853 5.20358 572.835 7.60496 567.694C8.67821 565.397 7.57915 559 7.59528 556.397C7.62539 551.661 7.88027 546.945 8.11578 542.214C8.31904 538.148 8.32655 534.077 8.504 530.01C8.55992 528.713 8.71369 520.284 4.7347 524.275Z" fill="#89C5CC"/>
<path fill-rule="evenodd" clip-rule="evenodd" d="M144.936 562.167C134.863 563.199 124.628 562.712 114.518 563.474C105.804 564.132 97.0971 564.4 88.3605 564.585C68.5774 565.003 48.7598 565.41 29.0337 567.059C24.5385 567.434 20.0487 567.833 15.5406 568.034C13.2865 568.134 3.82621 567.108 3.12182 569.485C1.92275 573.533 12.038 571.93 14.22 571.867C19.0185 571.729 23.7943 571.382 28.5788 571.017C48.6932 569.485 68.8828 569.027 89.0402 568.39C100.002 568.044 110.888 567.242 121.826 566.512C127.278 566.149 132.745 566.137 138.196 565.784C139.623 565.692 144.672 565.874 145.698 564.726C146.402 563.938 146.581 562.014 144.936 562.167Z" fill="#89C5CC"/>
<path fill-rule="evenodd" clip-rule="evenodd" d="M141.522 524.963C141.867 534.624 142.413 544.275 142.739 553.935C142.837 556.839 141.96 562.045 143.577 564.608C146.178 568.727 148.209 564.367 148.685 561.8C150.189 553.699 148.572 544.751 148.152 536.599C147.993 533.49 148.958 526.569 147.455 523.786C146.024 521.135 141.394 521.402 141.522 524.963Z" fill="#89C5CC"/>
<path fill-rule="evenodd" clip-rule="evenodd" d="M124.61 538.722C128.47 539.767 129.033 548.156 124.679 548.778C118.197 549.702 121.032 540.451 124.61 538.722ZM123.529 535.385C122.352 535.348 119.635 535.024 118.909 535.982C118.303 536.784 118.916 538.476 118.845 539.239C118.59 541.969 116.37 543.545 117.363 546.768C118.036 548.956 119.84 551.011 122.038 551.77C133.636 555.779 133.495 533.369 123.529 535.385Z" fill="#89C5CC"/>
<path fill-rule="evenodd" clip-rule="evenodd" d="M27.9247 532.044C27.8796 531.655 27.8333 531.267 27.7882 530.879C34.0771 533.847 39.081 539.369 36.9925 546.781C35.3999 552.435 29.6432 554.441 24.2802 553.045C18.344 551.499 15.507 546.606 17.1072 540.597C17.846 537.825 20.1141 534.1 23.0445 533.208C24.4092 532.793 27.4268 533.851 27.9247 532.044ZM24.2469 529.696C22.6563 529.804 21.1077 530.466 19.8097 531.373C21.0249 530.344 22.6445 529.733 24.2469 529.696ZM24.2931 526.044C20.3636 526.164 17.788 528.543 15.4576 531.399C14.7263 532.296 12.2529 534.674 12.5594 535.883C12.8013 536.838 13.4347 538.235 14.7693 537.169C7.78135 551.096 25.8331 562.974 36.8527 553.289C47.1379 544.252 36.9334 525.62 24.2931 526.044Z" fill="#89C5CC"/>
<path fill-rule="evenodd" clip-rule="evenodd" d="M20.7229 538.981C20.7229 540.835 23.6018 540.835 23.6018 538.981C23.6018 537.126 20.7229 537.126 20.7229 538.981Z" fill="#89C5CC"/>
<path fill-rule="evenodd" clip-rule="evenodd" d="M25.6353 539.297C25.6353 541.182 28.5604 541.182 28.5604 539.297C28.5604 537.412 25.6353 537.412 25.6353 539.297Z" fill="#89C5CC"/>
<path fill-rule="evenodd" clip-rule="evenodd" d="M27.8645 545.917C26.4965 546.027 21.4873 545.563 20.6076 546.761C19.1386 548.764 21.483 548.834 22.6348 549.05C23.6725 549.245 28.1828 549.135 28.8183 548.214C29.3797 547.4 29.2485 545.798 27.8645 545.917Z" fill="#89C5CC"/>
<path fill-rule="evenodd" clip-rule="evenodd" d="M88.2208 540.721C87.9853 540.819 87.9853 540.819 88.2208 540.721ZM69.2926 539.337C66.2083 539.564 63.5973 541.337 60.6485 542.045C57.5019 542.801 56.1393 541.412 53.2777 540.502C50.301 539.555 48.1835 539.93 45.7907 541.962C44.4357 543.114 41.4611 545.766 42.3086 547.812C44.2486 552.496 48.6405 544.875 50.7064 544.521C53.9283 543.968 56.7953 546.785 60.5119 545.98C63.879 545.25 66.8665 542.938 70.3831 542.913C73.3243 542.891 76.0956 544.501 78.9992 544.891C83.432 545.485 86.342 543.911 90.4393 542.743C93.9925 541.73 96.4831 543.066 99.8255 544.189C101.353 544.702 106.449 546.569 105.511 543.185C105.245 542.228 98.5296 540.518 97.4886 540.19C93.8172 539.03 91.4921 539.481 87.9939 540.815C85.0774 541.928 82.6233 542.47 79.496 541.858C76.0504 541.183 72.9167 539.062 69.2926 539.337Z" fill="#89C5CC"/>
</g>
<g opacity="0.5">
<path fill-rule="evenodd" clip-rule="evenodd" d="M608.358 98.5145C608.855 87.8067 609.539 77.1151 609.9 66.4011C610.079 61.0922 610.219 55.7827 610.355 50.4727C610.384 49.2904 610.415 48.1085 610.442 46.9261C610.529 42.9092 610.052 42.5806 614.095 42.224C632.128 40.6322 650.234 40.1046 668.289 38.6644C690.065 36.9276 711.953 35.7282 733.791 35.1906C743.494 34.9513 753.239 34.4555 762.945 34.7573C765.094 34.8241 769.315 34.2645 770.163 35.9361C770.528 36.6583 769.761 39.1432 769.664 39.9764C769.359 42.5796 769.076 45.1917 768.9 47.8077C767.868 63.237 768.483 79.0551 771.47 94.2506C764.462 90.2984 755.607 86.8991 747.438 87.5734C739.111 88.2616 732.881 93.073 726.214 97.5015C722.444 100.007 721.174 100.665 717.412 98.2392C714.17 96.1476 711.103 93.7569 708.044 91.4093C703.324 87.7874 698.87 83.8611 694.293 80.0638C685.878 73.0823 674.283 63.1448 662.66 66.0706C654.356 68.1611 646.688 72.7253 639.481 77.1914C628.772 83.8277 619.079 91.9546 608.358 98.5145ZM752.681 30.0023C711.307 30.0023 670.243 34.0132 628.985 36.183C624.676 36.4094 620.382 36.743 616.089 37.1574C613.227 37.4336 606.229 36.2737 604.354 38.7187C603.102 40.35 604.177 40.5948 604.354 42.1448C604.575 44.098 604.444 46.4125 604.387 48.48C604.249 53.4619 604.104 58.4432 603.991 63.4255C603.564 82.2555 603.297 101.083 604.059 119.908C604.226 124.013 605.722 129.698 604.903 133.688C604.311 136.576 602.33 138.334 606.898 138.867C611.393 139.393 616.89 138.056 621.389 137.628C625.915 137.198 630.439 136.73 634.97 136.357C654.668 134.734 674.557 134.979 694.308 134.439C714.235 133.895 734.171 133.861 754.106 133.849C762.447 133.845 771.978 134.314 780.117 132.019C782.979 131.21 783.443 130.812 782.736 127.972C782.603 127.432 781.738 127.233 781.485 126.259C781.139 124.933 781.317 123.321 781.236 121.941C780.973 117.433 780.88 112.916 780.668 108.406C780.314 100.869 779.014 93.5537 778.053 86.0925C776.944 77.4764 777.001 68.7269 776.979 60.0539C776.966 55.2432 777.09 50.4483 777.476 45.651C777.724 42.5741 779.239 37.9803 778.47 35.1108C778.087 33.6821 777.462 32.549 775.974 31.9342C775.032 31.5442 774.24 31.8494 773.308 31.7507C772.204 31.6335 771.515 31.4784 770.192 31.1787C764.521 29.8936 758.458 30.0023 752.681 30.0023Z" fill="#56919C"/>
<path fill-rule="evenodd" clip-rule="evenodd" d="M729.784 50.4874C729.78 53.486 729.313 57.9108 730.696 60.7344C732.448 64.3159 734.642 63.1963 735.223 59.8307C735.556 57.9023 735.548 52.1954 734.928 50.4874C734.052 48.0698 729.784 46.4231 729.784 50.4874Z" fill="#89C5CC"/>
<path fill-rule="evenodd" clip-rule="evenodd" d="M734.814 51.6452C732 51.7445 723.801 51.0687 721.897 53.3322C718.63 57.2145 724.317 57.9021 726.76 57.6848C729.586 57.4334 738.318 58.0468 740.211 55.7808C743.377 51.9898 737.029 51.5644 734.814 51.6452Z" fill="#89C5CC"/>
<path fill-rule="evenodd" clip-rule="evenodd" d="M625.573 151.819C637.948 153.969 634.099 172.839 622.387 168.467C618.307 166.945 612.296 162.544 614.551 157.36C616.235 153.486 621.726 151.45 625.573 151.819ZM620.448 145.953C612.4 147.308 606.897 156.017 609.657 163.615C612.319 170.944 622.416 176.311 629.864 173.678C636.972 171.162 640.519 161.704 638.123 154.785C635.618 147.556 627.46 144.772 620.448 145.953Z" fill="#89C5CC"/>
<path fill-rule="evenodd" clip-rule="evenodd" d="M695.724 154.027C692.643 154.282 689.981 156.439 686.88 156.822C683.981 157.179 681.579 156.186 678.864 155.394C675.583 154.436 672.574 154.014 669.221 154.866C666.659 155.516 664.132 157.26 661.471 157.47C656.233 157.883 650.147 151.908 646.058 158.666C644.097 161.906 646.944 163.994 649.876 162.483C652.932 160.907 651.432 160.344 655.224 161.274C658.386 162.049 660.944 162.471 664.112 161.384C666.982 160.4 669.502 158.597 672.622 158.395C675.677 158.197 678.334 159.589 681.254 160.189C684.845 160.927 688.021 160.369 691.424 159.243C694.66 158.173 695.951 157.586 699.217 158.541C701.284 159.147 705.802 161.069 707.814 159.52C711.294 156.843 706.635 156.452 704.801 156.071C701.847 155.459 698.79 153.775 695.724 154.027Z" fill="#89C5CC"/>
<path fill-rule="evenodd" clip-rule="evenodd" d="M766.237 152.228C766.261 152.247 766.286 152.266 766.31 152.285C766.286 152.266 766.26 152.247 766.237 152.228ZM763.211 151.595C767.71 151.885 772.574 160.079 766.614 160.37C762.419 160.575 757.725 153.4 763.211 151.595ZM762.58 144.89C748.357 148.862 754.859 168.916 768.579 166.599C774.811 165.547 776.923 158.327 774.862 152.983C773.977 150.687 772.252 148.752 770.191 147.43C768.67 146.456 764.319 144.406 762.58 144.89Z" fill="#89C5CC"/>
<path fill-rule="evenodd" clip-rule="evenodd" d="M696.219 186.755C708.736 186.326 721.254 185.895 733.783 185.779C740.573 185.717 747.327 185.835 754.107 186.224C757.115 186.397 760.12 186.563 763.13 186.69C763.648 186.713 764.365 186.677 765.157 186.639C767.02 186.547 769.294 186.435 770.364 187.001C776.35 190.167 764.155 190.514 762.673 190.49C759.353 190.434 756.036 190.269 752.72 190.106C749.822 189.963 746.923 189.82 744.022 189.748C725.41 189.29 706.685 190.127 688.041 190.959C683.767 191.15 679.498 191.341 675.235 191.515C670.709 191.702 666.184 191.822 661.66 191.941C655.192 192.113 648.724 192.285 642.257 192.649C639.787 192.788 637.318 192.934 634.848 193.081C631.311 193.292 627.774 193.503 624.235 193.689C621.465 193.835 618.693 193.977 615.92 194.047C615.42 194.059 614.769 194.129 614.058 194.204C612.339 194.388 610.27 194.608 609.151 194.151C607.807 193.602 606.72 192.833 607.459 191.203C608.085 189.825 610.357 189.991 612.013 190.111C612.466 190.144 612.872 190.173 613.186 190.167C618.482 190.065 623.765 189.767 629.051 189.443C630.984 189.325 632.917 189.203 634.849 189.082C644.912 188.449 654.966 187.817 665.053 187.645C675.446 187.468 685.832 187.111 696.219 186.755ZM761.592 269.134L765.19 269.091C767.049 269.252 767.88 271.203 766.687 272.702C765.773 273.851 762.258 273.902 759.966 273.935C759.33 273.945 758.79 273.954 758.424 273.983C752.441 274.464 746.471 274.68 740.47 274.738C727.834 274.857 715.245 275.399 702.63 276.119C689.716 276.855 676.792 277.132 663.867 277.409C654.358 277.612 644.847 277.817 635.342 278.203C629.898 278.424 624.453 278.59 619.007 278.733C618.422 278.748 617.644 278.832 616.763 278.926C613.323 279.299 608.324 279.838 607.192 277.106C606.186 274.682 607.583 273.566 609.627 273.058C609.304 271.622 609.364 269.605 609.399 268.449C609.408 268.101 609.417 267.832 609.412 267.679C609.36 266.23 609.323 264.781 609.288 263.331C609.247 261.689 609.207 260.047 609.144 258.405C609.087 256.915 609.033 255.423 608.979 253.931C608.768 248.046 608.558 242.147 608.105 236.286C607.895 233.58 607.564 230.906 607.233 228.237C606.705 223.975 606.177 219.724 606.153 215.374C606.149 214.591 606.109 213.613 606.065 212.508C605.839 206.86 605.482 197.93 608.988 195.211C615.17 191.603 613.949 202.016 613.402 206.663C613.313 207.43 613.241 208.04 613.224 208.405C612.869 216.131 613.351 223.519 614.129 231.198C614.654 236.383 614.348 241.552 614.04 246.729C613.93 248.577 613.821 250.427 613.749 252.28C613.713 253.196 613.682 254.113 613.65 255.028C613.553 257.846 613.455 260.663 613.243 263.478C613.22 263.783 613.212 264.367 613.202 265.113C613.174 267.217 613.13 270.614 612.68 272.675C613.639 272.633 614.57 272.644 615.339 272.653C615.83 272.658 616.253 272.662 616.578 272.653C618.054 272.607 619.53 272.564 621.007 272.521C625.365 272.393 629.725 272.265 634.084 272.102C644.373 271.715 654.666 271.586 664.958 271.457C677.116 271.304 689.272 271.151 701.423 270.574C721.449 269.622 741.544 269.378 761.592 269.134ZM765.306 193.589C765.296 206.826 766.319 219.7 767.515 232.884C768.255 241.039 768.848 249.225 769.32 257.4C769.342 257.779 769.338 258.41 769.335 259.201V259.202C769.31 263.723 769.259 273.464 773.727 271.134C777.1 269.375 775.803 259.172 775.086 253.526C774.929 252.289 774.799 251.269 774.753 250.607C774.655 249.195 774.558 247.783 774.461 246.372C774.012 239.818 773.563 233.269 772.972 226.723L772.847 225.342C772.163 217.782 771.479 210.226 771.358 202.63C771.348 202.002 771.408 201.127 771.477 200.138C771.674 197.279 771.937 193.471 770.749 191.952C769.078 189.815 765.31 190.447 765.306 193.589Z" fill="#56919C"/>
<path fill-rule="evenodd" clip-rule="evenodd" d="M696.791 226.039C712.778 218.806 728.952 211.489 745.578 206.279C746.779 205.902 747.54 207.141 747.267 208.181C746.985 209.252 744.384 210.166 742.659 210.773C742.143 210.954 741.706 211.108 741.432 211.23C739.111 212.267 736.782 213.291 734.454 214.316C732.07 215.365 729.686 216.414 727.308 217.477C722.363 219.686 717.414 221.885 712.465 224.085C707.165 226.44 701.865 228.795 696.571 231.163C696.37 231.253 696.169 231.342 695.969 231.432C703.167 233.991 710.325 236.663 717.452 239.416C719.888 240.357 722.315 241.317 724.742 242.278C726.115 242.822 727.488 243.365 728.863 243.905C729.31 244.08 730.09 244.319 731.027 244.605C734.079 245.536 738.8 246.978 739.149 248.434C739.717 250.807 733.198 248.512 730.74 247.646C730.413 247.531 730.158 247.442 730.001 247.391C726.371 246.231 722.786 244.939 719.203 243.647L718.707 243.468C715.866 242.445 713.03 241.411 710.194 240.376C704.654 238.357 699.114 236.336 693.544 234.398C692.756 234.124 691.968 233.851 691.18 233.579C682.241 237.593 673.32 241.648 664.428 245.765C659.66 247.973 654.918 250.234 650.189 252.523C649.156 253.023 647.879 253.795 646.489 254.634C643.162 256.646 639.2 259.04 636.475 258.981C635.014 258.949 634.029 258.636 633.876 256.864C633.719 255.036 636.064 254.078 637.751 253.389C638.154 253.223 638.519 253.074 638.804 252.932C643.859 250.403 648.944 247.94 654.045 245.506C664.175 240.675 674.4 236.036 684.662 231.489C684.72 231.463 684.779 231.438 684.838 231.411C679.147 229.485 673.441 227.605 667.722 225.765C667.151 225.581 665.98 225.256 664.441 224.83C657.17 222.817 641.682 218.527 642.372 216.022C643.162 213.156 657.683 218.394 664.111 220.714C665.316 221.148 666.237 221.48 666.73 221.637C674.415 224.086 682.08 226.605 689.704 229.238C692.063 228.178 694.425 227.11 696.791 226.039Z" fill="#89C5CC"/>
<path fill-rule="evenodd" clip-rule="evenodd" d="M628.287 288.991C632.967 289.812 636.269 294.301 635.754 299.002C635.061 305.354 628.73 308.266 622.881 307.437C616.244 306.496 614.849 300.886 618.064 295.49C618.776 294.295 619.594 292.865 620.889 292.236C621.779 291.803 622.912 292.185 623.628 291.837C626.139 290.615 624.629 288.666 628.287 288.991ZM626.157 284.842C620.446 285.571 609.894 292.18 610.429 298.791C610.892 299.558 611.589 299.871 612.519 299.732C612.296 301.165 612.369 302.581 612.739 303.983C613.281 305.803 614.363 307.294 615.813 308.478C618.8 310.92 622.882 311.519 626.601 311.091C633.543 310.293 639.016 305.547 639.407 298.324C639.787 291.275 633.634 283.898 626.157 284.842Z" fill="#89C5CC"/>
<path fill-rule="evenodd" clip-rule="evenodd" d="M653.816 293.446C651.253 294.803 647.2 296.889 645.698 299.468C644.11 302.192 645.754 305.172 649.098 303.883C651.753 302.861 653.442 299.611 656.274 298.569C658.774 297.649 659.78 298.118 662.422 299.033C665.144 299.976 667.523 300.888 670.465 300.656C674.164 300.366 677.366 298.221 680.986 297.734C684.034 297.323 686.547 298.509 689.466 298.981C692.852 299.528 695.066 298.246 698.234 297.578C700.39 297.125 704.188 298.972 705.76 298.281C709.294 296.727 705.555 294.827 703.599 294.199C700.302 293.142 698.274 294.075 695.139 294.952C691.736 295.904 690.266 295.188 687.012 294.313C680.429 292.545 675.343 296.822 669.104 296.045C663.328 295.324 659.87 290.239 653.816 293.446Z" fill="#89C5CC"/>
<path fill-rule="evenodd" clip-rule="evenodd" d="M761.452 290.285C767.788 296.225 760.67 304.677 753.684 299.929C751.226 298.259 751.186 295.575 753.099 293.173C754.85 290.977 758.695 290.121 761.452 290.285ZM759.103 285.484C753.184 286.636 747.601 289.352 747.064 296.184C746.541 302.85 753.379 305.946 759.123 305.509C772.019 304.526 771.086 283.168 759.103 285.484Z" fill="#89C5CC"/>
</g>
<path opacity="0.5" fill-rule="evenodd" clip-rule="evenodd" d="M986.606 64.0948C979.892 64.1863 963.313 65.9085 960.848 71.51C958.977 75.7611 964.534 74.8276 967.513 73.2812C971.543 71.1884 975.077 69.9367 980.07 69.3C999.089 66.8738 1017.36 75.575 1036.2 76.6752C1043.34 77.0924 1051.95 77.3634 1058.76 75.7342C1063.61 74.5727 1064.25 72.0423 1058.71 71.6573C1054.01 71.3293 1048.8 72.3617 1043.98 72.3327C1024.02 72.2122 1006.28 63.8301 986.606 64.0948Z" fill="#C1DEE2"/>
<g opacity="0.5">
<path fill-rule="evenodd" clip-rule="evenodd" d="M292.118 330.103C283.059 330.204 274.004 330.538 264.962 331.11C256.364 331.656 247.035 331.242 238.577 332.908C236.174 333.382 232.93 335.57 236.124 337.978C238.368 339.671 246.581 337.724 249.261 337.559C259.132 336.952 269.009 336.225 278.894 335.877C288.252 335.545 297.61 335.429 306.972 335.336C308.402 335.322 310.774 334.864 312.198 335.279C314.243 335.874 313.758 336.037 313.911 338.633C314.188 343.337 314.112 348.058 314.019 352.766C313.928 357.322 313.76 361.878 313.777 366.436C313.788 369.688 312.748 376.15 314.38 378.974C316.73 383.041 319.165 378.625 319.341 375.924C319.677 370.756 319.527 365.527 319.528 360.353C319.529 355.497 319.564 350.641 319.393 345.788C319.269 342.282 319.77 336.162 317.881 332.974C315.957 329.727 311.327 330.428 307.947 330.273C302.675 330.031 297.394 330.048 292.118 330.103Z" fill="#89C5CC"/>
<path fill-rule="evenodd" clip-rule="evenodd" d="M234.477 335.962C234.487 345.085 233.431 354.149 233.136 363.262C233 367.453 232.725 372.053 233.785 376.167C234.855 380.32 238.253 381.22 238.644 376.583C239.437 367.195 239.243 357.459 239.86 347.994C240.078 344.653 241.496 338.53 240.173 335.4C239.007 332.644 234.472 332.116 234.477 335.962Z" fill="#89C5CC"/>
<path fill-rule="evenodd" clip-rule="evenodd" d="M319.43 376.178C303.697 378.262 287.25 377.502 271.404 377.83C263.802 377.987 256.202 377.997 248.599 378.077C245.945 378.103 239.206 377.095 236.911 378.586C233.257 380.961 237.221 382.793 239.641 382.846C254.645 383.174 269.816 382.485 284.817 381.992C291.557 381.771 298.319 381.663 305.041 381.09C309.179 380.737 313.701 380.395 317.72 379.283C318.576 379.045 320.441 379.095 320.632 377.927C320.751 377.205 320.537 376.027 319.43 376.178Z" fill="#89C5CC"/>
<path fill-rule="evenodd" clip-rule="evenodd" d="M254.006 389.441C249.634 389.467 236.457 387.436 234.646 391.7C232.232 397.386 241.65 396.059 244.183 395.994C249.936 395.846 255.684 395.83 261.439 395.834C267.084 395.836 272.73 395.799 278.375 395.665C280.011 395.626 283.818 396.305 284.759 394.334C285.474 392.839 284.908 391.658 283.59 390.865C280.416 388.959 272.173 390.064 268.459 389.892C263.649 389.672 258.822 389.441 254.006 389.441Z" fill="#89C5CC"/>
<path fill-rule="evenodd" clip-rule="evenodd" d="M307.204 390.494C304.704 390.643 299.65 389.612 297.411 390.757C294.867 392.057 295.763 394.091 297.959 394.986C299.481 395.606 305.722 395.281 307.204 394.564C308.748 393.815 310.494 390.292 307.204 390.494Z" fill="#89C5CC"/>
<path fill-rule="evenodd" clip-rule="evenodd" d="M334.601 336.857C331.932 337.59 332.741 352.742 332.672 355.144C332.484 361.725 331.744 370.002 333.931 376.341C335.326 380.381 338.004 379.833 337.547 375.579C337.147 371.846 336.459 368.155 336.161 364.397C335.489 355.894 334.573 346.824 335.208 338.314C335.479 338.808 338.011 343.395 338.607 343.052C338.427 343.159 335.687 336.571 334.601 336.857Z" fill="#89C5CC"/>
<path fill-rule="evenodd" clip-rule="evenodd" d="M364.623 331.276C359.222 331.357 353.82 331.452 348.421 331.602C344.126 331.721 337.38 331.016 333.443 332.822C328.755 334.972 330.979 339.763 335.382 339.864C339.279 339.954 343.433 339.076 347.363 338.941C357.981 338.577 368.618 338.501 379.24 338.409C388.847 338.326 398.862 339.351 408.385 337.908C409.797 350.45 405.977 363.046 407.276 375.732C407.477 377.701 407.387 380.483 409.895 380.932C413.06 381.498 413.19 378.364 413.31 376.119C413.652 369.711 413.467 363.297 413.936 356.88C414.371 350.933 415.227 344.856 414.503 338.9C413.614 331.571 410.101 332.158 403.893 331.853C390.781 331.21 377.75 331.083 364.623 331.276Z" fill="#89C5CC"/>
<path fill-rule="evenodd" clip-rule="evenodd" d="M346.521 375.812C343.768 375.882 339.198 375.033 337.434 377.672C335.599 380.419 337.776 382.814 340.444 383.377C343.603 384.044 347.72 383.13 350.998 383.12C354.411 383.109 357.826 383.148 361.239 383.161C375.873 383.218 390.57 383.44 405.194 382.835C407.236 382.75 413.033 383.435 414.446 381.476C415.701 379.739 414.823 378.181 413.17 377.296C410.46 375.843 404.894 376.396 401.88 376.281C398.157 376.139 394.428 376.092 390.704 376.034C376.001 375.807 361.222 375.448 346.521 375.812Z" fill="#89C5CC"/>
<path fill-rule="evenodd" clip-rule="evenodd" d="M358.901 388.506C353.425 388.599 347.581 388.359 342.159 389.19C337.391 389.92 336.804 394.528 341.936 395.068C346.653 395.564 352.371 394.638 357.11 394.333C358.793 394.225 360.75 394.379 361.557 392.517C362.399 390.574 360.789 388.709 358.901 388.506Z" fill="#89C5CC"/>
<path fill-rule="evenodd" clip-rule="evenodd" d="M400.302 388.99C397.379 389.063 388.842 387.806 387.393 391.145C384.983 396.702 396.542 394.591 398.759 394.51C401.554 394.406 412.446 396.038 412.448 391.589C412.45 387.227 402.979 388.923 400.302 388.99Z" fill="#89C5CC"/>
<path fill-rule="evenodd" clip-rule="evenodd" d="M234.004 416.61C234.012 426.721 233.382 436.928 234.304 447.014C234.686 451.186 234.62 459.177 237.037 462.713C238.752 465.223 241.131 465.048 242.068 462.033C242.693 460.018 241.692 455.988 241.58 453.832C241.473 451.764 241.347 449.696 241.251 447.626C241.005 442.295 241.025 436.973 241.099 431.639C241.161 427.063 242.262 421.01 241.224 416.61C240.255 412.51 234.004 411.551 234.004 416.61Z" fill="#56919C"/>
<path fill-rule="evenodd" clip-rule="evenodd" d="M335.627 407.715C318.084 408.155 300.501 407.762 282.974 408.63C274.33 409.058 265.719 409.999 257.118 410.936C252.893 411.397 248.669 411.872 244.452 412.392C243.178 412.549 232.601 412.958 236.58 416.98C238.317 418.738 243.845 416.903 246.033 416.644C250.267 416.144 254.511 415.708 258.751 415.26C266.822 414.406 274.902 413.597 283.007 413.149C302.094 412.091 321.261 412.408 340.367 411.703C345.536 411.513 350.689 411.377 355.859 411.58C357.217 411.632 367.194 412.14 362.862 408.455C360.814 406.712 353.091 407.612 350.532 407.559C345.563 407.457 340.593 407.59 335.627 407.715Z" fill="#56919C"/>
<path fill-rule="evenodd" clip-rule="evenodd" d="M359.541 424.75C359.455 420.079 359.368 415.406 359.155 410.739C358.932 405.823 365.628 405.079 367.613 409.058C369.044 411.923 368.792 416.796 368.577 420.974C368.49 422.657 368.408 424.229 368.446 425.508C368.531 428.442 368.747 431.477 368.965 434.55C369.516 442.287 370.085 450.278 368.638 457.581C367.935 461.13 364.942 462.995 362.949 461.061C362.946 461.064 362.944 461.069 362.941 461.073C362.191 462.177 359.859 462.175 358.14 462.173C357.667 462.173 357.24 462.172 356.907 462.195C352.2 462.515 347.58 463.055 342.913 463.754C333.618 465.148 324.402 466.004 315.007 466.236C308.631 466.394 302.246 466.447 295.86 466.499C283.631 466.602 271.396 466.703 259.205 467.539C255.096 467.821 251.048 468.305 247.006 469.079C246.662 469.145 246.279 469.23 245.872 469.32C242.866 469.989 238.515 470.957 238.217 466.756C237.864 461.77 248.67 461.117 254.23 460.782C255.08 460.73 255.807 460.686 256.352 460.635C273.237 459.065 290.386 459.308 307.342 459.548C308.164 459.56 308.985 459.572 309.806 459.584C311.129 459.602 312.452 459.623 313.774 459.645C321.034 459.764 328.286 459.884 335.543 459.441C338.846 459.238 342.192 459.134 345.544 459.031C350.892 458.864 356.255 458.698 361.486 458.132C360.696 455.073 360.559 451.464 360.428 448.062C360.378 446.738 360.328 445.444 360.242 444.228C359.783 437.744 359.663 431.248 359.541 424.75Z" fill="#56919C"/>
<path fill-rule="evenodd" clip-rule="evenodd" d="M373.74 414.34C371.37 414.662 369.393 416.691 370.451 419.263C371.784 422.503 375.753 421.237 378.375 421.031C386.709 420.379 395.411 421.683 403.646 420.699C405.894 420.43 409.156 419.205 407.138 416.184C405.62 413.913 400.091 414.311 397.74 414.094C389.701 413.35 381.768 413.549 373.74 414.34Z" fill="#C1DEE2"/>
<path fill-rule="evenodd" clip-rule="evenodd" d="M387.806 428.472C384.574 428.689 377.05 428.518 375.687 432.196C373.244 438.794 382.814 436.469 385.728 436.093C389.114 435.658 397.093 436.825 398.896 433.543C402.119 427.673 390.641 428.276 387.806 428.472Z" fill="#C1DEE2"/>
<path fill-rule="evenodd" clip-rule="evenodd" d="M379.494 442.951C377.961 444.485 377.959 447.224 379.494 448.758C381.374 450.636 385.472 450.247 387.942 450.383C391.387 450.576 401.284 452.399 402.995 448.341C405.304 442.866 396.342 442.981 393.394 442.671C389.987 442.311 382.318 440.126 379.494 442.951Z" fill="#C1DEE2"/>
<path fill-rule="evenodd" clip-rule="evenodd" d="M258.703 349.242C258.703 355.127 267.896 355.127 267.896 349.242C267.896 343.387 258.703 343.298 258.703 349.242Z" fill="#89C5CC"/>
<path fill-rule="evenodd" clip-rule="evenodd" d="M276.14 349.308C276.14 356.037 286.611 356.023 286.611 349.308C286.611 342.602 276.14 342.534 276.14 349.308Z" fill="#89C5CC"/>
<path fill-rule="evenodd" clip-rule="evenodd" d="M265.591 358.255C260.502 359.66 265.191 363.974 267.553 364.959C271.31 366.524 276.436 367.679 280.193 365.331C281.687 364.396 282.901 363.155 281.806 361.342C280.638 359.411 279.041 360.27 277.263 360.447C275.012 360.674 273.193 360.639 271.019 359.917C269.397 359.378 267.361 357.767 265.591 358.255Z" fill="#89C5CC"/>
<path fill-rule="evenodd" clip-rule="evenodd" d="M357.912 349.614C357.912 353.595 364.094 353.595 364.094 349.614C364.094 345.633 357.912 345.633 357.912 349.614Z" fill="#89C5CC"/>
<path fill-rule="evenodd" clip-rule="evenodd" d="M371.583 350.213C371.583 354.636 378.45 354.637 378.45 350.213C378.45 345.79 371.583 345.79 371.583 350.213Z" fill="#89C5CC"/>
<path fill-rule="evenodd" clip-rule="evenodd" d="M371.074 359.812C367.467 360.277 357.034 361.335 356.45 365.781C355.55 372.641 366.981 367.089 369.59 366.55C372.914 365.864 375.881 366.044 379.199 366.177C381.021 366.249 383.443 366.545 383.252 363.77C382.939 359.214 374.227 359.407 371.074 359.812Z" fill="#89C5CC"/>
<path fill-rule="evenodd" clip-rule="evenodd" d="M280.377 423.073C277.762 423.771 274.342 428.291 276.141 431.058C279.091 435.596 280.391 428.629 281.626 427.958C283.873 426.738 285.695 431.197 288.043 428.858C291.747 425.167 282.709 422.45 280.377 423.073Z" fill="#56919C"/>
<path fill-rule="evenodd" clip-rule="evenodd" d="M310.336 419.72C307.236 419.748 300.69 424.138 300.226 427.379C299.951 429.306 301.228 431.156 303.304 431.182C306.131 431.217 307.029 427.541 309.48 426.772C312.124 425.943 311.731 427.853 314.014 428.842C315.685 429.567 317.775 429.264 318.356 427.21C319.45 423.335 313.523 419.659 310.336 419.72Z" fill="#56919C"/>
<path fill-rule="evenodd" clip-rule="evenodd" d="M286.602 438.28C281.642 441.185 289.802 447.415 292.632 448.195C296.902 449.369 305.498 447.175 306.511 441.959C306.913 439.882 305.614 438.001 303.323 438.373C301.436 438.68 300.226 441.046 298.479 441.894C296.119 443.037 294.022 442.96 292.019 441.238C290.385 439.835 289.511 436.583 286.602 438.28Z" fill="#56919C"/>
<path fill-rule="evenodd" clip-rule="evenodd" d="M290.196 481.222C285.765 482.167 281.26 481.533 276.808 482.421C272.268 483.327 269.555 485.043 265.337 483.314C265.138 483.231 264.94 483.147 264.742 483.063C261.477 481.657 258.055 481.241 254.639 483.482C252.616 484.808 246.476 489.396 247.216 492.195C248.82 498.263 255.728 488.747 257.49 487.82C260.849 486.051 263.152 488.311 266.61 488.949C270.753 489.712 274.085 487.524 277.988 486.651C282.551 485.632 287.685 485.277 292.328 484.731C294.162 484.516 301.11 485.966 301.737 483.683C302.815 479.761 291.938 480.853 290.196 481.222Z" fill="#C1DEE2"/>
<path fill-rule="evenodd" clip-rule="evenodd" d="M322.165 493.444C322.455 493.663 322.223 493.487 322.165 493.444ZM334.575 480.985C338.369 480.6 350.505 477.89 352.997 481.81C354.62 484.363 352.045 493.786 349.587 495.005C347.623 495.978 343.049 494.902 340.894 494.826C336.884 494.685 332.866 494.622 328.86 494.372C327.517 494.288 323.195 494.535 322.142 493.346C320.899 491.942 320.954 484.459 320.661 482.603C324.149 483.732 330.928 481.355 334.575 480.985ZM342.675 477.142C337.817 477.352 332.959 477.717 328.137 478.369C325.45 478.732 322.726 479.698 320.244 480.156C319.444 480.303 318.145 479.894 317.164 480.368C314.296 481.753 316.807 491.12 317.498 493.621C318.561 497.466 321.233 498.088 324.979 498.45C329.912 498.928 334.946 498.778 339.895 498.717C344.664 498.658 351.096 499.715 353.773 494.93C355.503 491.835 357.358 484.629 355.88 481.18C353.934 476.642 346.67 476.974 342.675 477.142Z" fill="#C1DEE2"/>
<path fill-rule="evenodd" clip-rule="evenodd" d="M397.079 496.018C396.819 496.352 396.819 496.352 397.079 496.018ZM398.144 494.734C398.063 494.857 397.69 495.25 398.144 494.734ZM386.558 494.381C388.7 493.979 390.842 493.58 392.985 493.189C390.955 496.031 388.817 494.857 385.349 494.609C385.752 494.533 386.155 494.458 386.558 494.381ZM376.34 493.376C376.883 493.194 377.426 493.014 377.969 492.832C377.952 493.245 378.041 493.632 378.235 493.992C377.306 493.891 376.378 493.783 375.45 493.669C375.746 493.572 376.044 493.474 376.34 493.376ZM371.606 489.88C371.575 489.135 372.697 489.646 373.34 489.596C372.101 490.686 371.522 490.782 371.606 489.88ZM388.538 481.423C388.702 481.214 388.918 481.225 389.186 481.454C388.893 481.552 387.764 482.031 388.538 481.423ZM399.519 480.131C400.158 480.954 399.548 480.131 399.519 480.131ZM399.212 479.861C399.371 479.984 399.371 479.984 399.212 479.861ZM397.841 479.701C400.086 480.081 399.915 482.715 397.841 479.701ZM371.463 479.521C371.163 479.533 371.006 479.901 371.463 479.521ZM380.049 473.912C376.237 474.134 369.24 473.911 366.057 475.941C361.903 478.592 364.089 487.718 364.46 491.719C365.01 497.631 367.792 499.315 373.361 499.936C380.007 500.677 386.835 500.814 393.515 500.639C399.531 500.481 402.957 498.412 404.06 492.078C404.397 490.139 405.253 487.141 405.227 485.285C405.208 483.997 404.566 483.41 404.323 482.315C402.942 476.081 400.631 475.341 394.242 475.07C389.54 474.87 384.664 473.67 380.049 473.912Z" fill="#89C5CC"/>
</g>
<g opacity="0.5">
<path fill-rule="evenodd" clip-rule="evenodd" d="M691.655 330.695C701.347 330.902 712.342 336.266 710.809 347.629C709.686 355.952 702.48 362.709 694.133 363.292C685.162 363.918 675.677 357.033 674.458 347.899C673.087 337.625 682.179 330.49 691.655 330.695ZM686.903 326.07C682.973 326.656 679.219 328.72 675.76 330.567C674.439 331.274 667.745 335.577 672.996 336.646C660.344 357.049 690.118 376.002 706.859 362.741C714.377 356.786 718.335 345.495 713.475 336.657C708.45 327.516 696.531 324.624 686.903 326.07Z" fill="#89C5CC"/>
<path fill-rule="evenodd" clip-rule="evenodd" d="M684.587 343.438C684.587 347.249 690.503 347.249 690.503 343.438C690.503 339.627 684.587 339.627 684.587 343.438Z" fill="#89C5CC"/>
<path fill-rule="evenodd" clip-rule="evenodd" d="M695.553 344.047C695.553 348.179 701.967 348.179 701.967 344.047C701.967 339.917 695.553 339.917 695.553 344.047Z" fill="#89C5CC"/>
<path fill-rule="evenodd" clip-rule="evenodd" d="M688.153 352.218C687.289 355.353 697.13 356.961 697.458 353.334C697.614 351.6 688.753 350.032 688.153 352.218Z" fill="#89C5CC"/>
<path fill-rule="evenodd" clip-rule="evenodd" d="M716.999 350.282C728.323 348.922 739.998 349.55 751.376 349.876C754.223 349.959 757.07 350.039 759.919 350.086C761.728 350.116 765.639 350.985 767.219 350.138C773.69 346.667 760.996 344.99 759.199 344.83C747.882 343.899 730.416 343.567 719.065 344.006C715.708 344.137 714.982 350.524 716.999 350.282Z" fill="#89C5CC"/>
<path fill-rule="evenodd" clip-rule="evenodd" d="M767.953 406.572C768.05 394.708 768.476 382.763 769.388 370.934C769.759 366.113 770.205 361.298 770.574 356.476C770.748 354.206 771.555 351.025 770.22 349.032C768.845 346.979 765.827 346.552 764.008 348.372C761.832 351.189 762.464 355.918 762.193 359.327C761.777 364.567 761.275 369.805 761.024 375.057C760.541 385.222 760.428 395.564 761.246 405.716C761.631 410.505 762.467 415.179 763.58 419.851C764.087 421.978 768.116 431.45 767.27 432.757C765.957 434.783 756.252 434.017 754.146 434.073C748.743 434.218 743.339 434.313 737.935 434.416C733.309 434.504 728.683 434.568 724.055 434.608C722.218 434.625 711.423 434.298 713.818 437.022C687.041 438.887 659.752 435.772 633.138 434.704C631.794 434.649 629.595 434.268 627.564 434.158C627.321 433.177 627.121 432.302 627.072 431.692C626.722 427.415 626.631 423.123 626.251 418.847C625.558 411.023 624.212 403.279 623.412 395.468C622.613 387.666 622.694 379.84 622.228 372.019C622.149 370.679 621.961 359.701 619.19 357.033C620.503 357.531 622.622 357.597 623.841 357.498C633.714 356.702 643.514 354.986 653.302 353.513C656.102 353.093 662.457 353.391 664.78 351.992C666.79 350.78 667.586 346.531 664.088 346.875C654.328 347.92 644.621 349.543 634.939 351.14C632.348 351.567 629.765 352.024 627.182 352.491C625.457 352.802 620.903 352.779 619.566 353.819C617.941 355.081 617.769 355.941 618.319 356.512C617.554 356.301 616.636 356.632 615.534 357.734C613.45 360.446 615.409 367.126 615.658 370.306C615.956 374.12 616.103 377.94 616.276 381.762C616.611 389.156 617.386 396.449 618.575 403.755C619.909 411.939 621.043 420.157 622.38 428.339C622.727 430.469 623.181 432.547 623.761 434.605C620.159 436.446 622.608 439.376 625.463 439.895C625.484 439.899 625.505 439.902 625.526 439.906C626.416 442.077 627.661 444.088 628.633 441.179C628.708 440.955 628.743 440.681 628.752 440.373C636.128 441.207 644.236 440.689 651.499 440.986C667.23 441.629 683.057 442.593 698.805 442.104C705.039 441.91 711.291 441.357 717.473 440.525C721.094 440.038 724.73 439.456 728.294 438.649C728.549 438.591 728.937 438.53 729.386 438.456C729.459 438.454 729.533 438.452 729.602 438.452C735.06 438.369 740.512 438.223 745.964 437.996C750.541 437.806 755.139 437.708 759.7 437.277C762.534 437.009 768.523 437.058 770.262 434.208C771.844 431.618 769.199 424.943 768.824 422.033C768.164 416.907 767.911 411.735 767.953 406.572Z" fill="#C1DEE2"/>
<path fill-rule="evenodd" clip-rule="evenodd" d="M712.651 372.315C708.291 372.688 704.259 374.735 699.858 374.761C696.164 374.782 692.529 373.678 688.814 373.842C684.458 374.031 682.061 376.848 678.245 377.792C675.207 378.541 673.293 376.215 670.62 375.187C667.247 373.888 664.754 374.559 661.862 376.524C659.737 377.967 654.782 381.207 654.821 384.128C654.935 392.974 665.255 380.754 667.335 380.606C670.1 380.409 673.188 383.56 676.13 383.74C680.018 383.977 682.511 381.471 686.092 380.558C689.713 379.634 693.628 380.765 697.258 381.117C701.4 381.517 705.025 380.594 709.032 379.606C712.915 378.648 716.224 378.698 720.17 379.503C722.832 380.046 729.466 383.203 730.632 379.143C732.218 373.615 715.699 372.055 712.651 372.315Z" fill="#89C5CC"/>
<path fill-rule="evenodd" clip-rule="evenodd" d="M713.978 389.185C705.044 390.053 696.055 390.814 687.079 391.057C683.192 391.163 668.248 389.496 669.573 394.437C670.71 398.672 691.045 396.005 695.188 395.682C699.761 395.327 704.326 394.83 708.877 394.255C710.489 394.051 714.383 394.261 715.521 392.91C716.606 391.619 716.071 388.977 713.978 389.185Z" fill="#89C5CC"/>
<path fill-rule="evenodd" clip-rule="evenodd" d="M652.342 411.682C652.138 411.768 652.138 411.768 652.342 411.682ZM654.227 411.656C656.454 411.586 655.977 410.412 658.198 411.024C659.223 411.306 659.329 410.887 660.123 411.867C661.673 413.778 660.214 417.939 658.686 419.479C653.028 425.18 646.238 411.91 654.227 411.656ZM654.227 406.062C638.738 406.582 645.218 430.509 658.699 425.625C664.267 423.608 667.766 414.521 664.492 409.414C662.899 406.93 660.868 406.488 658.198 406.316C657.579 406.276 656.799 407.176 656.413 407.135C655.494 407.038 655.58 406.011 654.227 406.062Z" fill="#89C5CC"/>
<path fill-rule="evenodd" clip-rule="evenodd" d="M691.267 412.501C690.991 412.416 696.158 413.919 695.592 413.33C696.799 414.585 695.176 417.552 693.811 418.07C690.507 419.325 688.653 414.185 691.267 412.501ZM693.56 406.013C688.71 406.701 684.967 408.72 684.304 414.113C683.693 419.091 687.056 424.133 692.362 424.23C703.926 424.441 704.277 404.519 693.56 406.013Z" fill="#89C5CC"/>
<path fill-rule="evenodd" clip-rule="evenodd" d="M746.351 412.72C747.028 421.559 737.862 413.468 746.351 412.72ZM742.417 403.262C741.615 404.633 742.299 406.086 743.509 406.883C732.697 409.169 735.145 425.438 746.148 423.035C751.743 421.812 752.771 415.929 751.938 411.071C751.541 408.761 745.784 397.505 742.417 403.262Z" fill="#89C5CC"/>
</g>
<path opacity="0.5" fill-rule="evenodd" clip-rule="evenodd" d="M799.333 411.752C794.779 412.325 784.012 415.884 784.107 419.707C784.252 425.676 793.402 419.157 795.438 418.28C806.372 413.571 820.535 419.673 831.92 420.972C837.14 421.567 847.352 422.667 851.963 420.191C860.162 415.789 841.2 416.891 838.784 416.714C825.657 415.754 812.597 410.075 799.333 411.752Z" fill="#C1DEE2"/>
<g opacity="0.5">
<path fill-rule="evenodd" clip-rule="evenodd" d="M1040.68 369.792C1040.68 375.898 1040.37 382.131 1041.5 388.164C1041.84 389.991 1042.11 393.489 1044.03 394.437C1045.97 395.388 1047.84 394.319 1048.32 392.335C1048.89 390.027 1047.66 386.572 1047.53 384.149C1047.36 380.838 1047.35 377.524 1047.35 374.209C1047.35 371.815 1048.13 367.964 1045.31 366.733C1043.21 365.817 1040.68 367.52 1040.68 369.792Z" fill="#C1DEE2"/>
<path fill-rule="evenodd" clip-rule="evenodd" d="M1137.22 360.133C1116.99 362.165 1096.46 362.586 1076.16 363.646C1066.77 364.135 1055.43 363.51 1046.59 367.143C1044.95 367.818 1039.07 371.574 1043.84 373.103C1045.33 373.579 1046.84 371.976 1048.06 371.439C1050.1 370.545 1052.45 370.269 1054.62 369.92C1073.07 366.957 1092.37 367.473 1111.01 366.088C1115.79 365.733 1120.57 365.368 1125.33 364.9C1128.74 364.564 1135.89 362.11 1139.04 363.365C1144.41 365.51 1144.28 379.448 1144.39 384.241C1144.44 386.72 1142.04 395.617 1146.82 394.715C1150.65 393.994 1149.26 384.749 1148.96 382.221C1148.18 375.592 1146.84 359.158 1137.22 360.133Z" fill="#C1DEE2"/>
<path fill-rule="evenodd" clip-rule="evenodd" d="M1144.68 394.395C1127.11 395.981 1109.13 394.424 1091.48 395.048C1082.23 395.375 1072.99 395.897 1063.74 396.202C1059.74 396.335 1055.74 396.34 1051.73 396.369C1049.82 396.382 1041.11 397.542 1046.5 401.337C1048.88 403.018 1056.49 401.664 1059.23 401.632C1063.34 401.584 1067.45 401.413 1071.56 401.251C1081.08 400.879 1090.59 400.363 1100.12 400.106C1109.23 399.859 1118.35 399.806 1127.46 399.56C1131.99 399.436 1136.59 399.297 1141.08 398.636C1142.09 398.487 1145.39 398.367 1146.09 397.237C1146.76 396.168 1146.29 394.239 1144.68 394.395Z" fill="#89C5CC"/>
<path fill-rule="evenodd" clip-rule="evenodd" d="M1058.31 381.201C1058.22 381.424 1058.22 381.424 1058.31 381.201ZM1065.92 378.887C1066.2 379.005 1066.2 379.005 1065.92 378.887ZM1065.56 378.823C1069.67 383.003 1063.36 387.993 1059.52 383.914C1055.44 379.583 1062.92 378.837 1065.56 378.823ZM1061.21 372.499C1047.09 375.013 1052.09 393.839 1065.28 391.118C1071.08 389.924 1074.39 384.089 1072.39 378.484C1071.62 376.293 1069.92 373.89 1067.55 373.201C1066.38 372.856 1065.33 373.397 1064.21 373.27C1063.14 373.15 1062.54 372.26 1061.21 372.499Z" fill="#C1DEE2"/>
<path fill-rule="evenodd" clip-rule="evenodd" d="M1115.28 377.798C1106.76 377.825 1098.24 378.186 1089.72 378.349C1087.11 378.397 1080.39 377.228 1080.38 381.347C1080.37 385.747 1087.85 384.122 1090.34 384.063C1098.79 383.861 1107.26 383.491 1115.67 382.687C1117.8 382.483 1125.16 382.834 1125.15 379.943C1125.14 376.881 1116.99 377.798 1115.28 377.798Z" fill="#C1DEE2"/>
<path fill-rule="evenodd" clip-rule="evenodd" d="M1135.62 406.52C1114.55 407.085 1093.52 407.282 1072.47 408.361C1064.59 408.764 1056.73 409.064 1048.85 409.064C1047.33 409.064 1044.27 408.476 1042.84 409.432C1038.96 412.026 1043.38 414.253 1045.91 414.393C1063.2 415.352 1080.74 412.963 1098.03 412.425C1108.14 412.11 1118.26 412.016 1128.38 411.501C1131.13 411.361 1133.89 411.198 1136.65 410.984C1138.23 410.861 1142.42 411.198 1143.7 410.271C1149.29 406.225 1137.51 406.469 1135.62 406.52Z" fill="#89C5CC"/>
<path fill-rule="evenodd" clip-rule="evenodd" d="M1038.96 416.821C1038.76 422.283 1038.74 427.651 1039.46 433.082C1039.74 435.219 1039.87 437.645 1042.37 438.188C1044.65 438.681 1045.8 436.96 1046.27 435.053C1047.42 430.393 1046.41 423.687 1046.4 418.846C1046.39 416.452 1046.39 413.774 1043.43 413.233C1041.18 412.82 1039.05 414.45 1038.96 416.821Z" fill="#89C5CC"/>
<path fill-rule="evenodd" clip-rule="evenodd" d="M1157.95 429.989C1123.85 431.786 1089.79 433.355 1055.66 434.798C1053 434.911 1032.33 434.685 1039.55 441.895C1041.79 444.122 1047.54 442.614 1050.43 442.473C1054.77 442.259 1059.11 442.096 1063.45 441.876C1080.65 440.999 1097.9 440.764 1115.09 439.781C1124.55 439.24 1133.98 438.394 1143.39 437.293C1147.87 436.769 1153.43 436.823 1157.62 435.069C1159.78 434.166 1162.1 429.769 1157.95 429.989Z" fill="#89C5CC"/>
<path fill-rule="evenodd" clip-rule="evenodd" d="M1138.34 402.282C1135.75 404.865 1137.08 409.96 1137.28 413.153C1137.55 417.546 1137.87 421.942 1138.42 426.311C1138.78 429.149 1138.59 433.566 1140.11 436.018C1141.88 438.889 1145.78 438.571 1147.39 435.798C1148.8 433.345 1148.09 428.184 1148.05 425.465C1148 421.706 1147.76 417.941 1147.54 414.188C1147.35 411.054 1148.07 406.028 1146.34 403.345C1144.59 400.618 1140.77 399.864 1138.34 402.282Z" fill="#89C5CC"/>
<path fill-rule="evenodd" clip-rule="evenodd" d="M1060.4 422.326C1060.09 422.561 1060.09 422.561 1060.4 422.326ZM1066.45 421.567C1072.1 422.704 1062.97 429.302 1060.08 424.774C1059.63 424.066 1059.39 423.196 1060.12 422.581C1060.78 422.02 1061.19 423.013 1061.82 422.747C1062.89 422.286 1065.3 421.524 1066.45 421.567ZM1065.67 416.149C1061.81 416.455 1056.51 416.693 1054.6 420.561C1052.03 425.757 1056.42 430.844 1061.5 431.635C1066.38 432.396 1073.68 429.691 1074.07 423.993C1074.38 419.399 1070.01 415.797 1065.67 416.149Z" fill="#89C5CC"/>
<path fill-rule="evenodd" clip-rule="evenodd" d="M1097.89 418.897C1093.89 418.961 1086.04 417.78 1082.56 419.727C1079.12 421.654 1080.65 425.085 1083.8 425.905C1085.87 426.447 1089.27 425.573 1091.43 425.485C1094.27 425.368 1097.12 425.344 1099.96 425.304C1104.75 425.239 1109.53 425.294 1114.32 425.294C1119.21 425.294 1124.18 425.428 1129.06 425.068C1135.23 424.614 1135.07 419.99 1129.03 419.413C1118.77 418.431 1108.18 418.735 1097.89 418.897Z" fill="#89C5CC"/>
<path fill-rule="evenodd" clip-rule="evenodd" d="M1087.68 470.677C1087.68 472.873 1089.63 470.677 1089.62 470.677C1089.63 470.677 1087.68 468.48 1087.68 470.677Z" fill="#89C5CC"/>
<path fill-rule="evenodd" clip-rule="evenodd" d="M1043.6 452.994C1043.72 459.379 1043.81 465.77 1044.08 472.151C1044.17 474.168 1043.59 478.107 1046.03 479.135C1048.75 480.281 1049.6 477.427 1049.91 475.493C1050.91 469.367 1049.93 462.373 1049.84 456.174C1049.81 454.093 1050.26 451.196 1047.89 450.159C1045.96 449.311 1043.56 450.883 1043.6 452.994Z" fill="#89C5CC"/>
<path fill-rule="evenodd" clip-rule="evenodd" d="M1148.6 453.094C1148.76 453.475 1148.76 453.475 1148.6 453.094ZM1148.83 453.03C1149.48 453.306 1148.96 453.085 1148.83 453.03ZM1097.24 447.869C1087.44 448.023 1077.63 448.139 1067.84 448.558C1063.66 448.738 1059.43 448.883 1055.26 449.277C1052.31 449.556 1044.98 449.673 1043.07 452.084C1039.12 457.062 1047.49 455.703 1049.3 455.299C1052.58 454.563 1055.93 454.328 1059.29 454.151C1066.56 453.767 1073.84 453.562 1081.13 453.415C1100.89 453.017 1120.67 453.078 1140.43 452.989C1142.34 452.98 1145.8 452.21 1147.57 452.985C1149.34 453.76 1149.24 455.668 1149.42 457.882C1149.67 460.829 1147.72 466.443 1149.21 468.922C1151.5 472.767 1154.84 469.502 1155.35 466.699C1156.06 462.827 1154.94 458.177 1153.85 454.474C1152.3 449.252 1150.16 449.044 1145.11 448.636C1139.2 448.159 1133.32 447.87 1127.4 447.815C1117.35 447.723 1107.29 447.713 1097.24 447.869Z" fill="#89C5CC"/>
<path fill-rule="evenodd" clip-rule="evenodd" d="M1136.01 474.263C1114.75 476.732 1092.89 475.277 1071.51 475.364C1066.32 475.385 1061.12 475.427 1055.92 475.679C1053.18 475.811 1046.68 475.055 1044.8 477.172C1040.84 481.631 1047.97 482.28 1050.58 482.096C1055.85 481.721 1061.12 481.551 1066.4 481.51C1085 481.366 1103.7 482.234 1122.28 481.316C1130.07 480.931 1137.68 479.6 1145.32 478.112C1147.01 477.783 1158.6 475.579 1151.99 472.939C1148.09 471.379 1140.12 473.784 1136.01 474.263Z" fill="#89C5CC"/>
<path fill-rule="evenodd" clip-rule="evenodd" d="M1073.94 466.098C1073.79 466.289 1073.79 466.289 1073.94 466.098ZM1073.8 466.065C1073.75 466.202 1073.59 466.539 1073.8 466.065ZM1072.46 464.336C1072.61 464.538 1072.49 464.376 1072.46 464.336ZM1072.41 464.323C1072.92 464.934 1073.26 465.615 1073.44 466.367C1069.03 467.561 1067.34 463.997 1072.41 464.323ZM1072.13 464.156C1072.75 464.417 1072.13 464.157 1072.13 464.156ZM1064.89 458.847C1062.04 462.397 1059.69 466.534 1063.24 470.589C1066.42 474.215 1072.81 474.683 1076.85 472.263C1081 469.769 1080.64 464.518 1077.74 461.09C1075.88 458.883 1074.36 458.945 1071.66 458.584C1069.81 458.339 1066.45 456.906 1064.89 458.847Z" fill="#89C5CC"/>
<path fill-rule="evenodd" clip-rule="evenodd" d="M1094.36 465.418C1094.36 470.145 1114.77 468.11 1118.4 468.105C1121.45 468.101 1139.84 469.778 1138.52 464.913C1137.43 460.916 1119.32 462.903 1115.46 462.897C1112.12 462.893 1094.36 460.603 1094.36 465.418Z" fill="#89C5CC"/>
</g>
<g opacity="0.5">
<path fill-rule="evenodd" clip-rule="evenodd" d="M712.806 509.71C723.029 511.194 733.662 516.002 733.573 527.902C733.498 537.906 725.107 548.554 714.332 547.956C704.636 547.419 695.505 536.815 694.291 527.728C693.661 523.019 694.839 517.951 697.608 514.077C701.237 509.004 706.994 509.011 712.806 509.71ZM707.977 503.243C700.583 503.283 695.174 505.957 690.598 511.603C688.957 513.627 687.048 515.806 685.798 518.099C684.631 520.242 684.836 525.689 688.84 523.135C687.854 533.68 694.017 543.915 702.877 549.318C712.507 555.192 723.392 554.047 731.407 545.814C738.743 538.277 741.326 525.548 735.958 516.227C730.594 506.912 718.165 503.143 707.977 503.243Z" fill="#89C5CC"/>
<path fill-rule="evenodd" clip-rule="evenodd" d="M730.148 500.416C725.414 503.886 721.092 508.454 717.502 513.088C713.993 517.617 711.673 523.272 707.458 527.222C705.33 524.904 702.836 518.642 698.589 521.126C695.065 523.187 697.334 526.732 699.05 529.06C703.482 535.07 708.403 537.49 714.087 531.551C719.249 526.157 722.18 518.963 727.007 513.259C729.124 510.757 732.394 508.274 734.08 505.51C735.608 503.005 733.718 497.793 730.148 500.416Z" fill="#89C5CC"/>
</g>
<g opacity="0.5">
<path fill-rule="evenodd" clip-rule="evenodd" d="M998.299 124.18C998.306 124.653 998.313 125.097 998.322 125.507C998.544 134.437 998.416 143.826 997.69 152.735C997.439 155.812 995.201 159.71 992.648 155.47C991.526 153.605 991.684 149.777 991.799 146.96C991.83 146.204 991.858 145.523 991.858 144.97C991.856 141.828 992.02 138.653 992.186 135.469C992.51 129.245 992.836 122.989 991.914 116.876C991.896 116.752 991.877 116.634 991.861 116.519C991.46 113.832 991.433 113.646 988.477 113.707C987.245 113.733 986.012 113.766 984.781 113.799C983.569 113.832 982.357 113.865 981.145 113.89C979.94 113.915 978.737 113.938 977.534 113.962C973.759 114.034 969.984 114.107 966.211 114.245C965.582 114.268 964.406 114.416 962.924 114.602C959.959 114.973 955.765 115.5 952.236 115.496C952.237 115.511 952.238 115.526 952.239 115.541C952.241 115.569 952.243 115.596 952.243 115.624C952.283 117.573 951.781 119.747 951.277 121.933C950.855 123.763 950.431 125.601 950.323 127.317C950.063 131.403 950.06 135.531 950.058 139.661C950.054 144.688 950.051 149.716 949.585 154.665C949.562 154.907 949.548 155.161 949.534 155.42C949.533 155.454 949.531 155.488 949.529 155.523C949.689 155.498 949.844 155.481 949.994 155.471C952.538 155.31 955.103 155.296 957.664 155.281C959.078 155.273 960.488 155.266 961.894 155.232C964.419 155.174 966.975 155.178 969.541 155.18C975.205 155.186 980.92 155.193 986.461 154.54C988.097 154.328 988.669 156.426 987.935 157.514C987.278 158.489 985.468 158.647 984.143 158.762C983.806 158.792 983.501 158.818 983.254 158.854C979.68 159.384 976.059 159.568 972.453 159.729C968.667 159.896 964.876 160.021 961.087 160.127C960.185 160.152 958.982 160.274 957.647 160.408C954.123 160.764 949.687 161.213 947.486 160.217C945.119 159.146 945.175 157.958 946.14 157.037C945.717 156.105 945.65 154.744 945.597 153.68C945.578 153.273 945.56 152.91 945.525 152.63C945 148.392 944.683 144.207 944.676 139.933C944.661 131.56 944.678 122.863 946.994 114.757C946.066 114.351 945.507 113.752 945.509 112.89C945.52 108.541 959.054 108.762 965.488 108.868C966.639 108.886 967.561 108.901 968.14 108.886C972.827 108.763 977.514 108.747 982.202 108.773C983.192 108.778 984.295 108.713 985.437 108.646C987.866 108.503 990.476 108.35 992.574 108.837C998.087 110.117 998.219 118.897 998.299 124.18Z" fill="#89C5CC"/>
<path fill-rule="evenodd" clip-rule="evenodd" d="M1032.78 109.79C1037.89 109.519 1043.01 109.458 1048.14 109.439C1053.56 109.412 1059 109.509 1064.42 109.675L1064.55 109.68C1066.95 109.752 1080.31 110.153 1074.17 113.481C1073.81 113.676 1073.41 113.837 1072.97 113.973C1073.23 115.514 1073.26 117.104 1073.22 117.871C1073.06 120.778 1072.96 123.689 1072.85 126.599C1072.78 128.571 1072.71 130.543 1072.62 132.515C1072.38 137.961 1072.15 143.407 1071.96 148.857C1071.94 149.525 1071.98 150.4 1072.02 151.375C1072.15 154.598 1072.32 158.918 1070.57 160.515C1069.03 161.916 1067.98 161.636 1067.28 160.683C1062.88 161.96 1053.85 161.545 1049.31 161.337C1048.22 161.286 1047.38 161.247 1046.94 161.247C1046.14 161.248 1044.66 161.347 1042.8 161.473C1035.02 161.995 1020.51 162.97 1020.48 159.137C1020.48 158.769 1020.6 158.438 1020.82 158.142C1020.21 157.514 1019.65 156.591 1019.3 155.439C1018.02 151.305 1017.9 146.846 1017.8 142.559C1017.67 136.507 1017.67 130.447 1017.67 124.389C1017.67 121.277 1017.67 118.166 1017.65 115.057C1016.82 113.94 1017.31 112.664 1018.35 111.773C1020.55 109.879 1026.03 109.856 1030 109.839C1031.07 109.834 1032.02 109.83 1032.78 109.79ZM1024.45 156.461C1029.38 155.408 1037.69 155.747 1042.14 155.928C1043.31 155.976 1044.21 156.012 1044.72 156.01C1049.27 155.993 1053.82 156.056 1058.36 156.238C1058.83 156.256 1059.53 156.239 1060.35 156.218C1062 156.177 1064.15 156.122 1065.98 156.325C1065.96 156.077 1065.94 155.851 1065.93 155.655C1065.72 151.61 1065.87 147.529 1066.02 143.472C1066.05 142.609 1066.08 141.748 1066.11 140.889C1066.21 137.855 1066.34 134.822 1066.47 131.791V131.789C1066.55 129.88 1066.63 127.971 1066.7 126.062C1066.74 125.225 1066.69 124.086 1066.63 122.806C1066.52 120.201 1066.39 117.007 1066.85 114.553C1065.17 114.522 1063.45 114.403 1061.87 114.293C1060.34 114.188 1058.95 114.092 1057.86 114.091C1056.47 114.091 1055.08 114.087 1053.7 114.082C1049.85 114.07 1046.01 114.059 1042.17 114.135C1041.8 114.142 1041.44 114.149 1041.07 114.156C1035.78 114.259 1030.45 114.362 1025.2 115.059C1024.89 115.1 1024.52 115.178 1024.11 115.274C1024.69 117.678 1024.41 121.067 1024.16 124.034C1024.04 125.475 1023.93 126.817 1023.93 127.899C1023.92 134.627 1024.1 141.328 1024.28 148.022C1024.34 150.555 1024.41 153.086 1024.47 155.618C1024.47 155.92 1024.47 156.2 1024.45 156.461Z" fill="#89C5CC"/>
<path fill-rule="evenodd" clip-rule="evenodd" d="M968.305 159.932C964.941 161.897 966.755 169.757 967.921 172.474C969.836 176.945 973.723 180.442 977.917 182.762C986.393 187.451 998.612 186.205 1005.02 194.335C1005.09 194.419 1007.3 196.613 1007.81 193.772C1008.22 191.44 1004.09 187.88 1002.48 186.712C997.924 183.388 992.079 182.317 986.806 180.656C981.183 178.886 975.011 175.622 972.654 169.825C971.819 167.772 973.411 156.936 968.305 159.932Z" fill="#C1DEE2"/>
<path fill-rule="evenodd" clip-rule="evenodd" d="M1045.19 163.711C1042.11 164.56 1044.15 168.802 1044.14 170.925C1044.14 173.575 1043.29 176.347 1041.66 178.461C1037.52 183.822 1029.41 184.625 1023.33 186.163C1018.92 187.279 1008.36 189.674 1007.95 195.644C1007.48 202.309 1016.81 194.198 1017.59 193.865C1026.31 190.669 1037.58 190.052 1044.3 183.017C1047.08 180.112 1048.72 176.236 1048.98 172.236C1049.13 169.983 1049.15 162.628 1045.19 163.711Z" fill="#C1DEE2"/>
<path fill-rule="evenodd" clip-rule="evenodd" d="M981.507 222.836C981.435 210.503 993.238 203.043 1003.91 200.236C1016.74 196.856 1028.69 205.845 1030.2 218.775C1031.8 232.421 1021.51 243.406 1007.95 244.008C996.018 244.537 981.584 235.995 981.507 222.836ZM1010.16 206.166C1010.86 207.109 1011.48 208.614 1010.08 209.434C1008.74 210.218 1008.07 209.276 1007.39 208.327C1006.97 207.728 1006.54 207.127 1005.93 206.957C1004.38 206.519 1001.87 208.158 1000.57 209.115C1000.04 209.503 999.293 210.338 998.416 211.316C995.624 214.425 991.547 218.965 989.294 215.058C980.308 230.575 1002.71 242.189 1015.45 236.316C1029.44 229.867 1026.72 206.288 1010.16 206.166Z" fill="#89C5CC"/>
<path fill-rule="evenodd" clip-rule="evenodd" d="M998.421 218.707C998.421 221.538 1002.89 221.538 1002.89 218.707C1002.89 215.908 998.421 215.788 998.421 218.707Z" fill="#89C5CC"/>
<path fill-rule="evenodd" clip-rule="evenodd" d="M1006.29 218.176C1006.29 221.643 1011.76 221.643 1011.76 218.176C1011.76 214.747 1006.29 214.601 1006.29 218.176Z" fill="#89C5CC"/>
<path fill-rule="evenodd" clip-rule="evenodd" d="M1000.66 226.256C996.178 228.891 1008.99 234.127 1009.5 228.776C1009.71 226.467 1007.48 227.09 1005.99 226.921C1004.56 226.758 1002.01 225.468 1000.66 226.256Z" fill="#89C5CC"/>
<path fill-rule="evenodd" clip-rule="evenodd" d="M998.715 244.951C998.91 251.682 998.816 258.41 1000.09 265.046C1000.34 266.307 1000.5 270.879 1001.5 271.816C1003.95 274.12 1003.99 269.705 1004.09 268.012C1004.43 261.952 1003.79 255.703 1003.65 249.63C1003.62 248.323 1003.97 245.616 1003.35 244.35C1002.37 242.342 998.619 241.746 998.715 244.951Z" fill="#C1DEE2"/>
<path fill-rule="evenodd" clip-rule="evenodd" d="M993.923 239.494C984.101 250.518 970.576 249.706 956.951 250.671C949.751 251.181 942.471 252.229 936.679 256.885C933.984 259.052 931.661 261.765 930.1 264.857C929.418 266.209 926.181 274.009 931.042 272.159C932.766 271.502 934.463 266.344 935.578 264.818C937.702 261.913 940.419 259.513 943.679 257.954C949.967 254.946 957.475 254.998 964.293 254.616C971.42 254.217 979.069 253.844 985.621 250.744C988.703 249.286 991.594 247.469 994.074 245.125C994.961 244.288 996.861 242.865 997.002 241.584C997.164 240.121 995.758 237.441 993.923 239.494Z" fill="#C1DEE2"/>
<path fill-rule="evenodd" clip-rule="evenodd" d="M944.34 273.329C935.114 273.638 925.899 274.011 916.686 274.595C914.799 274.714 908.503 274.332 910.107 278.202C911.392 281.302 919.069 279.251 921.608 279.101C931.208 278.531 940.848 278.333 950.429 277.469C952.581 277.276 962.309 277.352 958.291 273.539C956.38 271.723 946.98 273.24 944.34 273.329Z" fill="#89C5CC"/>
<path fill-rule="evenodd" clip-rule="evenodd" d="M904.248 277.779C901.34 281.599 902.677 290.882 902.896 295.474C903.109 299.923 902.245 308.058 908.053 308.749C906.209 308.507 909.453 308.86 909.981 308.888C911.16 308.952 912.345 308.972 913.526 308.985C916.254 309.015 918.983 308.979 921.71 308.924C927.889 308.801 934.083 308.621 940.254 308.28C942.848 308.136 956.918 308.256 957.475 305.561C958.187 302.118 944.696 304.066 942.281 304.176C936.399 304.446 930.508 304.503 924.622 304.579C921.704 304.618 918.783 304.647 915.866 304.59C914.66 304.566 909.89 305.061 909.157 304.257C908.532 303.573 909.02 297.282 909.007 296.319C908.964 293.182 908.967 290.039 909.079 286.903C909.154 284.792 910.295 280.775 909.365 278.792C908.46 276.864 905.825 276.206 904.248 277.779Z" fill="#89C5CC"/>
<path fill-rule="evenodd" clip-rule="evenodd" d="M951.755 277.958C951.924 284.946 951.976 292.073 953.627 298.908C954.176 301.181 954.945 305.871 957.23 307.048C959.627 308.284 961.699 306.52 961.854 304.144C962.052 301.157 960.452 297.235 960.124 294.17C959.741 290.595 959.519 287.016 959.387 283.422C959.289 280.719 960.11 276.667 957.533 274.925C955.219 273.359 951.68 274.936 951.755 277.958Z" fill="#89C5CC"/>
<path fill-rule="evenodd" clip-rule="evenodd" d="M970.116 276.252C967.246 279.11 968.528 288.16 968.887 291.832C969.15 294.522 972.094 307.755 976.506 300.854C978.457 297.802 975.978 289.731 975.996 286.172C976.007 283.905 976.809 281.039 976.422 278.861C975.91 275.983 972.718 273.653 970.116 276.252Z" fill="#89C5CC"/>
<path fill-rule="evenodd" clip-rule="evenodd" d="M989.984 273.893C998.602 273.003 1007.23 272.336 1015.9 272.254C1016.31 272.25 1016.75 272.245 1017.21 272.24C1023.14 272.164 1032.07 272.05 1036.07 276.511C1038.25 278.94 1039.23 282.697 1040.09 285.971C1040.25 286.581 1040.41 287.176 1040.57 287.742C1040.7 288.224 1040.88 288.775 1041.07 289.371C1041.97 292.182 1043.18 295.986 1041.95 298.34C1041.27 299.631 1040.19 300.732 1038.54 300.275C1038.15 300.168 1037.85 300.031 1037.61 299.87C1038.24 300.554 1038.52 301.529 1038.11 302.482C1037.32 304.325 1034.81 304.365 1032.84 304.395C1032.36 304.403 1031.91 304.41 1031.53 304.443C1024.94 304.991 1018.33 305.357 1011.73 305.415C1008.59 305.442 1005.44 305.416 1002.3 305.391C999.061 305.364 995.825 305.337 992.588 305.37C990.24 305.392 987.847 305.616 985.454 305.84C982.432 306.121 979.41 306.403 976.471 306.283C974.273 306.192 971.925 305.473 972.482 302.632C972.937 300.312 975.12 300.11 977.077 299.928C977.246 299.913 977.415 299.897 977.581 299.88C983.81 299.246 990.043 299.021 996.304 299.044C1009.46 299.089 1022.6 299.021 1035.75 298.953C1036.29 298.998 1036.8 299.204 1037.22 299.518C1036.75 298.944 1036.76 298.178 1036.77 297.364C1036.77 296.995 1036.78 296.616 1036.74 296.24C1036.66 295.484 1036.58 294.732 1036.51 293.98C1036.27 291.497 1036.02 289.032 1035.55 286.535C1035.48 286.158 1035.41 285.742 1035.34 285.304C1034.91 282.711 1034.34 279.275 1032.27 277.875C1030.2 276.467 1026.14 276.535 1022.97 276.587C1022.11 276.601 1021.32 276.614 1020.66 276.597C1012.2 276.379 1003.7 276.98 995.283 277.745C994.637 277.804 993.989 277.86 993.341 277.917C990.14 278.195 986.921 278.476 983.766 279.048C983.188 279.153 982.306 279.461 981.294 279.815C978.601 280.754 974.992 282.013 973.765 280.626C969.703 276.03 987.559 274.143 989.984 273.893Z" fill="#89C5CC"/>
<path fill-rule="evenodd" clip-rule="evenodd" d="M1081.68 263.429C1082.05 263.911 1082.05 263.911 1081.68 263.429ZM1023.35 234.956C1018.12 238.033 1027.81 247.061 1030.27 248.457C1035.83 251.599 1043.46 252.074 1049.66 252.957C1057.51 254.076 1066.05 254.488 1073.59 257.059C1076.81 258.155 1078.85 259.865 1080.95 262.493C1082.02 263.826 1084.59 269.565 1086.92 268.206C1091.63 265.47 1078.95 253.987 1076.15 252.752C1069.8 249.945 1062.29 249.159 1055.49 248.07C1049.18 247.056 1042.72 246.302 1036.56 244.515C1033.18 243.533 1030.77 241.948 1028.82 238.914C1027.6 237.023 1026.6 233.057 1023.35 234.956Z" fill="#C1DEE2"/>
<path fill-rule="evenodd" clip-rule="evenodd" d="M1103.6 270.223C1097.56 270.358 1091.54 270.822 1085.52 271.286C1082.14 271.546 1078.76 271.806 1075.38 272.008C1074.32 272.072 1073.27 272.129 1072.21 272.186C1069.23 272.346 1066.25 272.506 1063.29 272.806C1062.84 272.852 1062.31 272.895 1061.75 272.941C1059.23 273.147 1055.8 273.429 1053.61 274.347C1051.6 272.827 1048.49 274.119 1048.45 276.829C1048.36 281.766 1048.41 286.615 1049.01 291.521C1049.15 292.659 1049.87 298.425 1051.44 301.426C1050.88 304.261 1053.29 305.054 1055.54 305.272C1064.25 306.113 1073.39 305.46 1082.4 304.817C1086.98 304.489 1091.53 304.164 1095.98 304.038C1097.46 303.996 1098.96 303.98 1100.46 303.963C1105.38 303.908 1110.39 303.852 1115.15 302.922C1115.34 302.884 1115.55 302.848 1115.76 302.809C1117.64 302.472 1120.24 302.007 1120.44 299.936C1120.55 298.692 1119.85 297.555 1118.68 297.394C1118.76 296.359 1118.63 295.229 1118.54 294.398H1118.53C1118.51 294.205 1118.49 294.027 1118.48 293.871C1118.19 290.991 1117.47 288.13 1116.76 285.305C1116.61 284.669 1116.45 284.036 1116.29 283.406C1116.12 282.707 1115.97 281.874 1115.8 280.978C1115.2 277.813 1114.45 273.838 1112.45 271.991C1110.35 270.055 1106.93 270.14 1104.2 270.209C1103.99 270.215 1103.79 270.22 1103.6 270.223ZM1114.22 297.704C1113.5 295.831 1113.29 293.298 1113.09 290.89C1112.97 289.379 1112.85 287.917 1112.61 286.698C1112.43 285.784 1112.28 284.821 1112.13 283.841C1111.77 281.461 1111.39 278.989 1110.5 276.904C1109.3 274.111 1108.24 274.217 1105.72 274.47C1105.25 274.517 1104.73 274.569 1104.15 274.609C1101.58 274.783 1099.02 275.005 1096.45 275.227C1095.22 275.334 1093.99 275.44 1092.76 275.541C1087.5 275.973 1082.23 276.307 1076.96 276.639C1073.89 276.834 1070.81 277.027 1067.73 277.242C1065.31 277.41 1062.95 277.869 1060.61 278.326C1058.75 278.689 1056.89 279.05 1055.02 279.264C1055 279.904 1054.94 280.546 1054.89 281.158C1054.82 281.991 1054.76 282.768 1054.77 283.403C1054.83 286.223 1055.08 289.025 1055.33 291.831C1055.37 292.263 1055.41 292.694 1055.44 293.126C1055.49 293.643 1055.6 294.308 1055.72 295.046C1055.91 296.187 1056.13 297.501 1056.18 298.711C1056.41 298.71 1056.64 298.711 1056.86 298.711C1057.15 298.712 1057.43 298.713 1057.7 298.709C1064.34 298.592 1070.97 298.391 1077.6 298.136C1078.44 298.104 1079.29 298.071 1080.13 298.039C1086.05 297.808 1091.96 297.577 1097.88 297.509C1100.24 297.483 1102.62 297.557 1105.01 297.631C1108.08 297.726 1111.17 297.821 1114.22 297.704Z" fill="#89C5CC"/>
</g>
<path d="M1014.59 461.157C1012.81 458.157 1005.11 461.37 1003.7 458.646C1002.29 455.933 1009.44 451.799 1013.53 442.354C1014.26 440.651 1018.91 429.918 1015.47 426.606C1008.95 420.329 979.132 446.234 968.697 437.757C966.406 435.896 964.806 432.182 957.875 426.152C955.117 423.753 953.45 422.67 951.836 423.073C949.547 423.645 949.365 426.709 946.91 432.735C943.228 441.771 941.05 441.225 938.905 448.435C937.312 453.787 937.676 456.899 935.802 457.505C933.15 458.363 930.709 452.686 927.348 453.194C923.918 453.713 921.844 460.323 921.189 465.271C919.96 474.558 923.371 480.686 925.261 487.13C927.315 494.132 928.535 504.782 923.791 519.857L876.837 652.151C887.203 625.004 917.217 550.59 929.829 522.936C933.47 514.954 937.49 506.856 945.745 503.661C953.692 500.584 964.606 502.421 978.52 499.069C980.145 498.678 984.655 497.53 985.222 494.878C985.692 492.685 983.039 491.461 983.447 489.407C983.993 486.652 989.209 486.619 995.619 483.44C1000.14 481.199 1002.96 478.534 1005.38 476.242C1006.11 475.551 1016.96 465.152 1014.59 461.157Z" fill="#99EDD1"/>
<path d="M829.859 530.802C827.873 530.81 827.228 535.515 825.483 535.424C823.745 535.333 823.779 530.63 820.323 525.899C819.7 525.046 815.772 519.67 813.154 520.402C808.193 521.789 812.304 543.899 805.132 546.575C803.558 547.162 801.273 546.876 796.314 548.538C794.341 549.199 793.328 549.705 793.06 550.613C792.68 551.902 794.132 552.875 796.381 555.819C799.754 560.233 798.857 561.145 801.777 564.278C803.944 566.604 805.576 567.323 805.333 568.418C804.989 569.967 801.498 569.527 800.778 571.323C800.043 573.156 802.689 576.081 804.929 577.831C809.132 581.113 813.124 581.207 816.832 582.139C820.862 583.151 826.44 585.626 832.471 592.304L883.853 653.52C873.521 640.6 845.657 604.397 835.724 590.228C832.857 586.138 830.042 581.829 830.856 576.855C831.639 572.067 835.689 567.24 838.059 559.444C838.336 558.533 839.074 555.989 837.936 554.945C836.995 554.082 835.629 555.031 834.738 554.238C833.544 553.175 835.032 550.605 835.322 546.542C835.526 543.677 835.03 541.526 834.604 539.676C834.476 539.119 832.503 530.792 829.859 530.802Z" fill="#99EDD1"/>
<path d="M869.483 539.697L868.287 529.015L868.833 528.205C871.363 524.46 872.653 520.803 872.668 517.332C872.671 516.78 872.645 516.228 872.619 515.666C872.516 513.437 872.387 510.667 873.831 507.439C874.641 505.638 876.916 501.471 880.336 501.987C881.256 502.116 881.953 502.538 882.481 503.034C882.559 502.91 882.639 502.786 882.724 502.652C883.789 501.027 884.632 500.331 885.445 499.66C886.069 499.144 886.714 498.613 887.725 497.355C888.168 496.803 888.514 496.318 888.805 495.91C889.69 494.678 890.845 493.208 892.883 493.233C895.059 493.337 896.199 495.137 896.955 496.328C898.304 498.453 898.915 499.985 899.32 501.001C899.467 501.373 899.635 501.79 899.72 501.919C900.421 502.951 906.123 501.986 908.272 501.636C913.097 500.831 917.272 500.135 918.993 503.178C920.225 505.355 919.31 508.233 916.189 511.962C915.217 513.123 914.183 514.005 913.265 514.696C914.025 515.15 914.706 515.846 914.982 516.94C915.632 519.529 913.406 522.123 908.37 524.661C907.119 525.296 905.435 526.142 903.075 526.549C901.963 526.74 900.963 526.786 900.107 526.812C900.088 527.307 899.972 527.844 899.671 528.396C898.786 530.02 896.945 530.794 894.17 530.608C891.116 530.448 888.602 529.866 886.384 529.355C884.447 528.911 882.778 528.535 881.468 528.623C879.039 528.819 877.166 530.763 874.969 533.285L869.483 539.697Z" fill="#99EDD1"/>
<path d="M875.034 476.095L865.005 479.962L864.083 479.638C859.819 478.141 855.954 477.821 852.592 478.687C852.058 478.824 851.531 478.989 850.993 479.157C848.864 479.822 846.217 480.649 842.728 480.071C840.781 479.744 836.173 478.601 835.804 475.162C835.696 474.239 835.928 473.458 836.273 472.821C836.134 472.778 835.993 472.732 835.842 472.683C834 472.065 833.113 471.426 832.258 470.81C831.601 470.338 830.924 469.849 829.45 469.19C828.803 468.901 828.247 468.69 827.779 468.511C826.362 467.968 824.647 467.223 824.155 465.246C823.703 463.114 825.155 461.555 826.116 460.522C827.829 458.678 829.156 457.698 830.036 457.049C830.358 456.813 830.72 456.544 830.823 456.429C831.643 455.489 829.263 450.218 828.379 448.229C826.377 443.766 824.644 439.903 827.152 437.467C828.944 435.723 831.961 435.878 836.36 437.951C837.729 438.597 838.844 439.374 839.746 440.087C839.992 439.236 840.493 438.4 841.481 437.856C843.82 436.571 846.894 438.065 850.627 442.294C851.558 443.343 852.803 444.757 853.796 446.937C854.262 447.963 854.561 448.919 854.803 449.741C855.287 449.633 855.835 449.609 856.446 449.761C858.242 450.205 859.457 451.79 859.981 454.521C860.601 457.515 860.675 460.095 860.744 462.37C860.806 464.356 860.865 466.066 861.282 467.311C862.088 469.611 864.444 470.929 867.441 472.415L875.034 476.095Z" fill="#99EDD1"/>
<path d="M869.483 444.624L868.287 433.942L868.833 433.132C871.363 429.387 872.653 425.73 872.668 422.259C872.671 421.707 872.645 421.155 872.619 420.593C872.516 418.365 872.387 415.595 873.831 412.366C874.641 410.566 876.916 406.398 880.336 406.914C881.256 407.043 881.953 407.466 882.481 407.961C882.559 407.837 882.639 407.713 882.724 407.579C883.789 405.954 884.632 405.258 885.445 404.588C886.069 404.072 886.714 403.541 887.725 402.282C888.168 401.73 888.514 401.245 888.805 400.838C889.69 399.605 890.845 398.135 892.883 398.161C895.059 398.264 896.199 400.064 896.955 401.256C898.304 403.381 898.915 404.913 899.32 405.929C899.467 406.3 899.635 406.718 899.72 406.847C900.421 407.878 906.123 406.914 908.272 406.563C913.097 405.758 917.272 405.062 918.993 408.105C920.225 410.282 919.31 413.16 916.189 416.889C915.217 418.05 914.183 418.932 913.265 419.623C914.025 420.077 914.706 420.773 914.982 421.867C915.632 424.456 913.406 427.051 908.37 429.589C907.119 430.223 905.435 431.069 903.075 431.476C901.963 431.667 900.963 431.714 900.107 431.74C900.088 432.235 899.972 432.771 899.671 433.323C898.786 434.948 896.945 435.721 894.17 435.536C891.116 435.376 888.602 434.793 886.384 434.282C884.447 433.839 882.778 433.462 881.468 433.55C879.039 433.746 877.166 435.691 874.969 438.213L869.483 444.624Z" fill="#99EDD1"/>
<path d="M880.413 651.977L878.174 650.574L875.564 650.873C875.523 650.63 875.381 650.073 875.167 649.202C873.999 644.425 870.437 629.89 867.466 606.999C865.393 591.019 864.219 574.591 863.977 558.163C863.734 541.709 864.513 529.252 865.137 519.24C865.609 511.689 866.182 504.499 866.744 497.494C868.24 478.781 869.651 461.104 868.601 441.535C868.369 437.166 867.881 428.072 862.569 418.396C859.487 412.784 855.242 407.801 849.949 403.592L853.24 399.456C859.082 404.108 863.778 409.627 867.2 415.858C873.091 426.587 873.622 436.495 873.878 441.256C874.945 461.171 873.519 479.018 872.008 497.912C871.451 504.891 870.878 512.05 870.409 519.57C869.79 529.489 869.019 541.838 869.258 558.08C869.496 574.312 870.656 590.54 872.701 606.318C875.636 628.92 879.146 643.239 880.299 647.943C880.913 650.455 881.042 650.981 880.413 651.977Z" fill="#99EDD1"/>
<path d="M840.263 411.984C840.047 411.984 839.827 411.979 839.606 411.964C835.108 411.721 830.943 409.029 827.224 403.964C825.48 401.581 824.588 398.862 822.809 393.441C822.533 392.606 821.191 388.366 820.376 382.532C819.843 378.72 819.91 377.126 820.665 375.718C821.504 374.15 822.86 373.057 824.387 372.319C824.32 371.814 824.374 371.293 824.593 370.761C825.493 368.559 827.887 368.848 829.181 368.987C829.836 369.07 830.654 369.178 831.536 369.132C832.923 369.064 833.669 368.652 834.798 368.033C835.879 367.44 837.223 366.702 839.216 366.295C843.147 365.474 846.44 366.589 847.526 366.955C853.238 368.858 856.054 373.299 859.314 378.442C859.964 379.473 862.195 383.228 863.668 388.376C864.73 392.09 864.581 393.74 864.261 394.968C863.611 397.49 862.076 398.934 858.18 402.122C854.11 405.459 852.067 407.131 850.314 408.147C846.231 410.504 843.667 411.984 840.263 411.984Z" fill="#99EDD1"/>
<path d="M775.299 658.006H614.986C590.942 658.006 571.379 638.444 571.379 614.399V190.607C571.379 166.562 590.942 147 614.986 147H775.299C799.343 147 818.905 166.562 818.905 190.607C821.889 360.789 826.978 551.365 818.905 614.399C818.905 638.444 799.343 658.006 775.299 658.006Z" fill="#3F3D56"/>
<path d="M821.141 302.885C820.123 302.885 819.296 303.712 819.296 304.729V363.762C819.296 364.78 820.123 365.607 821.141 365.607C822.158 365.607 822.985 364.78 822.985 363.762V304.729C822.985 303.712 822.158 302.885 821.141 302.885Z" fill="#3F3D56"/>
<path d="M803.835 195.928L814.755 614.391C814.755 635.32 798.465 652.44 777.868 653.768H777.859C777.554 653.787 777.25 653.805 776.936 653.814C776.392 653.842 775.848 653.851 775.295 653.851C775.295 653.851 773.265 653.704 769.557 653.427C765.812 653.15 760.361 652.735 753.563 652.191C751.525 652.034 749.375 651.859 747.106 651.674C742.587 651.306 737.624 650.9 732.302 650.438C730.18 650.263 727.985 650.07 725.744 649.876C714.288 648.889 701.457 647.736 687.926 646.426C685.638 646.214 683.332 645.993 681.008 645.762C680.399 645.697 575.531 619.335 575.531 614.391V190.607C575.531 168.811 593.194 151.147 614.99 151.147H638.548C642.312 151.147 645.337 154.081 645.66 157.835C645.688 158.084 645.715 158.333 645.762 158.582C646.444 162.354 649.903 164.983 653.74 164.983H736.545C740.382 164.983 743.841 162.354 744.524 158.582C744.57 158.333 744.597 158.084 744.625 157.835C744.948 154.081 747.973 151.147 751.737 151.147H775.295C797.091 151.147 803.835 174.132 803.835 195.928Z" fill="white"/>
<path d="M570.457 258.61C569.44 258.61 568.612 259.437 568.612 260.454V275.213C568.612 276.23 569.44 277.057 570.457 277.057C571.475 277.057 572.302 276.23 572.302 275.213V260.454C572.302 259.437 571.475 258.61 570.457 258.61Z" fill="#3F3D56"/>
<path d="M570.457 302.885C569.44 302.885 568.612 303.712 568.612 304.729V333.323C568.612 334.341 569.44 335.168 570.457 335.168C571.475 335.168 572.302 334.341 572.302 333.323V304.729C572.302 303.712 571.475 302.885 570.457 302.885Z" fill="#3F3D56"/>
<path d="M570.457 343.47C569.44 343.47 568.612 344.297 568.612 345.315V373.909C568.612 374.926 569.44 375.753 570.457 375.753C571.475 375.753 572.302 374.926 572.302 373.909V345.315C572.302 344.297 571.475 343.47 570.457 343.47Z" fill="#3F3D56"/>
<path d="M637.943 157.608H602.59C602.418 157.608 602.28 157.747 602.28 157.918V161.909C602.28 162.081 602.418 162.22 602.59 162.22H637.943C638.114 162.22 638.253 162.081 638.253 161.909V157.918C638.253 157.747 638.114 157.608 637.943 157.608Z" fill="#E6E6E6"/>
<path d="M757.566 162.22C759.604 162.22 761.256 160.568 761.256 158.53C761.256 156.492 759.604 154.84 757.566 154.84C755.528 154.84 753.876 156.492 753.876 158.53C753.876 160.568 755.528 162.22 757.566 162.22Z" fill="#E6E6E6"/>
<path d="M767.712 162.22C769.75 162.22 771.402 160.568 771.402 158.53C771.402 156.492 769.75 154.84 767.712 154.84C765.675 154.84 764.023 156.492 764.023 158.53C764.023 160.568 765.675 162.22 767.712 162.22Z" fill="#E6E6E6"/>
<path d="M777.859 162.22C779.896 162.22 781.548 160.568 781.548 158.53C781.548 156.492 779.896 154.84 777.859 154.84C775.821 154.84 774.169 156.492 774.169 158.53C774.169 160.568 775.821 162.22 777.859 162.22Z" fill="#E6E6E6"/>
<path d="M1022.04 658.16C1022.04 658.624 1021.66 659 1021.2 659H439V657.32H1021.2C1021.66 657.32 1022.04 657.696 1022.04 658.16Z" fill="#E6E6E6"/>
<path d="M897.621 756.802L917.389 763.116L892.084 821.51L878.688 817.232L897.621 756.802Z" fill="#A0616A"/>
<path d="M900.959 803.382L893.067 803.87L891.514 807.945C891.514 807.945 891.701 802.611 883.397 798.247L880.844 801.797C880.844 801.797 875.986 804.375 873.878 811.601L868.899 831.206L875.517 833.571L881.582 820.926C881.582 820.926 884.525 818.657 887.451 835.923C887.451 835.923 895.734 841.75 911.759 842.435C913.962 842.529 916.016 841.227 916.78 839.159C917.202 838.018 917.16 836.798 915.88 835.875C912.622 833.526 908.616 833.384 907.385 829.592C906.153 825.8 900.959 803.382 900.959 803.382Z" fill="#2F2E41"/>
<path d="M760.568 746.614L740.463 751.757L762.3 811.534L775.923 808.05L760.568 746.614Z" fill="#A0616A"/>
<path d="M754.503 792.917L762.353 793.867L763.664 798.026C763.664 798.026 763.791 792.691 772.336 788.821L774.676 792.514C774.676 792.514 779.375 795.373 781.055 802.71L784.876 822.574L778.13 824.547L772.818 811.567C772.818 811.567 770.013 809.13 766.079 826.194C766.079 826.194 757.468 831.526 741.431 831.269C739.226 831.234 737.252 829.813 736.611 827.704C736.257 826.54 736.37 825.325 737.702 824.479C741.092 822.325 745.099 822.418 746.551 818.705C748.003 814.992 754.503 792.917 754.503 792.917Z" fill="#2F2E41"/>
<path d="M810.077 506.839H863.766V427.507H810.077V506.839Z" fill="#2F2E41"/>
<path d="M854.551 562.531L852.949 605.002L800.061 600.995L806.471 559.326L854.551 562.531Z" fill="#A0616A"/>
<path d="M796.054 585.77L872.18 588.174L891.181 615.061L882.366 662.34C882.366 662.34 844.134 651.479 780.829 664.3L784.836 620.227L797.057 608.005L796.054 585.77Z" fill="#2F2E41"/>
<path d="M878.591 617.823L899.426 626.638C899.426 626.638 938.691 644.267 941.095 668.307C943.499 692.347 914.896 782.096 914.896 782.096L883.505 783.973C883.505 783.973 892.835 790.465 892.835 745.928C892.835 714.928 906.638 685.135 906.638 685.135C906.638 685.135 886.604 648.274 835.319 657.088C835.319 657.088 779.279 655.272 752.835 688.928C752.835 688.928 766.835 718.928 767.835 736.928L771.974 775.891L745.53 778.295C745.53 778.295 707.106 675.519 723.934 654.684C740.762 633.85 776.822 621.83 776.822 621.83L878.591 617.823Z" fill="#2F2E41"/>
<path d="M851.715 482.65L849.835 459.928H824.835L819.293 484.001L851.715 482.65Z" fill="#A0616A"/>
<path opacity="0.1" d="M851.715 482.65L849.835 459.928H824.835L819.293 484.001L851.715 482.65Z" fill="black"/>
<path d="M860.725 439.83C860.725 454.923 848.49 467.157 833.398 467.157C818.305 467.157 806.071 454.923 806.071 439.83C806.071 424.738 818.305 412.503 833.398 412.503C848.49 412.503 860.725 424.738 860.725 439.83Z" fill="#A0616A"/>
<path d="M819.293 479.193H851.346L855.352 488.008L859.359 576.955C859.359 576.955 828.908 569.743 802.465 570.545L808.875 489.61L816.889 484.802L819.293 479.193Z" fill="#6C63FF"/>
<path d="M849.743 660.294C849.743 660.294 865.77 624.234 872.18 623.432C878.591 622.631 893.056 623.432 893.056 623.432L889.81 617.823C889.81 617.823 889.008 606.605 880.995 606.605C872.982 606.605 876.187 491.213 876.187 491.213L853.741 484.463C853.741 484.463 840.929 524.068 840.929 561.73C840.929 599.393 839.326 641.062 839.326 641.062L849.743 660.294Z" fill="#2F2E41"/>
<path d="M817.811 482.65L789.643 490.412L792.849 600.995L774.418 623.433C774.418 623.433 798.458 623.433 804.067 643.466C804.067 643.466 810.721 654.419 817.811 653.35C824.902 652.28 820.094 629.843 820.094 629.843L812.882 601.797L813.683 554.518L817.811 482.65Z" fill="#2F2E41"/>
<path d="M826.505 411.08C826.505 411.08 826.505 399.861 836.922 402.265C847.339 404.669 850.545 408.676 850.545 408.676C850.545 408.676 854.551 415.087 860.962 415.888C867.372 416.689 872.982 435.12 872.18 439.127C871.379 443.133 867.372 453.551 872.982 458.359C878.591 463.167 886.604 470.378 884.2 477.59C881.796 484.802 874.584 503.233 874.584 503.233C874.584 503.233 894.7 506.173 893.056 518.726C893.056 518.726 883.399 511.246 870.578 511.246C857.757 511.246 859.359 487.986 859.359 487.986C859.359 487.986 858.558 473.584 856.154 469.577C853.75 465.571 856.955 443.133 844.935 431.113C832.915 419.093 826.505 411.08 826.505 411.08Z" fill="#2F2E41"/>
<path d="M829.71 408.676C829.71 408.676 814.485 411.881 808.875 427.107C803.266 442.332 806.099 445.165 806.099 445.165C806.099 445.165 804.859 454.333 798.053 457.548C791.246 460.763 796.855 474.385 796.855 474.385C796.855 474.385 795.253 488.008 773.617 492.816C751.981 497.624 756.789 525.67 756.789 525.67C756.789 525.67 774.418 500.829 796.855 500.028C819.293 499.226 815.286 474.385 815.286 474.385L812.882 447.941C812.882 447.941 817.69 417.491 832.114 413.484C846.538 409.477 829.71 408.676 829.71 408.676Z" fill="#2F2E41"/>
<path d="M851.448 662.235C850.813 669.69 854.144 676.061 858.889 676.464C863.634 676.868 867.993 671.152 868.628 663.694C868.922 660.718 868.499 657.715 867.395 654.937L869.687 623.315L854.825 622.556L854.143 653.81C852.585 656.363 851.66 659.252 851.448 662.235Z" fill="#A0616A"/>
<path d="M793.752 663.036C793.117 670.492 796.449 676.862 801.193 677.266C805.938 677.669 810.297 671.953 810.932 664.495C811.226 661.519 810.803 658.517 809.699 655.738L811.991 624.116L797.129 623.357L796.448 654.611C794.889 657.164 793.965 660.053 793.752 663.036Z" fill="#A0616A"/>
<path d="M870.177 491.614C870.177 491.614 890.21 486.004 894.217 498.826C898.224 511.647 885.803 582.164 885.803 582.164L874.184 655.886L849.343 651.078L865.369 552.515L870.177 491.614Z" fill="#2F2E41"/>
<path d="M809.841 490.565C809.841 490.565 790.427 483.088 785.228 495.474C780.028 507.859 785.732 579.234 785.732 579.234L790.336 653.724L815.521 651.284L808.875 551.647L809.841 490.565Z" fill="#2F2E41"/>
<path d="M690.499 363.998C719.493 363.998 742.998 340.493 742.998 311.499C742.998 282.505 719.493 259 690.499 259C661.505 259 638 282.505 638 311.499C638 340.493 661.505 363.998 690.499 363.998Z" fill="#6C63FF"/>
<path d="M686.858 444.928H522.812C516.208 444.928 510.835 439.555 510.835 432.951V308.904C510.835 302.301 516.208 296.928 522.812 296.928H686.858C693.462 296.928 698.835 302.301 698.835 308.904V432.951C698.835 439.555 693.462 444.928 686.858 444.928Z" fill="white"/>
<path d="M686.858 444.928H522.812C516.208 444.928 510.835 439.555 510.835 432.951V308.904C510.835 302.301 516.208 296.928 522.812 296.928H686.858C693.462 296.928 698.835 302.301 698.835 308.904V432.951C698.835 439.555 693.462 444.928 686.858 444.928ZM522.812 298.928C517.311 298.928 512.835 303.403 512.835 308.904V432.951C512.835 438.452 517.311 442.928 522.812 442.928H686.858C692.359 442.928 696.835 438.452 696.835 432.951V308.904C696.835 303.403 692.359 298.928 686.858 298.928H522.812Z" fill="#3F3D56"/>
<path d="M668.835 311.928C670.492 311.928 671.835 310.585 671.835 308.928C671.835 307.271 670.492 305.928 668.835 305.928C667.178 305.928 665.835 307.271 665.835 308.928C665.835 310.585 667.178 311.928 668.835 311.928Z" fill="#3F3D56"/>
<path d="M676.835 311.928C678.492 311.928 679.835 310.585 679.835 308.928C679.835 307.271 678.492 305.928 676.835 305.928C675.178 305.928 673.835 307.271 673.835 308.928C673.835 310.585 675.178 311.928 676.835 311.928Z" fill="#3F3D56"/>
<path d="M684.835 311.928C686.492 311.928 687.835 310.585 687.835 308.928C687.835 307.271 686.492 305.928 684.835 305.928C683.178 305.928 681.835 307.271 681.835 308.928C681.835 310.585 683.178 311.928 684.835 311.928Z" fill="#3F3D56"/>
<path d="M527.835 357.428C527.008 357.428 526.335 358.101 526.335 358.928C526.335 359.331 526.491 359.704 526.773 359.979C527.059 360.271 527.432 360.428 527.835 360.428H682.835C683.662 360.428 684.335 359.755 684.335 358.928C684.335 358.524 684.179 358.151 683.896 357.876C683.611 357.584 683.238 357.428 682.835 357.428H527.835Z" fill="#E6E6E6"/>
<path d="M654.835 356.928V360.928H527.835C527.285 360.928 526.785 360.708 526.425 360.338C526.055 359.978 525.835 359.478 525.835 358.928C525.835 357.828 526.735 356.928 527.835 356.928H654.835Z" fill="#6C63FF"/>
<path d="M680.335 349.428H660.335C658.129 349.428 656.335 347.634 656.335 345.428C656.335 343.222 658.129 341.428 660.335 341.428H680.335C682.541 341.428 684.335 343.222 684.335 345.428C684.335 347.634 682.541 349.428 680.335 349.428Z" fill="#E6E6E6"/>
<path d="M549.335 328.428H529.335C527.129 328.428 525.335 326.634 525.335 324.428C525.335 322.222 527.129 320.428 529.335 320.428H549.335C551.541 320.428 553.335 322.222 553.335 324.428C553.335 326.634 551.541 328.428 549.335 328.428Z" fill="#E6E6E6"/>
<path d="M527.835 402.428C527.008 402.428 526.335 403.101 526.335 403.928C526.335 404.331 526.491 404.704 526.773 404.98C527.059 405.271 527.432 405.428 527.835 405.428H682.835C683.662 405.428 684.335 404.755 684.335 403.928C684.335 403.524 684.179 403.151 683.896 402.876C683.611 402.584 683.238 402.428 682.835 402.428H527.835Z" fill="#E6E6E6"/>
<path d="M577.835 401.928V405.928H527.835C527.285 405.928 526.785 405.708 526.425 405.338C526.055 404.978 525.835 404.478 525.835 403.928C525.835 402.828 526.735 401.928 527.835 401.928H577.835Z" fill="#6C63FF"/>
<path d="M680.335 394.428H660.335C658.129 394.428 656.335 392.634 656.335 390.428C656.335 388.222 658.129 386.428 660.335 386.428H680.335C682.541 386.428 684.335 388.222 684.335 390.428C684.335 392.634 682.541 394.428 680.335 394.428Z" fill="#E6E6E6"/>
</svg>
