<svg width="1440" height="739" viewBox="0 0 1440 739" fill="none" xmlns="http://www.w3.org/2000/svg">
<rect width="1440" height="739" fill="white"/>
<path d="M800.729 347.704C801.039 466.837 682.854 459.458 488.674 459.963C445.511 460.075 365.196 559.767 326.979 551.138L326.968 551.138C325.56 550.825 324.165 550.498 322.769 550.164C322.371 550.078 321.972 549.986 321.585 549.886C319.392 549.374 317.211 548.841 315.041 548.293C310.573 547.168 306.152 545.986 301.789 544.761C299.526 544.12 297.274 543.471 295.045 542.801C274.356 536.635 254.8 529.251 236.625 520.807C227.472 516.56 218.659 512.031 210.244 507.265C203.272 503.314 196.57 499.197 190.16 494.914C188.14 493.574 186.168 492.221 184.219 490.852C183.421 490.301 182.646 489.749 181.883 489.198C176.352 485.25 171.068 481.173 166.018 476.979C164.385 475.625 162.776 474.256 161.19 472.872C150.419 463.481 140.842 453.526 132.587 443.107C110.223 414.836 97.6479 383.095 97.5607 349.532C97.251 230.398 254.404 133.419 448.584 132.914C642.764 132.409 800.419 228.571 800.729 347.704Z" fill="#F2F2F2"/>
<path d="M1153.81 637.047L1184.86 620.022L1215.91 637.047L1184.84 654.082L1153.81 637.047Z" fill="#F6F5FC"/>
<path d="M1182.12 607.349L1199.67 597.73L1217.21 607.349L1199.66 616.974L1182.12 607.349Z" fill="#DAF9FA"/>
<path d="M858 530.335L889.052 513.309L920.103 530.335L889.033 547.369L858 530.335Z" fill="#FFF5F9"/>
<path d="M900.189 495.455L917.733 485.836L935.277 495.455L917.723 505.08L900.189 495.455Z" fill="#DAF9FA"/>
<path d="M1156.93 371.743L1187.98 354.718L1219.03 371.743L1187.96 388.777L1156.93 371.743Z" fill="#FFF5F9"/>
<path d="M1185.24 342.045L1202.79 332.426L1220.33 342.045L1202.78 351.67L1185.24 342.045Z" fill="#F6F5FC"/>
<path d="M1286 423.617L1317.05 406.592L1348.1 423.617L1317.03 440.651L1286 423.617Z" fill="#DAF9FA"/>
<path d="M1374.92 475.234L1392.47 465.615L1410.01 475.234L1392.46 484.859L1374.92 475.234Z" fill="#F6F5FC"/>
<path d="M1290.74 556.012L1321.79 538.987L1352.84 556.012L1321.77 573.046L1290.74 556.012Z" fill="#FFF5F9"/>
<path d="M1187.97 490.003C1187.6 490.23 1187.25 490.444 1186.89 490.68C1187.14 490.504 1187.43 490.327 1187.71 490.147L1187.97 490.003Z" fill="#201D1E"/>
<path d="M1189.29 489.222C1188.86 489.486 1188.41 489.739 1187.97 490.003C1188.23 489.837 1188.5 489.67 1188.78 489.513C1188.88 489.452 1189 489.371 1189.1 489.31C1189.17 489.274 1189.21 489.25 1189.29 489.222Z" fill="#201D1E"/>
<path d="M1146.23 417.401C1133.24 416.201 1120.63 416.11 1108.82 417.101C1127.44 411.293 1147.27 407.347 1167.34 405.531L1146.23 417.401ZM1093.57 447.009L1069.7 433.278C1086.11 425.925 1108.65 422.818 1133.87 424.349L1093.57 447.009ZM1042.47 475.732C1040.08 461.371 1045.85 448.569 1058.98 439.326L1082.81 453.072L1042.47 475.732ZM1009.05 494.535C1012.46 483.174 1019.6 471.95 1030 461.445C1028.14 468.138 1028.17 475.281 1030.13 482.695L1009.05 494.535ZM1189.62 404.376H1189.65C1205.71 404.195 1221.22 405.441 1235.78 408.082L1242.9 400.773C1227.26 397.952 1210.54 396.602 1193.16 396.812L1193.19 396.797C1145.64 397.322 1097 409.403 1059.09 429.931L1058.84 430.082C1058.54 430.232 1058.25 430.382 1057.97 430.532C1057.34 430.877 1056.69 431.222 1056.07 431.567C1055.85 431.687 1055.62 431.822 1055.39 431.957L1055.11 432.123C1054.98 432.198 1054.86 432.273 1054.75 432.347C1054.3 432.618 1053.86 432.858 1053.42 433.128C1053.23 433.233 1053.06 433.353 1052.88 433.458C1052.71 433.563 1052.53 433.683 1052.35 433.803C1052.47 433.713 1052.6 433.623 1052.74 433.533C1016.46 454.797 994.841 482.214 993.402 509.136C992.865 518.995 995.046 528.509 999.866 537.439L1012.78 533.477C1008.29 525.193 1006.28 516.339 1006.77 507.2L1006.79 507.185C1006.82 506.375 1006.88 505.565 1006.98 504.739L1032.78 490.228C1035.83 497.431 1040.62 504.589 1046.97 511.568L1059.23 506.735C1052.71 499.532 1047.94 492.149 1045.06 484.795C1044.9 484.39 1044.76 483.985 1044.62 483.565L1090.76 457.619L1111.14 469.339L1121.91 463.291L1101.52 451.571L1147.63 425.64C1148.36 425.715 1149.07 425.805 1149.8 425.91C1162.69 427.62 1175.62 430.412 1188.21 434.209L1196.86 427.291C1184.66 423.599 1172.13 420.792 1159.48 418.977L1185.31 404.466C1186.76 404.421 1188.2 404.391 1189.62 404.376Z" fill="#F6F5FC"/>
<path d="M1068.61 541.425L1074.57 543.731L1071.54 540.34L1055.35 519.484L1061.07 516.271L1097.33 525.837L1103.3 527.666L1099.31 524.129L1081.46 504.804L1088.27 500.975L1113.57 529.676L1107.39 533.148L1069.3 523.289L1065.61 522.089L1067.68 524.2L1084.21 546.182L1078.04 549.654L1027.87 534.939L1034.64 531.13L1068.61 541.425Z" fill="#F6F5FC"/>
<path d="M1147.16 497.252L1153.13 499.558L1150.09 496.167L1133.91 475.312L1139.63 472.098L1175.88 481.665L1181.86 483.494L1177.87 479.957L1160.02 460.631L1166.83 456.803L1192.12 485.503L1185.95 488.976L1147.86 479.116L1144.17 477.917L1146.23 480.029L1162.77 502.01L1156.6 505.481L1106.43 490.766L1113.2 486.957L1147.16 497.252Z" fill="#F6F5FC"/>
<path d="M1225.72 453.079L1231.68 455.386L1228.65 451.995L1212.47 431.14L1218.18 427.925L1254.44 437.492L1260.41 439.321L1256.42 435.785L1238.57 416.459L1245.38 412.631L1270.68 441.332L1264.5 444.804L1226.41 434.944L1222.72 433.745L1224.79 435.856L1241.33 457.838L1235.15 461.308L1184.98 446.593L1191.76 442.785L1225.72 453.079Z" fill="#F6F5FC"/>
<path d="M1285.46 524.863C1287.32 518.155 1287.29 511.027 1285.33 503.614L1306.41 491.774C1303 503.133 1295.86 514.359 1285.46 524.863ZM1256.48 546.983L1232.65 533.222L1272.99 510.577C1275.38 524.938 1269.63 537.738 1256.48 546.983ZM1181.59 561.944L1221.89 539.3L1245.76 553.015C1229.35 560.383 1206.81 563.489 1181.59 561.944ZM1148.12 580.778L1169.23 568.907C1182.22 570.108 1194.83 570.198 1206.64 569.208C1188.02 575.015 1168.19 578.961 1148.12 580.778ZM1308.96 448.87L1296.05 452.832C1300.54 461.116 1302.54 469.969 1302.05 479.108H1302.04C1302.01 479.933 1301.94 480.744 1301.85 481.569L1276.04 496.08C1272.99 488.877 1268.2 481.719 1261.85 474.741L1249.59 479.573C1256.11 486.777 1260.89 494.159 1263.76 501.513C1263.92 501.918 1264.06 502.323 1264.21 502.744L1218.06 528.69L1197.68 516.969L1186.92 523.017L1207.3 534.722L1161.19 560.668C1160.46 560.578 1159.75 560.488 1159.03 560.399C1146.13 558.688 1133.2 555.897 1120.61 552.1L1111.97 559.018C1124.17 562.709 1136.7 565.501 1149.34 567.316L1123.52 581.843C1122.06 581.888 1120.63 581.918 1119.2 581.918L1119.17 581.933C1103.12 582.113 1087.6 580.867 1073.05 578.226L1065.92 585.519C1081.56 588.355 1098.28 589.706 1115.66 589.496L1115.63 589.511C1163.18 588.986 1211.82 576.906 1249.73 556.376L1249.98 556.227C1250.28 556.077 1250.57 555.927 1250.85 555.776C1251.48 555.431 1252.13 555.086 1252.75 554.741C1252.97 554.621 1253.21 554.486 1253.43 554.336L1253.71 554.186C1253.84 554.111 1253.97 554.036 1254.08 553.961C1254.52 553.69 1254.96 553.435 1255.4 553.18C1255.48 553.121 1255.58 553.076 1255.66 553.03C1292.19 531.721 1313.98 504.199 1315.42 477.172C1315.96 467.313 1313.78 457.799 1308.96 448.87Z" fill="#F6F5FC"/>
<path d="M1154.4 650.496L1154.01 650.279L1015.5 574.338L1016.29 573.039L1154.4 648.767L1318.73 558.684L1256.51 524.568L1380.94 456.355L1236.57 377.21L1236.59 342.66L1238.17 342.662L1238.15 376.342L1384.1 456.355L1259.67 524.568L1321.89 558.684L1154.4 650.496Z" fill="#BAB5F7"/>
<path d="M1362.72 473.022V473.048C1362.72 474.573 1361.92 476.098 1360.32 476.979L1349.31 483.012L1331.16 492.976L1318.69 499.811C1315.17 501.744 1310.82 501.744 1307.31 499.811L1294.89 493.002L1276.69 483.025L1265.68 476.991C1264.08 476.124 1263.29 474.586 1263.29 473.048V473.022C1263.3 471.51 1264.09 469.998 1265.68 469.117L1307.49 446.192C1310.91 444.312 1315.12 444.312 1318.52 446.192L1360.32 469.104C1361.9 469.972 1362.71 471.497 1362.72 473.022Z" fill="#5E19F4"/>
<path d="M1362.72 473.048V492.95C1362.75 494.488 1361.94 496.052 1360.32 496.933L1318.69 519.753C1315.17 521.686 1310.82 521.686 1307.31 519.753L1265.68 496.933C1264.09 496.052 1263.3 494.541 1263.29 493.029V473.048C1263.29 474.586 1264.08 476.124 1265.68 476.991L1276.69 483.025L1294.89 493.002L1307.31 499.811C1310.82 501.744 1315.17 501.744 1318.69 499.811L1331.16 492.976L1349.31 483.012L1360.32 476.979C1361.92 476.098 1362.72 474.573 1362.72 473.048Z" fill="#F9486E"/>
<path d="M1275.66 466.204V473.324C1275.66 474.76 1273.86 475.927 1271.63 475.927C1269.39 475.927 1267.59 474.76 1267.59 473.324V466.204C1267.59 467.64 1269.39 468.808 1271.63 468.808C1273.86 468.808 1275.66 467.64 1275.66 466.204Z" fill="#BEBDF9"/>
<path d="M1275.66 466.204C1275.66 467.64 1273.86 468.808 1271.63 468.808C1269.39 468.808 1267.59 467.64 1267.59 466.204C1267.59 464.767 1269.39 463.6 1271.63 463.6C1273.86 463.6 1275.66 464.767 1275.66 466.204Z" fill="#E2E0FC"/>
<path d="M1317.05 487.402V494.521C1317.05 495.957 1315.24 497.125 1313.01 497.125C1310.78 497.125 1308.97 495.957 1308.97 494.521V487.402C1308.97 488.838 1310.78 490.005 1313.01 490.005C1315.24 490.005 1317.05 488.838 1317.05 487.402Z" fill="#BEBDF9"/>
<path d="M1317.05 487.401C1317.05 488.838 1315.24 490.005 1313.01 490.005C1310.78 490.005 1308.97 488.838 1308.97 487.401C1308.97 485.965 1310.78 484.798 1313.01 484.798C1315.24 484.798 1317.05 485.965 1317.05 487.401Z" fill="#E2E0FC"/>
<path d="M1317.05 444.315V451.434C1317.05 452.87 1315.24 454.039 1313.01 454.039C1310.78 454.039 1308.97 452.87 1308.97 451.434V444.315C1308.97 445.751 1310.78 446.919 1313.01 446.919C1315.24 446.919 1317.05 445.751 1317.05 444.315Z" fill="#BEBDF9"/>
<path d="M1317.05 444.315C1317.05 445.751 1315.24 446.919 1313.01 446.919C1310.78 446.919 1308.97 445.751 1308.97 444.315C1308.97 442.879 1310.78 441.711 1313.01 441.711C1315.24 441.711 1317.05 442.879 1317.05 444.315Z" fill="#E2E0FC"/>
<path d="M1358.43 465.513V472.633C1358.43 474.069 1356.63 475.237 1354.4 475.237C1352.17 475.237 1350.36 474.069 1350.36 472.633V465.513C1350.36 466.949 1352.17 468.117 1354.4 468.117C1356.63 468.117 1358.43 466.949 1358.43 465.513Z" fill="#BEBDF9"/>
<path d="M1358.43 465.513C1358.43 466.949 1356.63 468.117 1354.4 468.117C1352.17 468.117 1350.36 466.949 1350.36 465.513C1350.36 464.077 1352.17 462.909 1354.4 462.909C1356.63 462.909 1358.43 464.077 1358.43 465.513Z" fill="#E2E0FC"/>
<path d="M1278.07 494.276C1278.07 495.85 1277.45 497.125 1276.68 497.125C1275.91 497.125 1275.29 495.85 1275.29 494.276C1275.29 492.703 1275.91 491.427 1276.68 491.427C1277.45 491.427 1278.07 492.703 1278.07 494.276Z" fill="#FCE0E9"/>
<path d="M1287.15 498.701C1287.15 500.275 1286.53 501.55 1285.76 501.55C1285 501.55 1284.37 500.275 1284.37 498.701C1284.37 497.128 1285 495.852 1285.76 495.852C1286.53 495.852 1287.15 497.128 1287.15 498.701Z" fill="#FCE0E9"/>
<path d="M1296.23 503.915C1296.23 505.487 1295.61 506.763 1294.85 506.763C1294.08 506.763 1293.46 505.487 1293.46 503.915C1293.46 502.341 1294.08 501.065 1294.85 501.065C1295.61 501.065 1296.23 502.341 1296.23 503.915Z" fill="#FCE0E9"/>
<path d="M1347.95 493.882C1347.95 495.455 1348.57 496.731 1349.34 496.731C1350.1 496.731 1350.72 495.455 1350.72 493.882C1350.72 492.309 1350.1 491.033 1349.34 491.033C1348.57 491.033 1347.95 492.309 1347.95 493.882Z" fill="#FCE0E9"/>
<path d="M1338.87 498.307C1338.87 499.88 1339.49 501.156 1340.25 501.156C1341.02 501.156 1341.64 499.88 1341.64 498.307C1341.64 496.734 1341.02 495.458 1340.25 495.458C1339.49 495.458 1338.87 496.734 1338.87 498.307Z" fill="#FCE0E9"/>
<path d="M1329.78 503.52C1329.78 505.094 1330.4 506.369 1331.17 506.369C1331.94 506.369 1332.56 505.094 1332.56 503.52C1332.56 501.947 1331.94 500.671 1331.17 500.671C1330.4 500.671 1329.78 501.947 1329.78 503.52Z" fill="#FCE0E9"/>
<path d="M1302.04 580.347V580.37C1302.04 581.722 1301.33 583.074 1299.92 583.854L1290.15 589.204L1274.06 598.039L1263 604.1C1259.89 605.813 1256.03 605.813 1252.91 604.1L1241.91 598.063L1225.77 589.216L1216.01 583.867C1214.58 583.097 1213.89 581.733 1213.89 580.37V580.347C1213.9 579.006 1214.6 577.665 1216.01 576.885L1253.07 556.558C1256.11 554.891 1259.84 554.891 1262.86 556.558L1299.92 576.873C1301.32 577.642 1302.03 578.995 1302.04 580.347Z" fill="#5E19F4"/>
<path d="M1302.04 580.37V598.016C1302.07 599.379 1301.36 600.767 1299.92 601.547L1263 621.781C1259.89 623.495 1256.03 623.495 1252.91 621.781L1216.01 601.547C1214.6 600.767 1213.9 599.426 1213.89 598.086V580.37C1213.89 581.733 1214.58 583.097 1216.01 583.867L1225.77 589.216L1241.91 598.063L1252.91 604.1C1256.03 605.813 1259.89 605.813 1263 604.1L1274.06 598.039L1290.15 589.204L1299.92 583.854C1301.33 583.074 1302.04 581.722 1302.04 580.37Z" fill="#F9486E"/>
<path d="M1224.86 574.302V580.614C1224.86 581.887 1223.26 582.922 1221.28 582.922C1219.3 582.922 1217.69 581.887 1217.69 580.614V574.302C1217.69 575.575 1219.3 576.61 1221.28 576.61C1223.26 576.61 1224.86 575.575 1224.86 574.302Z" fill="#BEBDF9"/>
<path d="M1224.86 574.302C1224.86 575.575 1223.26 576.61 1221.28 576.61C1219.3 576.61 1217.69 575.575 1217.69 574.302C1217.69 573.028 1219.3 571.992 1221.28 571.992C1223.26 571.992 1224.86 573.028 1224.86 574.302Z" fill="#E2E0FC"/>
<path d="M1261.55 593.096V599.409C1261.55 600.682 1259.95 601.718 1257.97 601.718C1255.99 601.718 1254.39 600.682 1254.39 599.409V593.096C1254.39 594.37 1255.99 595.406 1257.97 595.406C1259.95 595.406 1261.55 594.37 1261.55 593.096Z" fill="#BEBDF9"/>
<path d="M1261.55 593.096C1261.55 594.37 1259.95 595.406 1257.97 595.406C1255.99 595.406 1254.39 594.37 1254.39 593.096C1254.39 591.823 1255.99 590.788 1257.97 590.788C1259.95 590.788 1261.55 591.823 1261.55 593.096Z" fill="#E2E0FC"/>
<path d="M1261.55 554.894V561.206C1261.55 562.48 1259.95 563.515 1257.97 563.515C1255.99 563.515 1254.39 562.48 1254.39 561.206V554.894C1254.39 556.167 1255.99 557.203 1257.97 557.203C1259.95 557.203 1261.55 556.167 1261.55 554.894Z" fill="#BEBDF9"/>
<path d="M1261.55 554.894C1261.55 556.167 1259.95 557.203 1257.97 557.203C1255.99 557.203 1254.39 556.167 1254.39 554.894C1254.39 553.62 1255.99 552.585 1257.97 552.585C1259.95 552.585 1261.55 553.62 1261.55 554.894Z" fill="#E2E0FC"/>
<path d="M1298.24 573.689V580.002C1298.24 581.275 1296.64 582.31 1294.67 582.31C1292.69 582.31 1291.08 581.275 1291.08 580.002V573.689C1291.08 574.963 1292.69 575.998 1294.67 575.998C1296.64 575.998 1298.24 574.963 1298.24 573.689Z" fill="#BEBDF9"/>
<path d="M1298.24 573.689C1298.24 574.963 1296.64 575.998 1294.67 575.998C1292.69 575.998 1291.08 574.963 1291.08 573.689C1291.08 572.416 1292.69 571.38 1294.67 571.38C1296.64 571.38 1298.24 572.416 1298.24 573.689Z" fill="#E2E0FC"/>
<path d="M1226.99 599.192C1226.99 600.587 1226.44 601.718 1225.76 601.718C1225.08 601.718 1224.53 600.587 1224.53 599.192C1224.53 597.796 1225.08 596.666 1225.76 596.666C1226.44 596.666 1226.99 597.796 1226.99 599.192Z" fill="#FCE0E9"/>
<path d="M1235.04 603.116C1235.04 604.511 1234.49 605.641 1233.81 605.641C1233.13 605.641 1232.58 604.511 1232.58 603.116C1232.58 601.72 1233.13 600.589 1233.81 600.589C1234.49 600.589 1235.04 601.72 1235.04 603.116Z" fill="#FCE0E9"/>
<path d="M1291.54 630.044C1291.54 631.439 1290.99 632.57 1290.31 632.57C1289.63 632.57 1289.08 631.439 1289.08 630.044C1289.08 628.649 1289.63 627.518 1290.31 627.518C1290.99 627.518 1291.54 628.649 1291.54 630.044Z" fill="#F6F5FC"/>
<path d="M1288.95 598.842C1288.95 600.238 1289.5 601.369 1290.18 601.369C1290.86 601.369 1291.41 600.238 1291.41 598.842C1291.41 597.447 1290.86 596.316 1290.18 596.316C1289.5 596.316 1288.95 597.447 1288.95 598.842Z" fill="#FCE0E9"/>
<path d="M1280.89 602.766C1280.89 604.161 1281.45 605.292 1282.13 605.292C1282.81 605.292 1283.36 604.161 1283.36 602.766C1283.36 601.371 1282.81 600.24 1282.13 600.24C1281.45 600.24 1280.89 601.371 1280.89 602.766Z" fill="#FCE0E9"/>
<path d="M1272.84 607.388C1272.84 608.783 1273.39 609.914 1274.07 609.914C1274.75 609.914 1275.3 608.783 1275.3 607.388C1275.3 605.993 1274.75 604.862 1274.07 604.862C1273.39 604.862 1272.84 605.993 1272.84 607.388Z" fill="#FCE0E9"/>
<path d="M1241.86 607.388C1241.86 608.783 1241.31 609.914 1240.63 609.914C1239.95 609.914 1239.4 608.783 1239.4 607.388C1239.4 605.993 1239.95 604.862 1240.63 604.862C1241.31 604.862 1241.86 605.993 1241.86 607.388Z" fill="#FCE0E9"/>
<path d="M1024.75 546.449V559.736C1024.75 575.447 1002.43 588.183 974.917 588.183C947.403 588.183 925.097 575.447 925.097 559.736V546.449C925.097 548.734 925.566 550.96 926.467 553.093C931.71 565.606 951.413 574.897 974.917 574.897C998.42 574.897 1018.14 565.606 1023.38 553.093C1024.28 550.96 1024.75 548.734 1024.75 546.449Z" fill="#5E19F4"/>
<path d="M1024.75 546.449C1024.75 548.734 1024.28 550.96 1023.38 553.093C1018.14 565.606 998.42 574.897 974.917 574.897C951.413 574.897 931.71 565.606 926.467 553.093C925.566 550.96 925.097 548.734 925.097 546.449C925.097 530.738 947.403 518.002 974.917 518.002C1002.43 518.002 1024.75 530.738 1024.75 546.449Z" fill="#F6F5FC"/>
<path d="M1010.67 534.527V544.054C1010.67 544.671 1010.62 545.287 1010.52 545.881C1008.9 556.304 993.58 564.459 974.923 564.459C956.256 564.459 940.943 556.304 939.326 545.881C939.228 545.287 939.179 544.671 939.179 544.054V534.527C939.179 536.167 939.51 537.761 940.158 539.285C940.416 539.913 940.735 540.529 941.09 541.123C945.904 549.161 959.232 554.931 974.923 554.931C990.604 554.931 1003.94 549.161 1008.76 541.123C1009.11 540.529 1009.43 539.913 1009.69 539.285C1010.33 537.761 1010.67 536.167 1010.67 534.527Z" fill="#5E19F4"/>
<path d="M1010.66 534.529C1010.66 536.165 1010.33 537.755 1009.68 539.286C1005.92 548.26 991.776 554.938 974.915 554.938C958.054 554.938 943.927 548.26 940.166 539.286C939.518 537.755 939.186 536.165 939.186 534.529C939.186 529.997 941.778 525.811 946.171 522.404C948.162 520.858 950.532 519.493 953.203 518.322C959.208 515.681 966.746 514.12 974.915 514.12C977.19 514.12 979.403 514.24 981.553 514.48C988.41 515.201 994.557 517.046 999.425 519.673C1006.35 523.394 1010.66 528.677 1010.66 534.529Z" fill="#F6F5FC"/>
<path d="M960.222 580.293C960.222 582.037 959.459 583.451 958.518 583.451C957.576 583.451 956.814 582.037 956.814 580.293C956.814 578.549 957.576 577.135 958.518 577.135C959.459 577.135 960.222 578.549 960.222 580.293Z" fill="#F6F5FC"/>
<path d="M976.877 581.972C976.877 583.715 975.824 585.129 974.526 585.129C973.227 585.129 972.174 583.715 972.174 581.972C972.174 580.228 973.227 578.814 974.526 578.814C975.824 578.814 976.877 580.228 976.877 581.972Z" fill="#F6F5FC"/>
<path d="M993.032 580.383C993.032 582.127 992.132 583.541 991.022 583.541C989.912 583.541 989.013 582.127 989.013 580.383C989.013 578.639 989.912 577.225 991.022 577.225C992.132 577.225 993.032 578.639 993.032 580.383Z" fill="#F6F5FC"/>
<path d="M1010.67 547.719C1010.67 549.347 1010.33 550.953 1009.69 552.477C1005.93 561.457 991.779 568.122 974.923 568.122C958.056 568.122 943.919 561.457 940.158 552.477C939.51 550.953 939.179 549.347 939.179 547.719C939.179 547.102 939.228 546.486 939.326 545.881C940.943 556.304 956.256 564.459 974.923 564.459C993.58 564.459 1008.9 556.304 1010.52 545.881C1010.62 546.486 1010.67 547.102 1010.67 547.719Z" fill="#4821B5"/>
<path d="M983.837 463.02C982.604 462.195 981.261 461.58 979.822 461.175C972.886 459.224 963.925 462.18 956.561 469.653C946.053 480.308 942.798 496.125 949.277 504.994C949.34 505.069 949.387 505.144 949.451 505.219C949.292 505.129 949.151 505.024 948.992 504.919C947.87 504.078 946.859 503.058 945.974 501.857C939.495 492.989 942.75 477.171 953.259 466.517C960.623 459.043 969.582 456.087 976.52 458.038C979.396 458.833 981.924 460.499 983.837 463.02Z" fill="#4821B5"/>
<path d="M1006.5 485.14C1006.12 484.885 1005.66 484.72 1005.14 484.675L1004.49 484.63L1003.13 484.525L1002.25 484.449L990.062 483.504C990.189 482.889 990.299 482.289 990.378 481.688C990.426 481.343 990.473 480.998 990.505 480.653L999.828 481.388L1001.84 481.538C1002.45 481.598 1002.97 481.808 1003.4 482.154L1003.59 482.334L1003.67 482.424L1006.5 485.14Z" fill="#4821B5"/>
<path d="M983.299 482.964C982.856 486.16 981.577 489.507 979.57 492.568C978.637 494.009 977.547 495.375 976.299 496.635C969.851 503.178 961.587 504.619 956.798 500.402C956.277 499.952 955.787 499.426 955.361 498.826C955.25 498.676 955.155 498.526 955.061 498.376C951.062 492.283 953.338 481.853 960.307 474.785C965.048 469.983 970.768 467.928 975.366 468.843C976.394 469.053 977.373 469.398 978.258 469.908C979.396 470.554 980.408 471.439 981.245 472.58C983.252 475.311 983.884 479.032 983.299 482.964ZM1007.16 485.785C1006.99 485.545 1006.78 485.35 1006.54 485.17L1006.5 485.14C1006.12 484.885 1005.66 484.72 1005.14 484.675L1004.49 484.63L1003.13 484.525L1002.25 484.449L990.062 483.504C990.189 482.889 990.299 482.289 990.378 481.688C990.426 481.343 990.473 480.998 990.505 480.653C991.106 475.251 990.11 470.194 987.329 466.397C986.334 465.031 985.148 463.905 983.837 463.02C982.604 462.195 981.261 461.58 979.822 461.175C972.886 459.224 963.925 462.18 956.561 469.653C946.053 480.308 942.798 496.125 949.277 504.994C949.34 505.069 949.387 505.144 949.451 505.219C950.288 506.329 951.252 507.275 952.295 508.055C959.453 513.308 970.973 510.982 980.06 501.767C982.652 499.141 984.8 496.2 986.475 493.124L1001.87 494.339C1004.06 494.519 1006.58 492.493 1007.49 489.822C1008.03 488.217 1007.87 486.745 1007.16 485.785Z" fill="#F9486E"/>
<path d="M981.553 514.48C980.999 515.711 980.351 516.926 979.577 518.097C978.645 519.537 977.554 520.903 976.306 522.163C969.859 528.707 961.594 530.147 956.806 525.931C956.284 525.48 955.794 524.955 955.368 524.355C955.257 524.204 955.162 524.055 955.067 523.905C954.009 522.298 953.408 520.393 953.203 518.322C950.532 519.493 948.162 520.858 946.171 522.404C946.566 525.435 947.593 528.211 949.284 530.522C949.347 530.597 949.395 530.672 949.457 530.748C950.295 531.858 951.259 532.804 952.302 533.584C959.46 538.836 970.981 536.51 980.067 527.296C982.658 524.67 984.807 521.729 986.482 518.652L999.425 519.673C994.557 517.046 988.41 515.201 981.553 514.48Z" fill="#E8E8F9"/>
<path d="M1154.41 319.093C1154.41 326.641 1150.18 333.619 1143.3 337.386L896.013 472.971C893.563 474.321 890.814 474.171 888.649 473.016L888.554 472.971C887.116 472.19 885.947 470.96 885.315 469.429C884.983 468.633 884.809 467.763 884.809 466.833V238.388C884.809 232.566 888.08 227.193 893.39 224.282L1139.62 89.2666L1143.4 87.1983C1143.92 86.9092 1144.46 86.7035 1144.99 86.5368C1146.72 86.0586 1148.47 86.2087 1150 86.8536C1152.52 87.9044 1154.4 90.2562 1154.4 93.2307L1154.41 319.093Z" fill="#F6F5FC"/>
<path d="M953.845 326.091C953.849 333.103 961.843 337.483 968.236 333.977L1073.01 276.53C1080.68 272.33 1085.39 264.566 1085.39 256.165C1085.39 249.378 1077.65 245.139 1071.46 248.532L965.755 306.49C958.381 310.532 953.841 318.006 953.845 326.091Z" fill="#E8E8F9"/>
<path d="M1014.6 331.95L1014.61 340.531C1014.61 342.744 1017.14 344.125 1019.15 343.018L1041.97 330.495C1044.05 329.352 1045.34 327.241 1045.34 324.957L1045.35 315.613C1045.35 313.921 1043.42 312.863 1041.88 313.709L1017.59 327.024C1015.74 328.04 1014.6 329.918 1014.6 331.95Z" fill="#FE617C"/>
<path d="M1017.3 244.751C1016.36 246.186 1015.27 247.548 1014.03 248.813C1006.87 256.069 997.502 257.047 993.086 251.01C988.675 244.981 990.885 234.212 998.037 226.957C1005.18 219.71 1014.56 218.722 1018.97 224.751C1020.98 227.493 1021.61 231.213 1021.03 235.14C1020.58 238.343 1019.3 241.684 1017.3 244.751ZM1042.86 236.856L1027.79 235.677C1029.13 229.243 1028.33 223.036 1025.06 218.574C1018.57 209.706 1004.8 211.157 994.283 221.825C983.776 232.484 980.519 248.309 987.006 257.178C993.499 266.054 1007.27 264.603 1017.78 253.945C1020.37 251.317 1022.53 248.374 1024.2 245.298L1039.59 246.515C1041.79 246.696 1044.31 244.674 1045.21 242.004C1045.76 240.4 1045.59 238.924 1044.88 237.962C1044.42 237.333 1043.74 236.922 1042.86 236.856Z" fill="#5E19F4"/>
<path d="M1018.97 224.751C1020.98 227.493 1021.61 231.213 1021.03 235.14C1020.58 238.343 1019.3 241.684 1017.3 244.751C1016.36 246.186 1015.27 247.548 1014.03 248.813C1006.87 256.069 997.502 257.047 993.085 251.01C988.675 244.981 990.885 234.212 998.037 226.957C1005.18 219.71 1014.56 218.722 1018.97 224.751Z" fill="#E8E8F9"/>
<path d="M1016.6 232.579C1016.42 232.76 1016.22 232.916 1016 233.036C1015.07 233.54 1014.19 233.196 1014.03 232.267C1014.02 232.238 1013.27 228.417 1009.73 227.456C1006.25 226.508 1002.59 229.612 1002.55 229.644C1001.7 230.376 1000.68 230.352 1000.28 229.589C999.878 228.828 1000.24 227.617 1001.09 226.884C1001.31 226.699 1006.44 222.347 1011.47 223.712C1016.39 225.05 1017.35 230.222 1017.38 230.441C1017.51 231.15 1017.18 231.994 1016.6 232.579Z" fill="#F8F8FF"/>
<path d="M1018.05 234.306C1018.52 234.947 1018.29 236.09 1017.53 236.86C1016.77 237.629 1015.77 237.734 1015.3 237.094C1014.84 236.453 1015.07 235.31 1015.83 234.54C1016.59 233.771 1017.58 233.666 1018.05 234.306Z" fill="#F8F8FF"/>
<path d="M905.548 442.006L905.565 448.915L930.741 435.103V428.176L905.548 442.006Z" fill="#BEBDF9"/>
<path d="M937.039 424.729L937.057 431.637L962.233 417.825V410.899L937.039 424.729Z" fill="#BEBDF9"/>
<path d="M1117.83 124.742C1117.7 127.26 1116.18 129.237 1114.44 129.158C1112.7 129.08 1111.39 126.975 1111.51 124.457C1111.64 121.939 1113.15 119.961 1114.9 120.04C1116.64 120.119 1117.95 122.224 1117.83 124.742Z" fill="#5E19F4"/>
<path d="M1130.73 117.659C1130.61 120.177 1129.09 122.154 1127.35 122.075C1125.61 121.996 1124.29 119.891 1124.42 117.373C1124.55 114.855 1126.06 112.878 1127.81 112.957C1129.55 113.036 1130.86 115.141 1130.73 117.659Z" fill="#FE617C"/>
<path d="M1142.93 111.563C1142.8 114.081 1141.29 116.058 1139.54 115.979C1137.8 115.9 1136.49 113.796 1136.61 111.278C1136.74 108.76 1138.26 106.782 1140 106.861C1141.74 106.94 1143.05 109.045 1142.93 111.563Z" fill="#BEBDF9"/>
<path d="M1150 86.8536C1148.47 86.2087 1146.72 86.0586 1144.99 86.5368C1144.46 86.7036 1143.92 86.9092 1143.4 87.1983L1139.62 89.2666L893.39 224.282C888.08 227.193 884.809 232.566 884.809 238.388V466.833C884.809 467.763 884.983 468.633 885.315 469.429C885.947 470.96 887.116 472.19 888.554 472.971L880.827 469.264C880.29 469.084 879.768 468.814 879.294 468.513L879.215 468.483C878.236 467.868 877.382 467.028 876.798 466.023C876.197 465.017 875.849 463.847 875.849 462.571V234.141C875.849 228.319 879.121 222.931 884.43 220.02L1134.44 82.9507C1136.93 81.5719 1139.76 81.7776 1141.91 83.023L1150 86.8536Z" fill="#5E19F4"/>
<path d="M969.151 541.001C969.436 540.986 969.704 540.971 969.989 540.941C969.784 540.971 969.562 540.986 969.341 541.001H969.151Z" fill="#201D1E"/>
<path d="M968.156 541.031C968.488 541.016 968.82 541.016 969.152 541.001C968.946 541.016 968.741 541.031 968.535 541.031C968.456 541.031 968.361 541.046 968.283 541.046C968.235 541.046 968.204 541.046 968.156 541.031Z" fill="#201D1E"/>
<path d="M1073.16 264.278C1072.98 264.547 1072.78 264.802 1072.55 265.039C1071.21 266.397 1069.45 266.58 1068.62 265.45C1067.8 264.322 1068.21 262.305 1069.55 260.947C1070.89 259.59 1072.65 259.405 1073.47 260.534C1073.85 261.047 1073.97 261.743 1073.86 262.479C1073.77 263.078 1073.53 263.704 1073.16 264.278ZM1077.94 262.8L1075.12 262.579C1075.37 261.375 1075.22 260.213 1074.61 259.377C1073.4 257.717 1070.82 257.988 1068.85 259.986C1066.88 261.981 1066.27 264.945 1067.49 266.605C1068.7 268.267 1071.28 267.995 1073.25 265.999C1073.73 265.507 1074.14 264.956 1074.45 264.381L1077.33 264.608C1077.74 264.642 1078.21 264.264 1078.38 263.764C1078.49 263.464 1078.45 263.187 1078.32 263.007C1078.24 262.889 1078.11 262.813 1077.94 262.8Z" fill="#BEBDF9"/>
<path d="M1144.38 614.265V627.552C1144.38 643.262 1122.06 656 1094.55 656C1067.04 656 1044.73 643.262 1044.73 627.552V614.265C1044.73 616.551 1045.2 618.777 1046.1 620.909C1051.34 633.422 1071.05 642.712 1094.55 642.712C1118.05 642.712 1137.77 633.422 1143.01 620.909C1143.91 618.777 1144.38 616.551 1144.38 614.265Z" fill="#5E19F4"/>
<path d="M1144.38 614.266C1144.38 616.551 1143.91 618.777 1143.01 620.909C1137.77 633.422 1118.05 642.712 1094.55 642.712C1071.05 642.712 1051.34 633.422 1046.1 620.909C1045.2 618.777 1044.73 616.551 1044.73 614.266C1044.73 598.554 1067.04 585.818 1094.55 585.818C1122.06 585.818 1144.38 598.554 1144.38 614.266Z" fill="#F6F5FC"/>
<path d="M1130.3 602.343V611.87C1130.3 612.487 1130.25 613.104 1130.15 613.697C1128.54 624.12 1113.21 632.275 1094.56 632.275C1075.89 632.275 1060.58 624.12 1058.96 613.697C1058.86 613.104 1058.81 612.487 1058.81 611.87V602.343C1058.81 603.983 1059.14 605.577 1059.79 607.101C1060.05 607.729 1060.37 608.346 1060.72 608.939C1065.54 616.977 1078.86 622.747 1094.56 622.747C1110.24 622.747 1123.58 616.977 1128.39 608.939C1128.74 608.346 1129.06 607.729 1129.32 607.101C1129.96 605.577 1130.3 603.983 1130.3 602.343Z" fill="#5E19F4"/>
<path d="M1130.29 602.336C1130.29 603.972 1129.96 605.577 1129.31 607.107C1125.55 616.081 1111.41 622.744 1094.55 622.744C1077.69 622.744 1063.56 616.081 1059.8 607.107C1059.15 605.577 1058.8 603.972 1058.8 602.336C1058.8 592.687 1070.54 584.598 1086.33 582.482C1088.97 582.107 1091.72 581.927 1094.55 581.927C1099.45 581.927 1104.11 582.482 1108.36 583.502C1121.24 586.594 1130.29 593.857 1130.29 602.336Z" fill="#F6F5FC"/>
<path d="M1079.85 648.11C1079.85 649.851 1079.09 651.268 1078.15 651.268C1077.21 651.268 1076.45 649.851 1076.45 648.11C1076.45 646.365 1077.21 644.953 1078.15 644.953C1079.09 644.953 1079.85 646.365 1079.85 648.11Z" fill="#F6F5FC"/>
<path d="M1096.51 649.79C1096.51 651.53 1095.46 652.948 1094.16 652.948C1092.86 652.948 1091.81 651.53 1091.81 649.79C1091.81 648.044 1092.86 646.632 1094.16 646.632C1095.46 646.632 1096.51 648.044 1096.51 649.79Z" fill="#F6F5FC"/>
<path d="M1112.66 648.199C1112.66 649.945 1111.76 651.357 1110.65 651.357C1109.54 651.357 1108.65 649.945 1108.65 648.199C1108.65 646.454 1109.54 645.041 1110.65 645.041C1111.76 645.041 1112.66 646.454 1112.66 648.199Z" fill="#F6F5FC"/>
<path d="M1130.3 615.535C1130.3 617.163 1129.96 618.769 1129.32 620.293C1125.56 629.274 1111.41 635.939 1094.56 635.939C1077.69 635.939 1063.55 629.274 1059.79 620.293C1059.14 618.769 1058.81 617.163 1058.81 615.535C1058.81 614.918 1058.86 614.302 1058.96 613.697C1060.58 624.12 1075.89 632.275 1094.56 632.275C1113.21 632.275 1128.54 624.12 1130.15 613.697C1130.25 614.302 1130.3 614.918 1130.3 615.535Z" fill="#4821B5"/>
<path d="M1088.78 608.818C1089.07 608.803 1089.34 608.788 1089.62 608.758C1089.42 608.788 1089.19 608.803 1088.97 608.818H1088.78Z" fill="#201D1E"/>
<path d="M1087.79 608.847C1088.12 608.833 1088.45 608.833 1088.78 608.818C1088.58 608.833 1088.37 608.847 1088.17 608.847C1088.09 608.847 1087.99 608.863 1087.91 608.863C1087.87 608.863 1087.84 608.863 1087.79 608.847Z" fill="#201D1E"/>
<path d="M1108.35 526.162V561.366L1100.53 557.078L1097.65 555.491L1087.77 574.705L1086.95 576.292L1076.87 570.754L1087.73 550.02L1076.26 543.739L1108.35 526.162Z" fill="#F9486E"/>
<path d="M1108.35 526.162H1112.05V561.366H1108.35V526.162Z" fill="#4821B5"/>
<path d="M1086.95 576.292H1090.66L1100.53 557.078L1097.65 555.491L1086.95 576.292Z" fill="#4821B5"/>
<path d="M1108.36 583.502V591.141L1100.54 586.849L1097.64 585.273L1087.77 604.482L1086.95 606.072L1076.86 600.535L1086.33 582.482C1088.97 582.107 1091.72 581.927 1094.55 581.927C1099.45 581.927 1104.11 582.482 1108.36 583.502Z" fill="#E8E8F9"/>
<path d="M1391.48 233.601V409.253C1391.48 411.473 1390.04 413.229 1388.14 413.964L1380.83 417.221C1381.85 416.321 1382.52 415.03 1382.52 413.514V237.863C1382.52 232.356 1379.44 227.268 1374.41 224.522L1196.4 126.919L1194.47 125.854L1193.57 125.359C1192.19 124.608 1190.69 124.503 1189.35 124.879L1197.12 121.127C1197.12 121.127 1197.12 121.127 1197.14 121.127C1198.71 120.256 1200.73 120.122 1202.53 121.112L1383.37 220.26C1388.4 223.021 1391.48 228.109 1391.48 233.601Z" fill="#5E19F4"/>
<path d="M1382.52 237.863V413.514C1382.52 415.03 1381.85 416.321 1380.83 417.221H1380.81C1379.18 418.647 1376.69 419.097 1374.51 417.896L1193.16 318.433C1188.42 315.836 1185.51 311.05 1185.51 305.857V129.785C1185.51 127.384 1187.19 125.524 1189.3 124.893L1189.35 124.878C1190.69 124.503 1192.19 124.608 1193.57 125.359L1194.47 125.854L1196.4 126.919L1374.41 224.522C1379.44 227.268 1382.52 232.356 1382.52 237.863Z" fill="#F6F5FC"/>
<path d="M1195.89 147.359L1195.88 152.468C1195.88 154.168 1196.83 155.738 1198.38 156.588L1233.68 175.938C1235.31 176.835 1237.36 175.714 1237.36 173.921V169.585C1237.36 167.74 1236.32 166.034 1234.64 165.11L1199.08 145.612C1197.66 144.834 1195.89 145.805 1195.89 147.359Z" fill="#FE617C"/>
<path d="M1195.89 172.697C1195.88 175.865 1197.66 178.793 1200.55 180.377L1273.08 220.156C1275.62 221.552 1278.8 219.804 1278.8 217.014C1278.79 213.852 1277.01 210.934 1274.13 209.353L1201.59 169.573C1199.06 168.183 1195.89 169.918 1195.89 172.697Z" fill="#E8E8F9"/>
<path d="M1195.89 194.855V206.215L1237.34 228.954L1237.37 217.595L1195.89 194.855Z" fill="#7B67F4"/>
<path d="M1419.51 284.814V409.368C1419.51 409.864 1419.42 410.343 1419.26 410.764C1418.97 411.559 1418.45 412.235 1417.77 412.715V412.73C1416.43 413.72 1414.5 413.975 1412.81 413.045L1341.29 373.832C1338.37 372.227 1336.55 369.271 1336.55 366.044V242.33C1336.55 240.515 1337.7 239.044 1339.24 238.399C1339.88 238.113 1340.58 237.978 1341.31 238.008C1342 238.023 1342.73 238.203 1343.41 238.579L1345.53 239.734L1415.39 278.031C1417.95 279.427 1419.51 282.023 1419.51 284.814Z" fill="#5E19F4"/>
<path d="M1237.36 241.834C1237.1 241.834 1236.82 241.769 1236.58 241.633L1195.09 218.887C1194.33 218.472 1194.07 217.555 1194.51 216.837C1194.95 216.118 1195.91 215.873 1196.67 216.287L1238.16 239.034C1238.91 239.448 1239.17 240.366 1238.73 241.084C1238.44 241.565 1237.91 241.834 1237.36 241.834Z" fill="#E8E8F9"/>
<path d="M1247.72 258.895C1247.45 258.895 1247.18 258.831 1246.93 258.694L1195.09 230.274C1194.33 229.86 1194.07 228.942 1194.51 228.224C1194.95 227.506 1195.91 227.261 1196.67 227.675L1248.51 256.095C1249.27 256.509 1249.53 257.427 1249.09 258.145C1248.8 258.627 1248.27 258.895 1247.72 258.895Z" fill="#E8E8F9"/>
<path d="M1258.09 275.949C1257.82 275.949 1257.55 275.885 1257.3 275.747L1195.09 241.625C1194.33 241.211 1194.07 240.293 1194.51 239.576C1194.95 238.857 1195.91 238.609 1196.67 239.027L1258.88 273.149C1259.64 273.563 1259.9 274.481 1259.46 275.199C1259.17 275.68 1258.64 275.949 1258.09 275.949Z" fill="#E8E8F9"/>
<path d="M1195.9 263.082V274.442L1237.35 297.181L1237.37 285.822L1195.9 263.082Z" fill="#7B67F4"/>
<path d="M1237.37 310.061C1237.1 310.061 1236.83 309.997 1236.58 309.86L1195.1 287.114C1194.34 286.7 1194.08 285.782 1194.52 285.064C1194.95 284.346 1195.92 284.1 1196.68 284.515L1238.16 307.261C1238.92 307.675 1239.18 308.593 1238.74 309.311C1238.45 309.793 1237.92 310.061 1237.37 310.061Z" fill="#E8E8F9"/>
<path d="M1247.73 327.122C1247.46 327.122 1247.19 327.058 1246.94 326.921L1195.1 298.502C1194.34 298.087 1194.08 297.17 1194.52 296.451C1194.95 295.732 1195.92 295.486 1196.68 295.901L1248.52 324.322C1249.28 324.736 1249.54 325.654 1249.1 326.372C1248.81 326.854 1248.27 327.122 1247.73 327.122Z" fill="#E8E8F9"/>
<path d="M1258.1 344.176C1257.83 344.176 1257.56 344.112 1257.31 343.975L1195.1 309.852C1194.34 309.438 1194.08 308.52 1194.52 307.803C1194.95 307.085 1195.92 306.837 1196.68 307.254L1258.89 341.376C1259.65 341.79 1259.9 342.708 1259.47 343.426C1259.17 343.907 1258.64 344.176 1258.1 344.176Z" fill="#E8E8F9"/>
<path d="M1330.69 327.115C1330.42 327.115 1330.15 327.051 1329.9 326.914L1195.09 253.012C1194.33 252.598 1194.07 251.68 1194.51 250.962C1194.95 250.243 1195.91 249.998 1196.67 250.413L1331.48 324.315C1332.24 324.729 1332.5 325.647 1332.06 326.364C1331.77 326.846 1331.24 327.115 1330.69 327.115Z" fill="#E8E8F9"/>
<path d="M1270.43 213.739C1270.37 213.31 1270.44 212.903 1270.66 212.604C1271.14 211.945 1272.17 212.053 1272.95 212.845C1273.73 213.638 1273.97 214.815 1273.49 215.474C1273.01 216.134 1271.98 216.027 1271.2 215.234C1271.06 215.096 1270.94 214.947 1270.84 214.79C1270.62 214.455 1270.48 214.09 1270.43 213.739ZM1267.83 214.048C1267.75 214.153 1267.73 214.314 1267.79 214.489C1267.89 214.782 1268.16 215.003 1268.41 214.983L1270.09 214.85C1270.27 215.186 1270.51 215.507 1270.79 215.795C1271.94 216.96 1273.44 217.119 1274.15 216.148C1274.86 215.179 1274.51 213.449 1273.36 212.284C1272.21 211.117 1270.7 210.959 1269.99 211.929C1269.64 212.416 1269.55 213.095 1269.7 213.798L1268.05 213.927C1267.95 213.934 1267.88 213.979 1267.83 214.048Z" fill="#BEBDF9"/>
<path d="M1368.22 235.242C1368.31 236.968 1369.35 238.322 1370.54 238.268C1371.74 238.214 1372.64 236.772 1372.55 235.047C1372.46 233.321 1371.43 231.967 1370.23 232.021C1369.04 232.075 1368.14 233.517 1368.22 235.242Z" fill="#BEBDF9"/>
<path d="M1359.38 230.389C1359.47 232.114 1360.51 233.469 1361.7 233.415C1362.89 233.361 1363.79 231.919 1363.71 230.193C1363.62 228.468 1362.58 227.114 1361.39 227.168C1360.19 227.222 1359.29 228.664 1359.38 230.389Z" fill="#FE617C"/>
<path d="M1351.03 226.213C1351.11 227.939 1352.15 229.293 1353.35 229.239C1354.54 229.185 1355.44 227.743 1355.35 226.018C1355.27 224.292 1354.23 222.938 1353.03 222.992C1351.84 223.046 1350.94 224.488 1351.03 226.213Z" fill="#5E19F4"/>
<path d="M1346.93 291.223V327.404C1346.93 329.919 1348.34 332.244 1350.64 333.501L1403.68 362.57C1406.11 363.9 1409.14 362.236 1409.14 359.574L1409.14 323.869C1409.14 321.526 1407.82 319.361 1405.69 318.19L1351.72 288.598C1349.59 287.431 1346.93 288.889 1346.93 291.223Z" fill="#F9486E"/>
<path d="M1346.93 343.26V347.386C1346.93 348.119 1347.34 348.796 1348.01 349.162L1357.72 354.485C1358.46 354.893 1359.39 354.383 1359.39 353.566V349.733C1359.39 349.015 1358.99 348.352 1358.33 347.992L1348.31 342.499C1347.7 342.162 1346.93 342.584 1346.93 343.26Z" fill="#BEBDF9"/>
<path d="M1378.17 374.9C1378.03 374.9 1377.9 374.868 1377.77 374.799L1346.53 357.671C1346.15 357.463 1346.02 357.005 1346.24 356.646C1346.46 356.288 1346.94 356.167 1347.32 356.371L1378.56 373.501C1378.94 373.707 1379.07 374.166 1378.85 374.525C1378.71 374.765 1378.44 374.9 1378.17 374.9Z" fill="#E8E8F9"/>
<path d="M1390.98 387.64C1390.85 387.64 1390.71 387.607 1390.59 387.538L1346.53 363.39C1346.15 363.182 1346.02 362.724 1346.24 362.364C1346.46 362.006 1346.94 361.884 1347.32 362.09L1391.38 386.24C1391.76 386.447 1391.89 386.905 1391.67 387.265C1391.52 387.505 1391.25 387.64 1390.98 387.64Z" fill="#E8E8F9"/>
<path d="M1398.77 397.626C1398.64 397.626 1398.5 397.595 1398.38 397.526L1346.53 369.089C1346.15 368.883 1346.02 368.424 1346.24 368.065C1346.46 367.706 1346.94 367.585 1347.32 367.79L1399.17 396.228C1399.55 396.434 1399.68 396.893 1399.46 397.251C1399.31 397.492 1399.04 397.626 1398.77 397.626Z" fill="#E8E8F9"/>
<path d="M1350.67 272.708L1350.87 274.235L1351.21 273.145L1353.53 266.949L1354.79 267.65L1356.85 276.303L1357.14 277.765L1357.4 276.464L1359.25 270.146L1360.73 270.98L1357.86 280.118L1356.51 279.361L1354.3 270.296L1354.14 269.383L1353.95 270.097L1351.44 276.523L1350.09 275.767L1347.52 263.584L1349.01 264.414L1350.67 272.708Z" fill="#F6F5FC"/>
<path d="M1365.15 277.187C1364.57 276.864 1364.09 276.793 1363.69 276.972C1363.29 277.151 1363.04 277.573 1362.94 278.24L1367.12 280.581L1367.12 280.478C1367.09 279.768 1366.91 279.124 1366.56 278.551C1366.22 277.975 1365.75 277.521 1365.15 277.187ZM1365.23 284.391C1364.09 283.757 1363.18 282.889 1362.48 281.785C1361.78 280.683 1361.44 279.54 1361.45 278.359L1361.46 278.11C1361.47 277.325 1361.64 276.71 1361.96 276.269C1362.29 275.83 1362.74 275.594 1363.31 275.563C1363.88 275.532 1364.5 275.702 1365.17 276.074C1366.25 276.682 1367.09 277.494 1367.68 278.509C1368.27 279.524 1368.56 280.664 1368.54 281.929L1368.54 282.494L1362.88 279.326C1362.89 280.119 1363.12 280.885 1363.57 281.624C1364.03 282.362 1364.61 282.93 1365.32 283.328C1365.82 283.61 1366.25 283.752 1366.61 283.752C1366.96 283.753 1367.27 283.666 1367.53 283.49L1368.4 284.622C1367.68 285.251 1366.63 285.174 1365.23 284.391Z" fill="#F6F5FC"/>
<path d="M1371.69 287.859L1370.26 287.06L1370.42 275.811L1371.85 276.61L1371.69 287.859Z" fill="#F6F5FC"/>
<path d="M1377.33 290.054C1377.84 290.339 1378.29 290.442 1378.67 290.362C1379.06 290.282 1379.27 290.033 1379.32 289.618L1380.67 290.374C1380.64 290.813 1380.47 291.153 1380.16 291.394C1379.85 291.634 1379.44 291.734 1378.93 291.694C1378.42 291.654 1377.88 291.476 1377.32 291.16C1376.18 290.523 1375.28 289.657 1374.62 288.561C1373.96 287.466 1373.64 286.293 1373.66 285.043L1373.66 284.815C1373.67 284.044 1373.83 283.441 1374.14 283.008C1374.44 282.574 1374.88 282.347 1375.44 282.328C1376 282.308 1376.66 282.511 1377.43 282.938C1378.36 283.463 1379.14 284.165 1379.75 285.043C1380.36 285.923 1380.68 286.799 1380.71 287.671L1379.36 286.915C1379.33 286.38 1379.13 285.843 1378.77 285.308C1378.4 284.773 1377.95 284.354 1377.41 284.051C1376.69 283.646 1376.12 283.579 1375.71 283.852C1375.31 284.124 1375.1 284.728 1375.09 285.665L1375.08 285.922C1375.07 286.835 1375.26 287.649 1375.65 288.364C1376.04 289.079 1376.6 289.643 1377.33 290.054Z" fill="#F6F5FC"/>
<path d="M1383.36 290.487C1383.34 291.367 1383.55 292.194 1383.97 292.966C1384.39 293.738 1384.96 294.325 1385.68 294.729C1386.41 295.135 1386.99 295.187 1387.42 294.887C1387.86 294.587 1388.08 293.951 1388.1 292.979C1388.11 292.11 1387.9 291.284 1387.48 290.501C1387.05 289.718 1386.47 289.125 1385.75 288.722C1385.05 288.326 1384.48 288.276 1384.04 288.567C1383.6 288.857 1383.37 289.497 1383.36 290.487ZM1381.92 289.522C1381.94 288.747 1382.11 288.138 1382.44 287.699C1382.77 287.259 1383.22 287.03 1383.8 287.014C1384.38 286.998 1385.03 287.197 1385.77 287.609C1386.91 288.245 1387.82 289.134 1388.51 290.273C1389.2 291.414 1389.54 292.605 1389.52 293.844L1389.52 293.94C1389.51 294.711 1389.34 295.317 1389.03 295.755C1388.71 296.193 1388.25 296.421 1387.67 296.439C1387.09 296.456 1386.42 296.255 1385.67 295.834C1384.54 295.202 1383.62 294.314 1382.93 293.174C1382.24 292.034 1381.9 290.848 1381.92 289.618V289.522Z" fill="#F6F5FC"/>
<path d="M1392.71 291.644L1392.74 292.543C1393.36 292.202 1394.19 292.323 1395.23 292.905C1396.4 293.559 1397.19 294.43 1397.6 295.515C1397.88 295.29 1398.25 295.184 1398.69 295.199C1399.14 295.214 1399.67 295.391 1400.28 295.731C1402.11 296.756 1403.03 298.198 1403.03 300.056L1402.96 305.365L1401.53 304.566L1401.6 299.337C1401.61 298.77 1401.48 298.27 1401.21 297.837C1400.94 297.404 1400.49 297.007 1399.84 296.647C1399.31 296.351 1398.87 296.255 1398.52 296.359C1398.16 296.462 1397.95 296.753 1397.89 297.23L1397.82 302.488L1396.38 301.684L1396.46 296.491C1396.47 295.34 1395.89 294.43 1394.7 293.765C1393.76 293.241 1393.12 293.262 1392.76 293.826L1392.68 299.611L1391.25 298.811L1391.36 290.888L1392.71 291.644Z" fill="#F6F5FC"/>
<path d="M1408.5 301.454C1407.92 301.13 1407.43 301.059 1407.04 301.238C1406.64 301.417 1406.39 301.839 1406.29 302.506L1410.47 304.848L1410.47 304.745C1410.44 304.033 1410.25 303.391 1409.91 302.817C1409.56 302.242 1409.09 301.788 1408.5 301.454ZM1408.57 308.657C1407.44 308.023 1406.52 307.154 1405.83 306.052C1405.12 304.949 1404.78 303.807 1404.8 302.625L1404.8 302.376C1404.81 301.59 1404.98 300.977 1405.31 300.536C1405.63 300.095 1406.08 299.861 1406.66 299.828C1407.23 299.798 1407.85 299.968 1408.51 300.341C1409.6 300.948 1410.43 301.76 1411.03 302.775C1411.62 303.791 1411.91 304.932 1411.89 306.196L1411.88 306.76L1406.23 303.593C1406.23 304.386 1406.47 305.151 1406.92 305.89C1407.37 306.629 1407.96 307.197 1408.67 307.594C1409.17 307.876 1409.6 308.018 1409.95 308.018C1410.3 308.019 1410.61 307.931 1410.88 307.757L1411.74 308.89C1411.03 309.517 1409.97 309.441 1408.57 308.657Z" fill="#F6F5FC"/>
<path d="M1424 281.963L1423.98 406.532C1423.98 408.078 1423.15 409.338 1421.96 410.074C1421.96 410.074 1421.95 410.088 1421.91 410.104C1421.88 410.133 1421.8 410.164 1421.72 410.223C1420.86 410.764 1417.92 412.61 1417.77 412.73V412.715C1418.45 412.235 1418.97 411.559 1419.26 410.764C1419.42 410.343 1419.51 409.864 1419.51 409.368V284.814C1419.51 282.023 1417.95 279.427 1415.39 278.031L1345.53 239.734L1343.41 238.579C1342.73 238.203 1342 238.023 1341.31 238.008C1340.58 237.978 1339.88 238.113 1339.24 238.399L1342.89 236.012L1342.95 235.968C1344.32 235.037 1346.22 234.812 1347.9 235.728L1419.86 275.18C1422.42 276.575 1424 279.172 1424 281.963Z" fill="#4821B5"/>
<path d="M1410.57 285.399C1410.63 286.548 1411.32 287.45 1412.12 287.414C1412.91 287.378 1413.51 286.417 1413.45 285.268C1413.4 284.119 1412.71 283.217 1411.91 283.253C1411.11 283.289 1410.52 284.249 1410.57 285.399Z" fill="#F6F5FC"/>
<path d="M1404.68 282.166C1404.74 283.315 1405.43 284.218 1406.23 284.181C1407.02 284.145 1407.62 283.185 1407.56 282.036C1407.51 280.887 1406.81 279.984 1406.02 280.021C1405.22 280.056 1404.63 281.017 1404.68 282.166Z" fill="#FE617C"/>
<path d="M1399.12 279.385C1399.18 280.534 1399.87 281.436 1400.66 281.4C1401.46 281.364 1402.06 280.403 1402 279.254C1401.94 278.105 1401.25 277.203 1400.45 277.239C1399.66 277.275 1399.06 278.236 1399.12 279.385Z" fill="#5E19F4"/>
<path d="M1066 276.599C1066 276.599 1065.76 275.837 1065.13 275.232C1064.49 274.627 1062.98 275.736 1061.23 272.712C1059.47 269.689 1065.44 267.422 1065.18 265.356C1064.91 263.29 1062.33 258.125 1063.45 257.747C1064.57 257.369 1071.2 271.315 1071.99 274.13C1072.77 276.945 1069.58 278.835 1069.58 278.835L1066 276.599Z" fill="#FCE0E9"/>
<path d="M1121.95 471.958C1121.95 471.958 1122.89 474.731 1123.09 477.704C1123.3 480.678 1123.45 482.612 1121.34 483.739C1119.24 484.866 1098.99 475.428 1100.32 472.925C1101.66 470.421 1113.74 471.074 1113.74 471.074L1121.95 471.958Z" fill="#5E19F4"/>
<path d="M1112.93 471.491C1112.65 471.31 1112.43 471.152 1112.3 471.044C1112.19 470.959 1112.13 470.911 1112.13 470.911C1112.13 470.911 1112.11 470.523 1112.05 469.785C1111.63 463.69 1109.61 434.037 1108.87 414.156V414.12C1108.69 409.5 1108.59 405.412 1108.59 402.268C1108.6 391.722 1109.5 384.418 1110.26 380.125C1110.82 376.98 1111.31 375.445 1111.31 375.445L1116.13 375.227L1113.4 379.992L1121.05 379.653C1121.05 379.653 1121.89 384.647 1121.05 394.19C1120.22 403.719 1115.11 416.308 1115.59 436.238C1115.89 448.344 1114.26 462.36 1112.93 471.491Z" fill="#E6E4F2"/>
<path d="M1131.17 388.506C1130.38 397.636 1125.47 409.706 1125.94 428.801C1126.4 447.897 1121.89 471.963 1121.89 471.963C1121.89 471.963 1120.51 473.172 1117.58 473.112C1115.73 473.063 1114.06 472.216 1113.07 471.576C1114.31 466.145 1118.33 447.582 1117.54 437.677C1116.6 425.996 1121.3 405.231 1122.81 397.672C1124.33 390.114 1122.81 379.133 1122.81 379.133L1119.45 375.082L1131.17 374.574C1131.17 374.574 1131.97 379.363 1131.17 388.506Z" fill="#FCE0E9"/>
<path d="M1111.37 481.274C1111.37 481.274 1112.53 484.716 1112.79 488.406C1113.05 492.095 1113.23 494.496 1110.62 495.894C1108.01 497.293 1082.87 485.581 1084.53 482.474C1086.19 479.367 1101.18 480.177 1101.18 480.177L1111.37 481.274Z" fill="#5E19F4"/>
<path d="M1121.05 394.19C1120.22 403.719 1115.11 416.308 1115.59 436.238C1115.89 448.344 1114.26 462.36 1112.93 471.491C1112.86 472.035 1112.78 472.555 1112.72 473.051C1112.7 473.087 1112.7 473.112 1112.7 473.112C1111.96 478.106 1111.36 481.275 1111.36 481.275C1111.36 481.275 1109.93 482.545 1106.86 482.472C1103.79 482.399 1101.19 480.174 1101.19 480.174C1101.19 480.174 1097.48 427.628 1097.49 408.556C1097.5 389.485 1100.32 380.56 1100.32 380.56L1110.26 380.125L1113.4 379.992L1121.05 379.653C1121.05 379.653 1121.89 384.647 1121.05 394.19Z" fill="#FCE0E9"/>
<path d="M1127.37 312.578C1127.37 312.578 1136.17 314.219 1137.17 323.69C1138.17 333.162 1142.93 343.286 1140.32 346.997C1137.71 350.707 1133.76 349.692 1133.76 349.692C1133.76 349.692 1125.46 322.356 1125.52 322.165C1125.59 321.974 1127.37 312.578 1127.37 312.578Z" fill="#EF3566"/>
<path d="M1122.81 397.672C1121.3 405.231 1116.6 425.996 1117.54 437.677C1118.33 447.582 1114.31 466.145 1113.07 471.576C1113.02 471.551 1112.98 471.527 1112.93 471.491C1114.26 462.36 1115.89 448.344 1115.59 436.238C1115.11 416.308 1120.22 403.719 1121.05 394.19C1121.82 385.422 1121.18 380.487 1121.06 379.75C1121.66 379.556 1122.25 379.339 1122.81 379.133C1122.81 379.133 1124.33 390.114 1122.81 397.672Z" fill="#F9C5D8"/>
<path d="M1107.72 307.358C1107.72 307.358 1108.92 308.862 1108.65 311.636C1108.39 314.41 1108.27 317.398 1108.27 317.398L1117.29 318.732C1117.29 318.732 1125.59 312.235 1125.52 312.045C1125.46 311.854 1123.28 304.344 1123.13 302.956C1122.98 301.569 1113.34 299.535 1113.34 299.535L1107.72 307.358Z" fill="#F7D5E2"/>
<path d="M1106.42 289.333C1106.42 289.333 1104.42 293.956 1103.69 297.379C1102.57 302.647 1103.24 307.525 1103.24 307.525C1103.24 307.525 1108.11 308.102 1115.08 305.516C1122.05 302.93 1122.1 289.233 1122.1 289.233C1122.1 289.233 1117.57 284.907 1117.2 284.884C1116.84 284.861 1106.42 289.333 1106.42 289.333Z" fill="#FCE0E9"/>
<path d="M1106.42 289.333C1106.42 289.333 1113.44 291.567 1112.3 296.028C1111.16 300.487 1107.4 308.243 1117.35 309.327C1127.3 310.412 1135.22 296.182 1133.49 290.224C1131.76 284.264 1125.82 281.297 1123.12 280.689C1120.43 280.082 1111.71 278.215 1106.42 289.333Z" fill="#11057C"/>
<path d="M1142.65 408.23C1142.65 408.23 1135.04 424.727 1115.45 419.574C1097.92 414.962 1092.15 417.078 1092.15 417.078C1092.15 417.078 1090.4 408.549 1093.02 394.762C1095.63 380.964 1097.21 380.56 1097.21 380.56C1097.21 380.56 1112.89 373.812 1123.7 372.893C1127.46 372.578 1130.61 372.966 1132.33 374.586C1138.98 380.863 1142.65 408.23 1142.65 408.23Z" fill="#BEBDF9"/>
<path d="M1142.65 408.23C1142.65 408.23 1140.89 397.975 1135.61 390.574C1130.32 383.172 1122.81 379.133 1122.81 379.133L1123.7 372.893C1127.46 372.578 1130.61 372.966 1132.33 374.586C1138.98 380.863 1142.65 408.23 1142.65 408.23Z" fill="#7B67F4"/>
<path d="M1135.61 357.022C1135.61 362.573 1134.11 372.018 1131.42 374.582C1130.24 375.73 1126.48 377.545 1121.69 379.129C1121.06 379.334 1120.39 379.552 1119.72 379.746C1114.09 381.439 1107.42 382.697 1101.84 382.273C1092.94 381.608 1091.5 373.01 1092.36 366.613C1092.48 365.754 1092.64 364.943 1092.82 364.193C1093 363.456 1093.2 362.779 1093.43 362.186C1094.19 360.178 1094.53 355.728 1094.73 350.552C1094.84 347.807 1094.91 344.844 1094.98 341.942C1094.98 341.942 1096.33 338.398 1100.46 338.096C1104.35 337.817 1106.18 334.516 1106.4 334.105C1105.98 334.661 1105.46 335.133 1104.86 335.496C1103.8 336.137 1102.5 336.439 1101.15 336.233C1099.46 335.967 1097.43 335.109 1095.27 333.053C1095.32 332.085 1095.37 331.166 1095.43 330.307C1095.56 328.736 1095.71 327.381 1095.92 326.341C1096.01 325.869 1096.11 325.47 1096.22 325.143C1096.78 323.511 1099 321.637 1101.83 319.822C1105.8 317.259 1110.98 314.803 1114.46 313.268C1118.27 311.575 1122.61 311.115 1126.65 312.24C1129.58 313.05 1132.45 314.707 1133.66 318.033C1135.62 323.427 1134.71 344.421 1134.2 348.121C1133.64 352.161 1135.61 351.459 1135.61 357.022Z" fill="#F9486E"/>
<path d="M1132.54 318.884C1132.54 318.884 1124.5 318.292 1124.24 312.688C1123.98 307.084 1129.24 302.647 1128.34 299.516C1127.43 296.386 1126.51 296.253 1126.51 296.253C1126.51 296.253 1125.93 295.776 1126.31 294.556C1126.7 293.341 1127.56 293.136 1127.56 293.136C1127.56 293.136 1135.94 293.381 1135.6 300.489C1135.25 307.595 1131.14 310.014 1130.65 312.875C1130.14 315.745 1132.54 318.884 1132.54 318.884Z" fill="#11057C"/>
<path d="M1106.4 334.105C1106.18 334.516 1104.35 337.818 1100.46 338.096C1096.33 338.398 1094.98 341.942 1094.98 341.942C1095.05 338.809 1095.13 335.738 1095.27 333.053C1097.43 335.109 1099.46 335.967 1101.15 336.234C1102.5 336.439 1103.8 336.137 1104.86 335.496C1105.46 335.133 1105.98 334.661 1106.4 334.105Z" fill="#EF3566"/>
<path d="M1117.17 353.326V367.157C1117.17 377.291 1105.84 383.687 1096.53 379.04C1103.15 378.199 1108.83 372.899 1108.83 365.729V352.205C1110.89 352.084 1112.7 351.644 1114.1 351.189C1114.74 350.989 1115.38 351.07 1115.92 351.349C1116.65 351.71 1117.17 352.445 1117.17 353.326Z" fill="#440AE5"/>
<path d="M1108.83 352.204V365.729C1108.83 372.899 1103.15 378.199 1096.53 379.04C1096.36 378.96 1096.18 378.867 1096.01 378.773L1087.34 374.007C1082.96 371.617 1080.28 367.197 1080.28 362.404V337.17C1080.28 335.902 1081.25 335.088 1082.33 334.954C1082.98 334.861 1083.68 335.034 1084.21 335.515C1084.34 335.622 1084.45 335.742 1084.55 335.875C1088.09 340.615 1093.4 346.837 1098.74 349.908C1099.31 350.241 1099.89 350.535 1100.47 350.789C1103.42 352.07 1106.32 352.378 1108.83 352.204Z" fill="#5E19F4"/>
<path d="M1110.23 352.25L1107.42 352.168C1107.62 345.819 1107.29 328.419 1103.35 324.204C1102.97 323.802 1102.71 323.804 1102.49 323.841C1099.22 324.358 1093.17 335.038 1089.91 342.455L1087.31 341.427C1088.72 338.217 1096.06 322.153 1102.02 321.208C1102.93 321.064 1104.26 321.159 1105.45 322.431C1110.84 328.198 1110.31 349.805 1110.23 352.25Z" fill="#5E19F4"/>
<path d="M1107.39 331.263C1107.37 332.303 1107.01 333.27 1106.42 334.069C1106.42 334.069 1106.41 334.081 1106.4 334.105C1105.98 334.661 1105.46 335.133 1104.86 335.496C1103.8 336.137 1102.5 336.439 1101.15 336.234C1099.46 335.967 1097.43 335.109 1095.27 333.053C1095.18 332.98 1095.1 332.895 1095.01 332.811C1094.3 332.109 1093.59 331.396 1092.87 330.67C1086.21 323.886 1079.92 316.388 1076.23 307.693C1072.87 299.796 1070.1 291.609 1067.02 283.614C1066.32 281.776 1065.61 279.938 1064.91 278.1C1064.91 278.1 1066.62 274.883 1069.8 274.278C1072.98 273.674 1074.26 274.883 1074.26 274.883C1077.26 282.055 1080.09 289.299 1083.57 296.289C1085.98 301.15 1089.26 305.552 1093.1 309.495C1096.34 312.833 1099.11 316.218 1101.83 319.822C1102.68 320.971 1103.53 322.132 1104.4 323.318C1105.66 325.059 1106.45 326.631 1106.88 328.022C1107.29 329.243 1107.42 330.332 1107.39 331.263Z" fill="#F9486E"/>
<path d="M1115.93 351.363C1115.93 351.363 1112.88 354.621 1108.83 357.585C1104.38 360.856 1098.71 363.753 1094.55 361.59C1086.59 357.438 1082.33 334.954 1082.33 334.954L1083.11 334.93C1084.08 335.269 1084.45 335.742 1084.55 335.876C1088.09 340.615 1093.4 346.837 1098.74 349.908C1099.31 350.241 1099.89 350.536 1100.47 350.789C1103.42 352.071 1106.32 352.378 1108.83 352.205C1110.88 352.084 1112.7 351.644 1114.1 351.189C1114.74 350.989 1115.38 351.07 1115.92 351.349L1115.93 351.363Z" fill="#CFC9F7"/>
<path d="M1096.53 356.72C1096.53 357.62 1096.09 358.35 1095.54 358.35C1095 358.35 1094.55 357.62 1094.55 356.72C1094.55 355.82 1095 355.091 1095.54 355.091C1096.09 355.091 1096.53 355.82 1096.53 356.72Z" fill="#440AE5"/>
<path d="M1392.59 462.075V487.358L1377.21 478.931L1369.49 449.448L1392.59 462.075Z" fill="#EDEAF9"/>
<path d="M1415.65 449.409L1407.97 478.931L1392.59 487.358V462.075L1415.65 449.409Z" fill="#CFC9F7"/>
<path d="M1369.49 449.448L1392.59 436.786L1415.65 449.409L1392.59 462.075L1369.49 449.448Z" fill="#5E19F4"/>
<path d="M1390.21 452.105C1390.21 452.105 1389.54 437.095 1381.08 427.369C1372.62 417.643 1361.94 403.901 1370.4 401.576C1378.86 399.25 1389.54 410.666 1393.33 422.718C1397.11 434.769 1392.73 452.105 1392.73 452.105H1390.21Z" fill="#BEBDF9"/>
<path d="M1391.62 452.358C1391.47 452.358 1391.35 452.245 1391.35 452.106C1391.35 452.066 1391.33 448.001 1390.74 442.718C1390.2 437.85 1389.06 430.922 1386.7 425.564C1382.17 415.305 1376.57 409.82 1376.51 409.765C1376.41 409.666 1376.41 409.506 1376.52 409.408C1376.62 409.31 1376.79 409.311 1376.89 409.411C1376.95 409.465 1382.62 415.014 1387.19 425.369C1389.58 430.785 1390.73 437.767 1391.27 442.671C1391.86 447.978 1391.89 452.063 1391.89 452.104C1391.89 452.244 1391.77 452.357 1391.62 452.358C1391.62 452.358 1391.62 452.358 1391.62 452.358Z" fill="#F4F4F4"/>
<path d="M1395.67 452.105C1395.67 452.105 1396.21 440.004 1403.03 432.163C1409.85 424.323 1418.47 413.244 1411.64 411.37C1404.82 409.495 1396.21 418.699 1393.16 428.414C1390.11 438.129 1393.64 452.105 1393.64 452.105H1395.67Z" fill="#FE617C"/>
<path d="M1394.53 452.358C1394.53 452.358 1394.53 452.358 1394.53 452.358C1394.39 452.358 1394.27 452.244 1394.27 452.104C1394.27 452.072 1394.29 448.775 1394.76 444.494C1395.2 440.538 1396.13 434.904 1398.06 430.532C1401.74 422.176 1406.32 417.696 1406.37 417.652C1406.47 417.552 1406.64 417.55 1406.75 417.649C1406.85 417.747 1406.85 417.907 1406.75 418.006C1406.7 418.05 1402.19 422.467 1398.55 430.727C1394.9 438.992 1394.8 451.976 1394.8 452.106C1394.8 452.245 1394.68 452.358 1394.53 452.358Z" fill="#F4F4F4"/>
<path d="M1185.6 373.671V390.347L1175.45 384.788L1170.36 365.342L1185.6 373.671Z" fill="#EDEAF9"/>
<path d="M1200.81 365.317L1195.74 384.788L1185.6 390.347V373.671L1200.81 365.317Z" fill="#CFC9F7"/>
<path d="M1170.36 365.342L1185.59 356.991L1200.81 365.317L1185.6 373.671L1170.36 365.342Z" fill="#5E19F4"/>
<path d="M1184.03 367.095C1184.03 367.095 1183.59 357.194 1178.01 350.78C1172.43 344.365 1165.38 335.301 1170.96 333.767C1176.54 332.233 1183.59 339.763 1186.08 347.712C1188.58 355.66 1185.69 367.095 1185.69 367.095H1184.03Z" fill="#5E19F4"/>
<path d="M1184.96 367.261C1184.86 367.261 1184.78 367.187 1184.78 367.096C1184.78 367.069 1184.76 364.388 1184.38 360.903C1184.02 357.692 1183.27 353.123 1181.71 349.589C1178.73 342.822 1175.03 339.204 1174.99 339.168C1174.93 339.103 1174.93 338.997 1175 338.933C1175.06 338.868 1175.18 338.869 1175.24 338.935C1175.28 338.971 1179.02 342.63 1182.03 349.46C1183.61 353.032 1184.37 357.637 1184.73 360.872C1185.12 364.373 1185.13 367.067 1185.13 367.094C1185.13 367.186 1185.05 367.261 1184.96 367.261H1184.96Z" fill="#F4F4F4"/>
<path d="M1187.63 367.095C1187.63 367.095 1187.98 359.113 1192.48 353.942C1196.98 348.771 1202.66 341.464 1198.16 340.227C1193.67 338.99 1187.98 345.061 1185.97 351.468C1183.96 357.877 1186.29 367.095 1186.29 367.095H1187.63Z" fill="#FE617C"/>
<path d="M1186.88 367.261H1186.88C1186.78 367.261 1186.7 367.186 1186.7 367.094C1186.7 367.072 1186.72 364.898 1187.03 362.075C1187.32 359.465 1187.93 355.749 1189.2 352.866C1191.63 347.354 1194.66 344.399 1194.69 344.37C1194.75 344.305 1194.86 344.303 1194.93 344.369C1195 344.432 1195 344.538 1194.94 344.604C1194.91 344.633 1191.93 347.546 1189.53 352.994C1187.12 358.446 1187.06 367.009 1187.05 367.096C1187.05 367.187 1186.98 367.261 1186.88 367.261Z" fill="#F4F4F4"/>
</svg>
