<svg width="1440" height="739" viewBox="0 0 1440 739" fill="none" xmlns="http://www.w3.org/2000/svg">
<rect width="1440" height="739" fill="white"/>
<g clip-path="url(#clip0_1_1059)">
<path d="M1155.74 378C1155.74 543.69 1054.91 533 889.222 533C852.392 533 783.64 671.36 751.05 659.22H751.04C749.84 658.78 748.65 658.32 747.46 657.85C747.12 657.73 746.78 657.6 746.45 657.46C744.58 656.74 742.72 655.99 740.87 655.22C737.06 653.64 733.29 651.98 729.57 650.26C727.64 649.36 725.72 648.45 723.82 647.51C706.18 638.86 689.51 628.52 674.02 616.71C666.22 610.77 658.71 604.44 651.54 597.78C645.6 592.26 639.89 586.51 634.43 580.53C632.71 578.66 631.03 576.77 629.37 574.86C628.69 574.09 628.03 573.32 627.38 572.55C622.67 567.04 618.17 561.35 613.87 555.5C612.48 553.61 611.11 551.7 609.76 549.77C600.59 536.67 592.44 522.79 585.42 508.27C566.4 468.87 555.74 424.68 555.74 378C555.74 212.31 690.05 78 855.74 78C1021.43 78 1155.74 212.31 1155.74 378Z" fill="#F2F2F2"/>
<path d="M1360.47 548.081C1360.28 545.912 1355.08 545.636 1355.02 543.722C1354.97 541.814 1360.11 541.423 1364.96 537.216C1365.84 536.457 1371.35 531.676 1370.31 528.883C1368.35 523.589 1344.56 530.094 1340.99 522.502C1340.2 520.836 1340.31 518.314 1338.04 513.046C1337.14 510.951 1336.49 509.891 1335.48 509.681C1334.03 509.383 1333.1 511.058 1330.09 513.783C1325.58 517.87 1324.5 516.974 1321.34 520.449C1319 523.028 1318.36 524.877 1317.14 524.711C1315.42 524.476 1315.58 520.622 1313.55 519.999C1311.48 519.363 1308.53 522.52 1306.82 525.127C1303.62 530.018 1303.88 534.388 1303.2 538.524C1302.46 543.019 1300.26 549.339 1293.52 556.536L1231.31 618.25C1244.49 605.784 1281.5 572.045 1296.08 559.902C1300.29 556.396 1304.74 552.929 1310.25 553.365C1315.55 553.784 1321.19 557.77 1329.93 559.649C1330.95 559.868 1333.79 560.443 1334.83 559.104C1335.69 557.998 1334.53 556.592 1335.31 555.547C1336.36 554.145 1339.31 555.537 1343.77 555.483C1346.92 555.446 1349.23 554.708 1351.21 554.074C1351.81 553.883 1360.72 550.969 1360.47 548.081Z" fill="#F2F2F2"/>
<path d="M1237.72 537.28C1236.6 536.747 1234.96 539.219 1234.01 538.696C1233.05 538.175 1234.34 535.538 1233.68 531.942C1233.56 531.293 1232.8 527.207 1231.13 526.91C1227.97 526.348 1224.3 539.898 1219.54 539.463C1218.5 539.367 1217.29 538.588 1214.05 538.181C1212.76 538.019 1212.05 538.03 1211.66 538.468C1211.1 539.091 1211.65 540.031 1212.12 542.295C1212.82 545.691 1212.07 545.961 1212.86 548.513C1213.45 550.408 1214.18 551.254 1213.74 551.804C1213.13 552.582 1211.29 551.391 1210.4 552.206C1209.49 553.038 1210.18 555.399 1210.97 556.989C1212.45 559.973 1214.67 561.106 1216.5 562.633C1218.49 564.293 1220.96 567.194 1222.55 572.582L1234.89 620.918C1232.57 610.855 1226.69 582.952 1224.94 572.295C1224.43 569.218 1224.02 566.033 1225.82 563.455C1227.55 560.974 1231.14 559.354 1234.58 555.61C1234.98 555.172 1236.09 553.941 1235.73 553.046C1235.43 552.306 1234.41 552.47 1234.12 551.783C1233.74 550.862 1235.27 549.819 1236.53 547.612C1237.42 546.055 1237.72 544.711 1237.99 543.555C1238.06 543.207 1239.21 537.989 1237.72 537.28Z" fill="#F2F2F2"/>
<path d="M1257.6 553.003L1259.82 546.671L1260.34 546.363C1262.78 544.941 1264.49 543.233 1265.44 541.284C1265.59 540.975 1265.73 540.657 1265.87 540.334C1266.41 539.053 1267.09 537.46 1268.77 536.034C1269.72 535.24 1272.12 533.511 1273.91 534.727C1274.39 535.048 1274.67 535.475 1274.83 535.896C1274.91 535.848 1274.99 535.8 1275.07 535.747C1276.11 535.121 1276.77 534.958 1277.41 534.8C1277.9 534.679 1278.41 534.555 1279.32 534.12C1279.71 533.93 1280.04 533.751 1280.31 533.6C1281.15 533.146 1282.19 532.632 1283.33 533.197C1284.53 533.844 1284.68 535.165 1284.79 536.04C1284.97 537.6 1284.9 538.627 1284.85 539.309C1284.83 539.557 1284.82 539.838 1284.83 539.933C1284.94 540.703 1288.41 541.703 1289.72 542.087C1292.65 542.94 1295.18 543.678 1295.33 545.855C1295.43 547.413 1294.14 548.785 1291.38 550.038C1290.51 550.428 1289.69 550.644 1288.99 550.785C1289.3 551.246 1289.49 551.822 1289.35 552.511C1289.02 554.144 1287.06 555.001 1283.54 555.066C1282.67 555.084 1281.49 555.105 1280.05 554.695C1279.38 554.502 1278.8 554.258 1278.31 554.04C1278.17 554.314 1277.96 554.584 1277.64 554.813C1276.7 555.488 1275.46 555.425 1273.94 554.57C1272.27 553.654 1271.01 552.645 1269.9 551.758C1268.93 550.985 1268.1 550.321 1267.34 550.016C1265.92 549.469 1264.34 550.057 1262.42 550.881L1257.6 553.003Z" fill="#F2F2F2"/>
<path d="M1277.93 518.728L1271.24 518.19L1270.81 517.758C1268.82 515.762 1266.73 514.537 1264.6 514.114C1264.27 514.047 1263.93 513.997 1263.58 513.946C1262.2 513.744 1260.49 513.494 1258.68 512.224C1257.67 511.514 1255.39 509.624 1256.11 507.59C1256.3 507.041 1256.64 506.665 1257.01 506.4C1256.94 506.338 1256.88 506.274 1256.81 506.206C1255.94 505.36 1255.61 504.76 1255.3 504.183C1255.06 503.739 1254.81 503.281 1254.16 502.511C1253.87 502.174 1253.61 501.904 1253.4 501.677C1252.75 500.989 1251.99 500.106 1252.24 498.86C1252.57 497.539 1253.81 497.055 1254.63 496.733C1256.09 496.16 1257.1 495.968 1257.77 495.84C1258.02 495.795 1258.29 495.742 1258.38 495.705C1259.1 495.398 1259.18 491.789 1259.22 490.431C1259.31 487.378 1259.38 484.737 1261.45 484.045C1262.93 483.549 1264.58 484.452 1266.49 486.808C1267.09 487.542 1267.51 488.281 1267.82 488.926C1268.19 488.514 1268.7 488.179 1269.4 488.14C1271.06 488.05 1272.39 489.723 1273.34 493.111C1273.58 493.953 1273.9 495.086 1273.87 496.58C1273.86 497.284 1273.77 497.903 1273.68 498.43C1273.98 498.5 1274.3 498.635 1274.6 498.886C1275.49 499.621 1275.74 500.842 1275.3 502.52C1274.84 504.372 1274.18 505.843 1273.6 507.142C1273.1 508.276 1272.67 509.253 1272.57 510.066C1272.4 511.578 1273.37 512.957 1274.65 514.604L1277.93 518.728Z" fill="#F2F2F2"/>
<path d="M1283.32 499.524L1285.54 493.191L1286.06 492.883C1288.5 491.461 1290.22 489.753 1291.16 487.804C1291.31 487.495 1291.45 487.177 1291.59 486.854C1292.13 485.573 1292.81 483.98 1294.49 482.554C1295.44 481.761 1297.84 480.032 1299.63 481.247C1300.11 481.569 1300.39 481.995 1300.55 482.416C1300.63 482.368 1300.71 482.32 1300.79 482.267C1301.83 481.642 1302.49 481.478 1303.13 481.321C1303.62 481.199 1304.13 481.075 1305.04 480.64C1305.44 480.45 1305.76 480.271 1306.04 480.12C1306.87 479.666 1307.91 479.152 1309.05 479.718C1310.25 480.365 1310.4 481.686 1310.51 482.56C1310.69 484.121 1310.62 485.148 1310.57 485.829C1310.56 486.077 1310.54 486.358 1310.55 486.453C1310.67 487.223 1314.13 488.224 1315.44 488.607C1318.37 489.46 1320.91 490.198 1321.05 492.375C1321.16 493.933 1319.86 495.305 1317.1 496.558C1316.24 496.948 1315.42 497.164 1314.71 497.305C1315.02 497.766 1315.21 498.342 1315.07 499.032C1314.74 500.664 1312.78 501.521 1309.26 501.586C1308.39 501.605 1307.21 501.625 1305.77 501.216C1305.1 501.022 1304.52 500.778 1304.03 500.561C1303.89 500.834 1303.68 501.105 1303.36 501.333C1302.42 502.008 1301.18 501.945 1299.67 501.09C1297.99 500.174 1296.74 499.166 1295.63 498.278C1294.66 497.505 1293.82 496.842 1293.06 496.536C1291.64 495.989 1290.06 496.577 1288.14 497.401L1283.32 499.524Z" fill="#F2F2F2"/>
<path d="M1233.37 619.119L1232.49 617.725L1230.94 617.187C1230.99 617.039 1231.06 616.687 1231.17 616.139C1231.81 613.136 1233.74 603.997 1238.26 590.316C1241.41 580.766 1245.2 571.208 1249.51 561.901C1253.82 552.58 1257.63 545.783 1260.69 540.32C1263 536.2 1265.27 532.311 1267.48 528.523C1273.38 518.401 1278.96 508.839 1283.66 497.547C1284.71 495.027 1286.9 489.779 1286.53 482.899C1286.31 478.908 1285.27 474.957 1283.43 471.158L1286.4 469.721C1288.43 473.919 1289.58 478.294 1289.82 482.725C1290.23 490.353 1287.85 496.071 1286.7 498.818C1281.92 510.309 1276.29 519.962 1270.32 530.182C1268.12 533.957 1265.86 537.829 1263.57 541.932C1260.53 547.344 1256.76 554.082 1252.5 563.283C1248.24 572.479 1244.5 581.921 1241.39 591.349C1236.92 604.858 1235.02 613.862 1234.4 616.82C1234.06 618.399 1233.99 618.73 1233.37 619.119Z" fill="#F2F2F2"/>
<path d="M1275.71 473.258C1275.59 473.199 1275.47 473.137 1275.35 473.068C1272.89 471.715 1271.27 469.074 1270.55 465.218C1270.21 463.406 1270.45 461.636 1270.91 458.105C1270.98 457.56 1271.38 454.812 1272.5 451.31C1273.23 449.022 1273.7 448.143 1274.5 447.555C1275.4 446.9 1276.46 446.652 1277.52 446.65C1277.61 446.348 1277.79 446.069 1278.05 445.83C1279.15 444.834 1280.42 445.644 1281.11 446.073C1281.46 446.297 1281.89 446.579 1282.4 446.791C1283.2 447.129 1283.73 447.098 1284.53 447.056C1285.3 447.015 1286.26 446.963 1287.49 447.273C1289.92 447.875 1291.47 449.393 1291.98 449.893C1294.68 452.509 1295.06 455.769 1295.51 459.544C1295.59 460.3 1295.83 463.016 1295.27 466.31C1294.86 468.686 1294.33 469.574 1293.82 470.178C1292.77 471.421 1291.52 471.818 1288.46 472.557C1285.27 473.333 1283.67 473.721 1282.41 473.818C1279.47 474.04 1277.63 474.179 1275.71 473.258Z" fill="#F2F2F2"/>
<path d="M1212.25 633.627H1051.94C1027.89 633.627 1008.33 614.065 1008.33 590.02V166.228C1008.33 142.183 1027.89 122.621 1051.94 122.621H1212.25C1236.3 122.621 1255.86 142.183 1255.86 166.228C1258.84 336.41 1263.93 526.986 1255.86 590.02C1255.86 614.065 1236.3 633.627 1212.25 633.627Z" fill="#3F3D56"/>
<path d="M1258.09 278.506C1257.08 278.506 1256.25 279.333 1256.25 280.35V339.383C1256.25 340.401 1257.08 341.228 1258.09 341.228C1259.11 341.228 1259.94 340.401 1259.94 339.383V280.35C1259.94 279.333 1259.11 278.506 1258.09 278.506Z" fill="#3F3D56"/>
<path d="M1240.79 171.549L1251.71 590.012C1251.71 610.941 1235.42 628.061 1214.82 629.389H1214.81C1214.51 629.408 1214.2 629.426 1213.89 629.435C1213.34 629.463 1212.8 629.472 1212.25 629.472C1212.25 629.472 1210.22 629.325 1206.51 629.048C1202.76 628.771 1197.31 628.356 1190.52 627.812C1188.48 627.655 1186.33 627.48 1184.06 627.295C1179.54 626.926 1174.58 626.521 1169.25 626.059C1167.13 625.884 1164.94 625.69 1162.7 625.497C1151.24 624.51 1138.41 623.357 1124.88 622.047C1122.59 621.835 1120.28 621.613 1117.96 621.383C1117.35 621.318 1012.48 594.956 1012.48 590.012V166.228C1012.48 144.432 1030.15 126.768 1051.94 126.768H1075.5C1079.26 126.768 1082.29 129.702 1082.61 133.456C1082.64 133.705 1082.67 133.954 1082.71 134.203C1083.4 137.975 1086.86 140.604 1090.69 140.604H1173.5C1177.33 140.604 1180.79 137.975 1181.48 134.203C1181.52 133.954 1181.55 133.705 1181.58 133.456C1181.9 129.702 1184.93 126.768 1188.69 126.768H1212.25C1234.04 126.768 1240.79 149.753 1240.79 171.549Z" fill="white"/>
<path d="M1007.41 234.231C1006.39 234.231 1005.56 235.058 1005.56 236.075V250.834C1005.56 251.851 1006.39 252.679 1007.41 252.679C1008.43 252.679 1009.25 251.851 1009.25 250.834V236.075C1009.25 235.058 1008.43 234.231 1007.41 234.231Z" fill="#3F3D56"/>
<path d="M1007.41 278.506C1006.39 278.506 1005.56 279.333 1005.56 280.35V308.944C1005.56 309.962 1006.39 310.789 1007.41 310.789C1008.43 310.789 1009.25 309.962 1009.25 308.944V280.35C1009.25 279.333 1008.43 278.506 1007.41 278.506Z" fill="#3F3D56"/>
<path d="M1007.41 319.091C1006.39 319.091 1005.56 319.918 1005.56 320.936V349.53C1005.56 350.547 1006.39 351.375 1007.41 351.375C1008.43 351.375 1009.25 350.547 1009.25 349.53V320.936C1009.25 319.918 1008.43 319.091 1007.41 319.091Z" fill="#3F3D56"/>
<path d="M1074.89 133.229H1039.54C1039.37 133.229 1039.23 133.368 1039.23 133.539V137.53C1039.23 137.702 1039.37 137.841 1039.54 137.841H1074.89C1075.07 137.841 1075.2 137.702 1075.2 137.53V133.539C1075.2 133.368 1075.07 133.229 1074.89 133.229Z" fill="#E6E6E6"/>
<path d="M1194.52 137.841C1196.56 137.841 1198.21 136.189 1198.21 134.151C1198.21 132.113 1196.56 130.461 1194.52 130.461C1192.48 130.461 1190.83 132.113 1190.83 134.151C1190.83 136.189 1192.48 137.841 1194.52 137.841Z" fill="#E6E6E6"/>
<path d="M1204.66 137.841C1206.7 137.841 1208.35 136.189 1208.35 134.151C1208.35 132.113 1206.7 130.461 1204.66 130.461C1202.63 130.461 1200.97 132.113 1200.97 134.151C1200.97 136.189 1202.63 137.841 1204.66 137.841Z" fill="#E6E6E6"/>
<path d="M1214.81 137.841C1216.85 137.841 1218.5 136.189 1218.5 134.151C1218.5 132.113 1216.85 130.461 1214.81 130.461C1212.77 130.461 1211.12 132.113 1211.12 134.151C1211.12 136.189 1212.77 137.841 1214.81 137.841Z" fill="#E6E6E6"/>
<path d="M1128.22 345.213C1157.22 345.213 1180.72 321.709 1180.72 292.714C1180.72 263.72 1157.22 240.215 1128.22 240.215C1099.23 240.215 1075.72 263.72 1075.72 292.714C1075.72 321.709 1099.23 345.213 1128.22 345.213Z" fill="#6C63FF"/>
<path d="M1131.37 490.543H897.653C888.245 490.543 880.59 482.888 880.59 473.48V296.752C880.59 287.344 888.245 279.689 897.653 279.689H1131.37C1140.78 279.689 1148.43 287.344 1148.43 296.752V473.48C1148.43 482.888 1140.78 490.543 1131.37 490.543Z" fill="white"/>
<path d="M1131.37 490.543H897.653C888.245 490.543 880.59 482.888 880.59 473.48V296.752C880.59 287.344 888.245 279.689 897.653 279.689H1131.37C1140.78 279.689 1148.43 287.344 1148.43 296.752V473.48C1148.43 482.888 1140.78 490.543 1131.37 490.543ZM897.653 282.538C889.816 282.538 883.44 288.915 883.44 296.752V473.48C883.44 481.317 889.816 487.694 897.653 487.694H1131.37C1139.21 487.694 1145.58 481.317 1145.58 473.48V296.752C1145.58 288.915 1139.21 282.538 1131.37 282.538H897.653Z" fill="#3F3D56"/>
<path d="M1105.69 301.059C1108.05 301.059 1109.97 299.146 1109.97 296.785C1109.97 294.425 1108.05 292.511 1105.69 292.511C1103.33 292.511 1101.42 294.425 1101.42 296.785C1101.42 299.146 1103.33 301.059 1105.69 301.059Z" fill="#3F3D56"/>
<path d="M1117.09 301.059C1119.45 301.059 1121.36 299.146 1121.36 296.785C1121.36 294.425 1119.45 292.511 1117.09 292.511C1114.73 292.511 1112.81 294.425 1112.81 296.785C1112.81 299.146 1114.73 301.059 1117.09 301.059Z" fill="#3F3D56"/>
<path d="M1128.49 301.059C1130.85 301.059 1132.76 299.146 1132.76 296.785C1132.76 294.425 1130.85 292.511 1128.49 292.511C1126.13 292.511 1124.21 294.425 1124.21 296.785C1124.21 299.146 1126.13 301.059 1128.49 301.059Z" fill="#3F3D56"/>
<path d="M904.81 365.883C903.632 365.883 902.673 366.841 902.673 368.02C902.673 368.594 902.895 369.126 903.298 369.518C903.704 369.934 904.236 370.157 904.81 370.157H1125.64C1126.82 370.157 1127.77 369.198 1127.77 368.02C1127.77 367.445 1127.55 366.914 1127.15 366.521C1126.74 366.105 1126.21 365.883 1125.64 365.883H904.81Z" fill="#E6E6E6"/>
<path d="M1085.75 365.17V370.869H904.81C904.026 370.869 903.314 370.556 902.801 370.029C902.274 369.516 901.961 368.803 901.961 368.02C901.961 366.453 903.243 365.171 904.81 365.171L1085.75 365.17Z" fill="#6C63FF"/>
<path d="M1122.08 354.485H1093.58C1090.44 354.485 1087.88 351.93 1087.88 348.787C1087.88 345.644 1090.44 343.088 1093.58 343.088H1122.08C1125.22 343.088 1127.77 345.644 1127.77 348.787C1127.77 351.93 1125.22 354.485 1122.08 354.485Z" fill="#E6E6E6"/>
<path d="M935.441 324.567H906.947C903.805 324.567 901.248 322.011 901.248 318.868C901.248 315.725 903.805 313.169 906.947 313.169H935.441C938.583 313.169 941.14 315.725 941.14 318.868C941.14 322.011 938.583 324.567 935.441 324.567Z" fill="#E6E6E6"/>
<path d="M904.81 429.994C903.632 429.994 902.673 430.952 902.673 432.131C902.673 432.705 902.895 433.237 903.298 433.629C903.704 434.045 904.236 434.268 904.81 434.268H1125.64C1126.82 434.268 1127.77 433.309 1127.77 432.131C1127.77 431.556 1127.55 431.025 1127.15 430.632C1126.74 430.216 1126.21 429.994 1125.64 429.994H904.81Z" fill="#E6E6E6"/>
<path d="M976.045 429.281V434.98H904.81C904.026 434.98 903.314 434.667 902.801 434.14C902.274 433.627 901.961 432.914 901.961 432.131C901.961 430.564 903.243 429.282 904.81 429.282L976.045 429.281Z" fill="#6C63FF"/>
<path d="M1122.08 418.596H1093.58C1090.44 418.596 1087.88 416.041 1087.88 412.898C1087.88 409.755 1090.44 407.199 1093.58 407.199H1122.08C1125.22 407.199 1127.77 409.755 1127.77 412.898C1127.77 416.041 1125.22 418.596 1122.08 418.596Z" fill="#E6E6E6"/>
<path d="M1231.41 474.911H1285.09V395.58H1231.41V474.911Z" fill="#2F2E41"/>
<path d="M1275.88 530.604L1274.28 573.074L1221.39 569.068L1227.8 527.398L1275.88 530.604Z" fill="#A0616A"/>
<path d="M1217.38 553.842L1293.51 556.246L1312.51 583.133L1303.69 630.412C1303.69 630.412 1265.46 619.551 1202.16 632.373L1206.16 588.299L1218.39 576.078L1217.38 553.842Z" fill="#2F2E41"/>
<path d="M1299.92 585.895L1320.75 594.71C1320.75 594.71 1360.02 612.339 1362.42 636.379C1364.83 660.419 1336.22 750.168 1336.22 750.168L1304.83 752.045C1304.83 752.045 1314.16 758.537 1314.16 714C1314.16 683 1327.97 653.207 1327.97 653.207C1327.97 653.207 1307.93 616.346 1256.65 625.161C1256.65 625.161 1200.61 623.344 1174.16 657C1174.16 657 1188.16 687 1189.16 705L1193.3 743.963L1166.86 746.367C1166.86 746.367 1128.44 643.591 1145.26 622.757C1162.09 601.922 1198.15 589.902 1198.15 589.902L1299.92 585.895Z" fill="#2F2E41"/>
<path d="M1273.04 450.722L1271.16 428H1246.16L1240.62 452.073L1273.04 450.722Z" fill="#A0616A"/>
<path opacity="0.1" d="M1273.04 450.722L1271.16 428H1246.16L1240.62 452.073L1273.04 450.722Z" fill="black"/>
<path d="M1282.05 407.902C1282.05 422.995 1269.82 435.23 1254.73 435.23C1239.63 435.23 1227.4 422.995 1227.4 407.902C1227.4 392.81 1239.63 380.575 1254.73 380.575C1269.82 380.575 1282.05 392.81 1282.05 407.902Z" fill="#A0616A"/>
<path d="M1240.62 447.265H1272.67L1276.68 456.08L1280.69 545.028C1280.69 545.028 1250.24 537.816 1223.79 538.617L1230.2 457.683L1238.22 452.875L1240.62 447.265Z" fill="#6C63FF"/>
<path d="M1271.07 628.366C1271.07 628.366 1287.1 592.306 1293.51 591.505C1299.92 590.703 1314.38 591.505 1314.38 591.505L1311.14 585.895C1311.14 585.895 1310.34 574.677 1302.32 574.677C1294.31 574.677 1297.52 459.285 1297.52 459.285L1275.07 452.535C1275.07 452.535 1262.26 492.14 1262.26 529.802C1262.26 567.465 1260.65 609.134 1260.65 609.134L1271.07 628.366Z" fill="#2F2E41"/>
<path d="M1239.14 450.722L1210.97 458.484L1214.18 569.068L1195.75 591.505C1195.75 591.505 1219.79 591.505 1225.4 611.538C1225.4 611.538 1232.05 622.492 1239.14 621.422C1246.23 620.353 1241.42 597.915 1241.42 597.915L1234.21 569.869L1235.01 522.59L1239.14 450.722Z" fill="#2F2E41"/>
<path d="M1247.83 379.152C1247.83 379.152 1247.83 367.934 1258.25 370.338C1268.67 372.742 1271.87 376.748 1271.87 376.748C1271.87 376.748 1275.88 383.159 1282.29 383.96C1288.7 384.762 1294.31 403.192 1293.51 407.199C1292.71 411.206 1288.7 421.623 1294.31 426.431C1299.92 431.239 1307.93 438.451 1305.53 445.663C1303.13 452.875 1295.91 471.305 1295.91 471.305C1295.91 471.305 1316.03 474.246 1314.38 486.799C1314.38 486.799 1304.73 479.319 1291.91 479.319C1279.09 479.319 1280.69 456.058 1280.69 456.058C1280.69 456.058 1279.89 441.656 1277.48 437.649C1275.08 433.643 1278.28 411.206 1266.26 399.186C1254.24 387.166 1247.83 379.152 1247.83 379.152Z" fill="#2F2E41"/>
<path d="M1251.04 376.748C1251.04 376.748 1235.81 379.954 1230.2 395.179C1224.59 410.404 1227.43 413.237 1227.43 413.237C1227.43 413.237 1226.19 422.405 1219.38 425.62C1212.57 428.835 1218.18 442.457 1218.18 442.457C1218.18 442.457 1216.58 456.08 1194.95 460.888C1173.31 465.696 1178.12 493.743 1178.12 493.743C1178.12 493.743 1195.75 468.901 1218.18 468.1C1240.62 467.299 1236.61 442.457 1236.61 442.457L1234.21 416.014C1234.21 416.014 1239.02 385.563 1253.44 381.556C1267.87 377.55 1251.04 376.748 1251.04 376.748Z" fill="#2F2E41"/>
<path d="M1272.78 630.307C1272.14 637.763 1275.47 644.133 1280.22 644.537C1284.96 644.94 1289.32 639.224 1289.96 631.766C1290.25 628.79 1289.83 625.788 1288.72 623.009L1291.02 591.387L1276.15 590.628L1275.47 621.882C1273.91 624.435 1272.99 627.324 1272.78 630.307Z" fill="#A0616A"/>
<path d="M1215.08 631.109C1214.45 638.564 1217.78 644.934 1222.52 645.338C1227.27 645.741 1231.63 640.025 1232.26 632.567C1232.55 629.592 1232.13 626.589 1231.03 623.81L1233.32 592.189L1218.46 591.429L1217.78 622.683C1216.22 625.236 1215.29 628.125 1215.08 631.109Z" fill="#A0616A"/>
<path d="M1291.51 459.686C1291.51 459.686 1311.54 454.077 1315.55 466.898C1319.55 479.719 1307.13 550.236 1307.13 550.236L1295.51 623.959L1270.67 619.151L1286.7 520.587L1291.51 459.686Z" fill="#2F2E41"/>
<path d="M1231.17 458.637C1231.17 458.637 1211.76 451.16 1206.56 463.546C1201.36 475.931 1207.06 547.306 1207.06 547.306L1211.67 621.797L1236.85 619.356L1230.2 519.72L1231.17 458.637Z" fill="#2F2E41"/>
</g>
<defs>
<clipPath id="clip0_1_1059">
<rect width="830.444" height="581.975" fill="white" transform="translate(540 78)"/>
</clipPath>
</defs>
</svg>