<svg width="558" height="413" viewBox="0 0 558 413" fill="none" xmlns="http://www.w3.org/2000/svg">
<mask id="mask0_0_1" style="mask-type:luminance" maskUnits="userSpaceOnUse" x="91" y="96" width="390" height="292">
<path d="M481 96H91V387.14H481V96Z" fill="white"/>
</mask>
<g mask="url(#mask0_0_1)">
<path d="M452 230.245C452.158 299.156 391.483 294.888 291.793 295.179C269.634 295.245 228.401 352.91 208.781 347.919H208.776C208.053 347.738 207.336 347.549 206.619 347.355C206.415 347.307 206.21 347.253 206.012 347.195C204.886 346.898 203.766 346.59 202.652 346.273C200.359 345.623 198.089 344.939 195.849 344.23C194.687 343.859 193.531 343.484 192.387 343.096C181.765 339.53 171.725 335.26 162.394 330.374C157.695 327.917 153.171 325.298 148.851 322.541C145.271 320.256 141.83 317.875 138.54 315.397C137.503 314.622 136.49 313.839 135.49 313.047C135.08 312.728 134.682 312.41 134.29 312.09C131.451 309.807 128.738 307.448 126.145 305.023C125.307 304.24 124.481 303.447 123.667 302.647C118.137 297.215 113.22 291.457 108.983 285.429C97.5011 269.077 91.045 250.716 91.0002 231.302C90.8413 162.39 171.522 106.294 271.212 106.001C370.902 105.71 451.84 161.333 452 230.245Z" fill="#99EDD1"/>
<path d="M421.527 383.127L417.428 383.126L415.479 367.319L421.528 367.32L421.527 383.127Z" fill="#FFB6B6"/>
<path d="M407.485 383.034C407.358 383.249 407.29 383.942 407.29 384.192C407.29 384.96 407.913 385.583 408.681 385.583H421.374C421.897 385.583 422.322 385.159 422.322 384.634V384.106C422.322 384.106 422.95 382.518 421.657 380.56C421.657 380.56 420.051 382.093 417.65 379.692L416.942 378.41L411.818 382.158L408.977 382.508C408.356 382.584 407.805 382.495 407.485 383.034Z" fill="#2F2E41"/>
<path d="M437.052 383.126H432.954L431.005 367.319H437.053L437.052 383.126Z" fill="#FFB6B6"/>
<path d="M423.012 383.034C422.884 383.249 422.817 383.942 422.817 384.192C422.817 384.96 423.439 385.583 424.207 385.583H436.899C437.424 385.583 437.848 385.158 437.848 384.634V384.106C437.848 384.106 438.476 382.518 437.183 380.56C437.183 380.56 435.577 382.093 433.176 379.692L432.468 378.41L427.343 382.158L424.504 382.507C423.881 382.584 423.331 382.495 423.012 383.034Z" fill="#2F2E41"/>
<path d="M413.628 288.257L413.537 376.043H424.273L429.344 311.128L429.489 376.043L439.411 375.927L447.093 301.252C447.093 301.252 448.126 293.454 444.869 289.47C441.61 285.485 413.628 288.257 413.628 288.257Z" fill="#2F2E41"/>
<path d="M413.389 298.25C413.608 300.965 412.384 303.28 410.656 303.418C408.928 303.558 407.35 301.469 407.131 298.754C407.035 297.565 407.217 296.453 407.595 295.567L406.812 284.049L412.225 283.797L412.422 295.179C412.937 295.992 413.293 297.061 413.389 298.25Z" fill="#FFB6B6"/>
<path d="M353.589 165.005V121.297C353.589 107.326 342.263 96 328.292 96H235.689C221.718 95.9998 210.392 107.325 210.392 121.296V361.082C210.392 375.053 221.717 386.379 235.688 386.379H328.29C342.261 386.379 353.588 375.053 353.588 361.082V196.118C354.468 196.118 355.181 195.404 355.181 194.524L355.182 166.598C355.182 165.718 354.469 165.005 353.589 165.005Z" fill="#3F3D56"/>
<path d="M348.838 119.193V362.367C334.054 361.458 319.418 378.41 329.659 381.55H235.156C224.559 381.552 215.967 372.963 215.963 362.367V119.193C215.967 108.597 224.559 100.009 235.155 100.01H242.124C240.226 104.678 255.544 106.196 256.718 106.198H305.118C310.157 106.192 322.312 101.098 321.87 100.01H329.656C340.247 100.012 348.835 108.597 348.838 119.19V119.193Z" fill="white"/>
<path d="M324.975 289.083H240.998C240.14 289.082 239.443 288.386 239.442 287.527V266.697C239.444 265.839 240.14 265.143 240.998 265.142H324.975C325.834 265.143 326.529 265.839 326.53 266.697V287.528C326.528 288.386 325.833 289.082 324.975 289.083ZM240.998 265.764C240.483 265.765 240.065 266.182 240.065 266.697V287.528C240.065 288.043 240.483 288.461 240.998 288.462H324.975C325.49 288.461 325.908 288.043 325.908 287.528V266.697C325.908 266.182 325.49 265.765 324.975 265.764H240.998Z" fill="#E6E6E6"/>
<path d="M324.975 329.229H240.998C240.14 329.228 239.443 328.532 239.442 327.674V306.843C239.444 305.984 240.14 305.289 240.998 305.288H324.975C325.834 305.289 326.529 305.984 326.53 306.843V327.675C326.529 328.533 325.834 329.228 324.975 329.229ZM240.998 305.91C240.483 305.91 240.065 306.328 240.065 306.843V327.675C240.065 328.19 240.483 328.607 240.998 328.607H324.975C325.49 328.607 325.908 328.19 325.908 327.675V306.843C325.908 306.328 325.49 305.91 324.975 305.91H240.998Z" fill="#E6E6E6"/>
<path d="M480.478 387.14H178.728C178.291 387.14 177.937 386.948 177.937 386.712C177.937 386.477 178.291 386.286 178.728 386.286H480.478C480.915 386.286 481.269 386.477 481.269 386.712C481.269 386.948 480.915 387.14 480.478 387.14Z" fill="#E6E6E6"/>
<path d="M245.449 203.206C245.543 203.101 245.638 203.002 245.735 202.9C248.105 200.408 249.35 198.93 252.242 198.93C252.779 198.93 255.145 198.955 255.635 199.004C257.666 199.202 259.29 199.814 260.508 200.839C262.305 202.353 263.207 204.756 263.211 208.047C263.211 208.229 263.222 208.569 263.239 209.019C263.346 211.646 265.148 214.435 265.498 215.383C266.066 216.925 265.148 221.868 264.412 222.875C263.985 223.464 263.899 221.988 262.586 222.265C262.344 222.317 261.336 224.267 261.063 224.305C259.654 224.492 258.234 224.575 256.814 224.556C256.628 224.556 256.441 224.556 256.246 224.552H256.244C255.571 224.548 254.852 224.529 254.089 224.5C252.064 224.458 250.047 224.233 248.061 223.827H248.059C247.797 223.768 247.54 223.701 247.288 223.63L247.242 223.617L247.221 223.576C246.862 222.845 246.657 222.048 246.62 221.235C246.235 221.753 245.952 222.339 245.786 222.962L245.754 223.082L245.118 221.022C244.232 220.641 243.986 222.038 243.415 221.261C242.868 220.451 242.54 219.512 242.463 218.538C242.177 215.892 243.265 205.641 245.449 203.206Z" fill="#2F2E41"/>
<path d="M244.741 288.317H257.302L259.408 277.903L260.091 288.317H272.577C272.582 280.599 269.4 261.583 269.781 261.423C270.162 261.264 269.587 260.757 269.587 260.757L267.551 253.765L267.36 253.106H252.821C251.985 253.893 251.213 254.745 250.513 255.655C250.277 255.957 250.029 256.284 249.776 256.635C249.599 256.885 249.418 257.147 249.236 257.422C247.615 259.833 246.404 262.496 245.651 265.303V265.304C245.523 265.784 245.41 266.275 245.312 266.777V266.78C245.224 267.226 245.146 267.679 245.085 268.141C245.039 268.48 244.999 268.821 244.97 269.166C244.795 271.082 244.857 273.012 245.152 274.913L244.741 288.317Z" fill="#2F2E41"/>
<path d="M255.496 217.472C259.544 217.472 262.828 214.188 262.828 210.14C262.828 206.09 259.544 202.807 255.496 202.807C251.446 202.807 248.163 206.09 248.163 210.14C248.163 214.188 251.446 217.472 255.496 217.472Z" fill="#FFB6B6"/>
<path d="M250.678 201.026H257.856C258.724 200.824 259.619 200.761 260.507 200.839C261.598 200.923 262.641 201.325 263.504 201.998C264.789 203.029 265.497 204.673 265.497 206.626C265.493 207.251 265.622 208.072 265.497 208.684L264.624 207.246L264.394 208.684C263.732 208.854 263.903 208.888 263.238 209.019C263.078 209.051 262.917 209.083 262.756 209.112C261.883 209.273 261.053 209.581 261.053 209.581L260.062 209.468C259.444 208.899 259.34 207.495 259.009 206.722C258.945 206.947 258.865 207.344 258.787 207.775C258.588 208.882 257.621 209.693 256.495 209.694H256.476C253.722 209.692 253.723 207.56 251.05 206.9C250.874 206.86 252.671 219.323 252.497 219.277L246.99 215.737L247.701 204.002C247.703 202.359 249.034 201.028 250.678 201.026Z" fill="#2F2E41"/>
<path d="M243.153 200.376C241.83 203.078 242.792 203.685 245.494 205.007C248.196 206.329 251.617 207.865 252.938 205.163C254.26 202.46 251.945 200.253 249.243 198.93C249.82 196.691 245.955 195.664 244.08 199.035C244.724 199.573 243.241 201.037 243.56 201.814C242.901 201.282 244.042 200.264 243.203 200.367C243.186 200.37 243.17 200.372 243.153 200.376Z" fill="#2F2E41"/>
<path d="M324.975 329.229H240.998C240.14 329.228 239.443 328.532 239.442 327.674V306.843C239.444 305.984 240.14 305.289 240.998 305.288H324.975C325.834 305.289 326.529 305.984 326.53 306.843V327.675C326.529 328.533 325.834 329.228 324.975 329.229ZM240.998 305.91C240.483 305.91 240.065 306.328 240.065 306.843V327.675C240.065 328.19 240.483 328.607 240.998 328.607H324.975C325.49 328.607 325.908 328.19 325.908 327.675V306.843C325.908 306.328 325.49 305.91 324.975 305.91H240.998Z" fill="#E6E6E6"/>
<path d="M257.306 312.903C256.705 312.903 256.218 313.391 256.218 313.992C256.218 314.593 256.705 315.081 257.306 315.081H308.624C309.226 315.104 309.732 314.636 309.755 314.034C309.777 313.434 309.309 312.928 308.708 312.904C308.692 312.904 308.676 312.903 308.661 312.904L257.306 312.903Z" fill="#E6E6E6"/>
<path d="M257.306 319.436C256.705 319.436 256.218 319.923 256.218 320.524C256.218 321.125 256.705 321.612 257.306 321.612H308.624C309.226 321.636 309.732 321.167 309.755 320.566C309.777 319.965 309.309 319.459 308.708 319.436C308.692 319.436 308.676 319.436 308.661 319.436H257.306Z" fill="#E6E6E6"/>
<path d="M324.975 166.691H240.998C240.14 166.69 239.443 165.995 239.442 165.136V144.305C239.444 143.447 240.14 142.752 240.998 142.75H324.975C325.834 142.752 326.529 143.447 326.53 144.305V165.137C326.529 165.995 325.834 166.69 324.975 166.691ZM240.998 143.372C240.483 143.373 240.065 143.79 240.065 144.305V165.137C240.065 165.652 240.483 166.069 240.998 166.07H324.975C325.49 166.069 325.908 165.652 325.908 165.137V144.305C325.908 143.79 325.49 143.373 324.975 143.372H240.998Z" fill="#E6E6E6"/>
<path d="M266.968 150.366C266.366 150.366 265.879 150.854 265.879 151.455C265.879 152.056 266.366 152.544 266.968 152.544H318.287C318.888 152.566 319.394 152.098 319.416 151.497C319.44 150.896 318.971 150.39 318.371 150.367C318.354 150.367 318.338 150.367 318.323 150.367L266.968 150.366Z" fill="#E6E6E6"/>
<path d="M266.968 156.898C266.366 156.898 265.879 157.385 265.879 157.986C265.879 158.587 266.366 159.075 266.968 159.075H318.287C318.888 159.098 319.394 158.629 319.416 158.029C319.44 157.428 318.971 156.922 318.371 156.899C318.354 156.898 318.338 156.898 318.323 156.898L266.968 156.898Z" fill="#E6E6E6"/>
<path d="M251.883 161.252C255.49 161.252 258.415 158.328 258.415 154.721C258.415 151.113 255.49 148.189 251.883 148.189C248.276 148.189 245.352 151.113 245.352 154.721C245.352 158.328 248.276 161.252 251.883 161.252Z" fill="#E6E6E6"/>
<path d="M437.156 232.444L425.634 231.652L422.186 237.086L413.884 240.461V267.239C414.747 269.831 415.194 272.545 415.207 275.277C415.175 280.612 413.804 286.897 414.278 288.273C418.92 301.733 444.446 288.273 444.446 288.273L443.982 273.885L444.612 241.369L439.396 237.209L437.156 232.444Z" fill="#6C63FF"/>
<path d="M415.764 239.749L415.629 239.771C413.063 240.206 410.877 241.878 409.786 244.24C408.383 247.275 406.425 291.255 406.425 291.255C406.425 291.255 411.659 290.858 414.263 292.103C414.263 292.103 415.439 285.626 414.735 284.5C414.031 283.373 415.349 272.109 415.349 272.109C418.214 264.621 417.084 252.297 415.764 239.749Z" fill="#6C63FF"/>
<path d="M452.503 297.712C452.494 300.435 451.08 302.639 449.346 302.633C447.612 302.627 446.216 300.413 446.225 297.689C446.229 296.496 446.502 295.403 446.954 294.553L447.14 283.01L452.554 283.212L451.796 294.57C452.242 295.424 452.507 296.519 452.503 297.712Z" fill="#FFB6B6"/>
<path d="M442.218 240.544L442.354 240.559C444.938 240.865 447.205 242.424 448.413 244.727C449.966 247.687 454.016 285.366 453.887 286.053C453.757 286.741 454.142 291.515 454.142 291.515C454.142 291.515 448.894 291.384 446.356 292.758L444.262 272.842L442.218 240.544Z" fill="#6C63FF"/>
<path d="M209.646 170.359C208.972 170.359 208.424 170.907 208.424 171.581V181.357C208.424 182.031 208.972 182.579 209.646 182.579C210.32 182.579 210.868 182.031 210.868 181.357V171.581C210.868 170.907 210.32 170.359 209.646 170.359Z" fill="#3F3D56"/>
<path d="M209.646 199.687C208.972 199.687 208.424 200.234 208.424 200.909V219.85C208.424 220.523 208.972 221.071 209.646 221.071C210.32 221.071 210.868 220.523 210.868 219.85V200.909C210.868 200.234 210.32 199.687 209.646 199.687Z" fill="#3F3D56"/>
<path d="M209.646 226.571C208.972 226.571 208.424 227.119 208.424 227.793V246.734C208.424 247.408 208.972 247.956 209.646 247.956C210.32 247.956 210.868 247.408 210.868 246.734V227.793C210.868 227.119 210.32 226.571 209.646 226.571Z" fill="#3F3D56"/>
<path d="M293.192 209.093C295.448 209.093 297.278 207.263 297.278 205.007C297.278 202.75 295.448 200.921 293.192 200.921C290.935 200.921 289.106 202.75 289.106 205.007C289.106 207.263 290.935 209.093 293.192 209.093Z" fill="#E6E6E6"/>
<path d="M311.226 204.341C311.063 204.059 310.769 203.888 310.442 203.888C310.115 203.888 309.821 204.059 309.658 204.341L307.901 208.276C307.203 203.694 304.616 199.725 301.371 195.97C301.13 195.557 300.706 195.311 300.228 195.311C299.749 195.311 299.324 195.557 299.083 195.97C297.549 202.838 293.343 209.466 287.791 215.971C287.308 217.178 288.196 218.49 289.495 218.49H315.741C317.4 218.49 318.576 216.87 318.062 215.293C317.093 210.854 315.069 207.051 311.226 204.341Z" fill="#6C63FF"/>
<path d="M303.243 185.396C290.402 185.396 279.954 195.843 279.954 208.685C279.954 213.89 281.67 218.702 284.571 222.584C288.82 228.28 295.607 231.973 303.243 231.973C311.092 231.973 318.045 228.071 322.266 222.106C324.95 218.31 326.532 213.677 326.532 208.685C326.532 195.843 316.084 185.396 303.243 185.396ZM321.813 221.321C317.763 227.254 310.948 231.156 303.243 231.156C295.745 231.156 289.098 227.466 285.016 221.812C282.344 218.118 280.771 213.579 280.771 208.685C280.771 196.293 290.851 186.213 303.243 186.213C315.631 186.213 325.715 196.293 325.715 208.685C325.715 213.366 324.276 217.718 321.813 221.321Z" fill="#E6E6E6"/>
<path d="M279.875 216.483C280.942 214.897 282.625 214.161 283.635 214.839C284.644 215.518 284.598 217.354 283.531 218.941C283.064 219.636 282.479 220.167 281.884 220.488L277.28 227.153L274.198 224.927L279.064 218.592C279.137 217.92 279.408 217.178 279.875 216.483Z" fill="#FFB6B6"/>
<path d="M278.936 225.388L266.336 239.859L265.176 241.191L259.778 239.238L251.451 236.219H251.447L245.22 233.963C245.286 233.412 245.376 232.865 245.494 232.321C245.621 231.725 245.776 231.132 245.964 230.547C246.528 228.782 247.357 227.104 248.428 225.575C248.828 225.739 249.228 225.935 249.633 226.159L258.916 230.18L264.08 232.415L266.192 230.356L275.291 221.481L276.141 222.393L276.146 222.396L278.682 225.118L278.687 225.122L278.936 225.388Z" fill="#6C63FF"/>
<path d="M269.445 256.329L248.346 255.417C248.66 254.768 248.183 254.094 248.342 253.526C248.485 253.031 249.285 252.635 249.31 252.173C249.457 249.673 249.077 245.604 246.209 241.236C245.617 240.329 245.326 239.144 245.191 237.824C245.057 236.525 245.069 235.234 245.22 233.963C245.286 233.411 245.375 232.865 245.494 232.321C245.62 231.725 245.776 231.132 245.964 230.547C246.527 228.782 247.357 227.103 248.427 225.575C248.497 225.469 248.571 225.367 248.644 225.265C249.041 224.717 249.465 224.19 249.923 223.683C250.45 223.099 251.018 222.544 251.618 222.021L252.53 221.233L261.004 220.08L265.437 228.86L266.192 230.356L267.01 231.974C266.54 234.176 266.331 236.132 266.298 237.918C266.287 238.589 266.298 239.234 266.336 239.859C266.388 240.835 266.486 241.763 266.626 242.654C266.961 244.839 267.496 246.826 267.998 248.836C268.264 249.886 268.517 250.94 268.726 252.034C268.823 252.55 269.857 253.563 270.004 254.029C270.205 254.654 269.143 255.802 269.445 256.329Z" fill="#6C63FF"/>
<path d="M285.377 238.717C287.143 237.985 288.952 238.302 289.418 239.426C289.884 240.549 288.83 242.054 287.065 242.787C286.292 243.107 285.511 243.227 284.838 243.166L277.317 246.176L275.979 242.617L283.535 240.027C283.967 239.507 284.604 239.038 285.377 238.717Z" fill="#FFB6B6"/>
<path d="M245.964 230.548C245.776 231.132 245.621 231.724 245.494 232.321L259.468 251.184L267.999 248.835L279.676 245.62L279.615 245.256L279.002 241.579L278.798 240.35L266.626 242.653L263.411 243.262L257.973 234.899H257.968L254.826 230.066C253.34 227.185 251.08 225.526 248.645 225.265L245.964 230.548Z" fill="#6C63FF"/>
<path d="M324.975 290.929C326.338 290.929 327.443 289.824 327.443 288.461C327.443 287.098 326.338 285.993 324.975 285.993C323.612 285.993 322.507 287.098 322.507 288.461C322.507 289.824 323.612 290.929 324.975 290.929Z" fill="#E6E6E6"/>
<path d="M431.796 229.988C436.759 229.988 440.783 225.964 440.783 221.001C440.783 216.038 436.759 212.015 431.796 212.015C426.833 212.015 422.81 216.038 422.81 221.001C422.81 225.964 426.833 229.988 431.796 229.988Z" fill="#FFB6B6"/>
<path d="M438.049 228.693C439.299 227.715 439.421 225.851 440.487 224.675C442.27 222.711 443.108 220.596 442.174 218.269C441.348 216.209 441.524 213.677 439.744 212.352C440.618 212.036 437.594 212.352 438.527 211.114C439.46 209.875 437.694 210.364 437.811 209.857C437.928 209.35 436.338 208.422 435.306 209.433C435.15 209.585 435.014 209.756 434.901 209.942C433.85 208.367 430.976 207.751 429.366 208.751C427.786 209.731 428.792 211.121 427.094 210.83C426.296 210.692 424.572 210.581 424.026 211.18C423.514 211.827 425.131 213.147 424.309 213.069C423.513 212.918 421.474 215.53 421.474 215.53L420.718 214.603C419.516 215.386 419.911 217.43 421.12 218.199C421.575 218.488 422.627 219.209 423.156 219.274C423.583 219.328 423.939 217.277 424.381 217.232C424.845 217.184 424.85 218.572 425.294 218.463C426.971 218.052 428.703 217.909 430.425 218.039C433.054 218.411 434.887 221.553 433.912 224.026C434.923 223.034 436.792 223.857 437.315 225.172C437.839 226.489 436.403 226.998 436.015 228.361" fill="#2F2E41"/>
<path d="M409.317 378.66H276.683C271.344 378.66 267 374.315 267 368.976V268.683C267 263.344 271.344 259 276.683 259H409.317C414.656 259 419 263.344 419 268.683V368.976C419 374.315 414.656 378.66 409.317 378.66Z" fill="white"/>
<path d="M409.317 378.66H276.683C271.344 378.66 267 374.315 267 368.976V268.683C267 263.344 271.344 259 276.683 259H409.317C414.656 259 419 263.344 419 268.683V368.976C419 374.315 414.656 378.66 409.317 378.66ZM276.683 260.617C272.236 260.617 268.617 264.236 268.617 268.683V368.976C268.617 373.424 272.236 377.043 276.683 377.043H409.317C413.764 377.043 417.383 373.424 417.383 368.976V268.683C417.383 264.236 413.764 260.617 409.317 260.617H276.683Z" fill="#3F3D56"/>
<path d="M394.745 271.128C396.084 271.128 397.17 270.042 397.17 268.702C397.17 267.363 396.084 266.277 394.745 266.277C393.405 266.277 392.319 267.363 392.319 268.702C392.319 270.042 393.405 271.128 394.745 271.128Z" fill="#3F3D56"/>
<path d="M401.213 271.128C402.552 271.128 403.638 270.042 403.638 268.702C403.638 267.363 402.552 266.277 401.213 266.277C399.873 266.277 398.787 267.363 398.787 268.702C398.787 270.042 399.873 271.128 401.213 271.128Z" fill="#3F3D56"/>
<path d="M407.681 271.128C409.02 271.128 410.106 270.042 410.106 268.702C410.106 267.363 409.02 266.277 407.681 266.277C406.341 266.277 405.255 267.363 405.255 268.702C405.255 270.042 406.341 271.128 407.681 271.128Z" fill="#3F3D56"/>
<path d="M280.745 307.915C280.076 307.915 279.532 308.459 279.532 309.128C279.532 309.454 279.658 309.755 279.887 309.978C280.117 310.214 280.419 310.34 280.745 310.34H406.064C406.733 310.34 407.277 309.796 407.277 309.128C407.277 308.801 407.151 308.5 406.922 308.277C406.692 308.041 406.39 307.915 406.064 307.915H280.745Z" fill="#E6E6E6"/>
<path d="M383.426 307.511V310.745H280.745C280.3 310.745 279.896 310.567 279.605 310.268C279.306 309.977 279.128 309.572 279.128 309.128C279.128 308.238 279.855 307.511 280.745 307.511H383.426Z" fill="#6C63FF"/>
<path d="M404.042 301.447H387.872C386.089 301.447 384.638 299.996 384.638 298.213C384.638 296.429 386.089 294.979 387.872 294.979H404.042C405.826 294.979 407.276 296.429 407.276 298.213C407.276 299.996 405.826 301.447 404.042 301.447Z" fill="#E6E6E6"/>
<path d="M298.128 284.468H281.957C280.174 284.468 278.723 283.018 278.723 281.234C278.723 279.45 280.174 278 281.957 278H298.128C299.911 278 301.362 279.45 301.362 281.234C301.362 283.018 299.911 284.468 298.128 284.468Z" fill="#E6E6E6"/>
<path d="M280.745 344.298C280.076 344.298 279.532 344.842 279.532 345.511C279.532 345.837 279.658 346.138 279.887 346.361C280.117 346.597 280.419 346.723 280.745 346.723H406.064C406.733 346.723 407.277 346.179 407.277 345.511C407.277 345.185 407.151 344.883 406.922 344.66C406.692 344.424 406.39 344.298 406.064 344.298H280.745Z" fill="#E6E6E6"/>
<path d="M321.17 343.894V347.128H280.745C280.3 347.128 279.896 346.95 279.605 346.651C279.306 346.359 279.128 345.955 279.128 345.511C279.128 344.621 279.855 343.894 280.745 343.894H321.17Z" fill="#6C63FF"/>
<path d="M404.042 337.83H387.872C386.089 337.83 384.638 336.379 384.638 334.596C384.638 332.812 386.089 331.362 387.872 331.362H404.042C405.826 331.362 407.276 332.812 407.276 334.596C407.276 336.379 405.826 337.83 404.042 337.83Z" fill="#E6E6E6"/>
</g>
<g opacity="0.5">
<path fill-rule="evenodd" clip-rule="evenodd" d="M405.83 2.73273C404.139 4.42219 404.796 10.424 404.76 12.6458C404.705 16.1043 404.921 19.5305 405.21 22.9761C405.404 25.284 406.496 47.2996 409.535 45.6091C411.248 44.6563 410.174 38.2877 410.171 36.2724C410.164 31.7945 409.977 27.3272 409.679 22.8589C409.402 18.71 409.227 14.6095 409.387 10.4531C409.425 9.43895 410.375 -1.81945 405.83 2.73273Z" fill="#89C5CC"/>
<path fill-rule="evenodd" clip-rule="evenodd" d="M479.496 0.019428C464.964 0.134496 450.438 0.85179 435.912 1.29055C428.922 1.50241 421.937 1.77126 414.956 2.1584C412.576 2.29068 407.473 1.52822 405.491 2.79612C401.091 5.61045 408.187 6.26859 410.079 6.19977C438.825 5.1577 467.581 3.78441 496.351 3.71989C510.465 3.6887 524.571 4.08983 538.685 4.00057C544.081 3.96616 550.054 1.64113 551.417 7.92149C552.955 15.0073 551.188 22.8976 550.707 30.0189C550.387 34.7722 550.501 39.4276 550.715 44.1777C550.852 47.22 550.494 50.6484 551.033 53.6348C551.55 56.5104 553.617 58.2343 555.512 55.0134C556.645 53.0885 556.081 48.3362 556.156 46.1069C556.257 43.1044 556.163 40.1019 556.163 37.0983C556.162 29.7673 557.196 22.4663 557.06 15.1364C556.971 10.41 556.721 1.84224 550.76 0.706611C544.196 -0.544084 536.127 0.713061 529.409 0.636707C512.764 0.446361 496.147 -0.110696 479.496 0.019428Z" fill="#89C5CC"/>
<path fill-rule="evenodd" clip-rule="evenodd" d="M439.454 45.8714C433.974 45.8714 428.493 45.9048 423.014 45.9951C418.315 46.0725 410.927 45.0939 406.553 46.7748C403.558 47.9255 402.763 51.2689 406.553 52.1593C410.686 53.1304 416.914 51.542 421.24 51.4657C442.923 51.0828 464.816 50.5838 486.47 51.9561C506.761 53.2401 527.442 54.4865 547.762 53.1304C549.472 53.0164 558.191 52.669 554.212 49.4009C551.892 47.4931 542.483 48.7471 539.466 48.6556C528.826 48.3352 518.176 48.2642 507.539 47.8609C497.041 47.4619 486.589 46.2822 476.086 45.9897C463.886 45.6499 451.659 45.8714 439.454 45.8714Z" fill="#89C5CC"/>
<path fill-rule="evenodd" clip-rule="evenodd" d="M433.97 14.7041C442.511 15.0773 450.962 27.4638 442.32 33.4495C434.212 39.0674 419.019 32.9107 423.527 22.019C422.878 23.5934 424.346 20.308 424.365 20.2865C425.222 19.2767 426.761 18.1583 427.818 17.3625C429.027 16.4505 430.286 15.4483 431.744 14.9912C432.701 14.6912 432.551 15.8193 433.97 14.7041ZM429.811 10.2369C425.813 11.7973 423.989 13.5577 421.242 16.7441C419.341 18.9487 416.919 20.1091 416.94 23.0879C416.944 23.7472 417.792 24.472 417.938 25.1075C418.14 25.9851 417.906 27.11 418.066 28.0423C419.72 37.6672 431.202 40.9117 439.607 39.0942C446.929 37.5113 452.405 30.4835 450.709 22.8406C449.001 15.1472 437.593 7.19239 429.811 10.2369Z" fill="#89C5CC"/>
<path fill-rule="evenodd" clip-rule="evenodd" d="M426.25 23.6719C426.25 27.1336 431.72 27.1336 431.72 23.6719C431.72 20.2489 426.25 20.1015 426.25 23.6719Z" fill="#89C5CC"/>
<path fill-rule="evenodd" clip-rule="evenodd" d="M433.093 22.9706C433.093 25.7215 437.437 25.7215 437.437 22.9706C437.437 20.2509 433.093 20.1348 433.093 22.9706Z" fill="#89C5CC"/>
<path fill-rule="evenodd" clip-rule="evenodd" d="M434.438 28.6445C433.046 29.179 431.282 28.0702 430.139 28.8004C428.116 30.0963 430.144 31.2674 431.228 31.7879C436.111 34.1312 436.979 27.6702 434.438 28.6445Z" fill="#89C5CC"/>
<path fill-rule="evenodd" clip-rule="evenodd" d="M509.006 20.9716C508.861 21.0329 508.343 21.2522 509.006 20.9716ZM487.744 17.8636C484.088 18.6885 481.003 22.1018 477.033 21.6448C473.99 21.2952 471.93 18.3583 468.926 17.9325C465.084 17.3862 454.625 26.1518 460.124 27.6552C463.332 28.5327 465.112 22.6707 467.945 22.3588C470.188 22.1126 473.236 24.8624 475.559 25.2538C479.893 25.984 482.87 23.5966 486.675 22.0566C490.808 20.3844 493.16 21.891 496.755 23.7504C499.593 25.2173 502.267 26.1733 505.514 25.5678C508.561 25 512.391 21.8652 515.458 22.1868C518.462 22.5018 520.607 25.6377 523.698 25.9292C524.972 26.0485 526.869 26.483 526.655 24.5172C526.484 22.9428 524.727 23.2095 523.628 22.6374C520.802 21.1651 518.158 18.5584 514.748 18.781C512.182 18.9487 509.847 20.7511 507.483 21.6136C499.74 24.4376 495.386 16.1495 487.744 17.8636Z" fill="#89C5CC"/>
<path fill-rule="evenodd" clip-rule="evenodd" d="M494.211 67.7291C479.276 67.8667 464.289 68.0883 449.396 69.2852C445.864 69.5691 409.809 72.9738 409.878 73.219C410.004 73.6718 414.642 74.3654 414.613 74.4719C414.3 73.6976 413.586 73.376 412.47 73.5105C446.664 73.5105 480.751 70.4488 514.992 70.9994C523.596 71.137 532.231 71.08 540.829 71.351C542.974 71.4188 548.293 72.9566 549.978 71.9877C554.403 69.4444 546.365 69.1508 545.035 69.0443C528.184 67.6957 511.109 67.5602 494.211 67.7291Z" fill="#56919C"/>
<path fill-rule="evenodd" clip-rule="evenodd" d="M405.452 74.9859C403.218 77.2249 405.274 85.2786 405.362 88.3058C405.49 92.6817 405.385 97.0887 405.769 101.454C406.208 106.439 406.887 111.752 408.195 116.589C408.916 119.254 411.445 123.489 412.447 118.647C413.162 115.188 412.076 110.6 411.698 107.077C411.192 102.364 411.07 97.7124 411.051 92.9753C411.034 88.8489 410.954 84.7043 410.616 80.5909C410.44 78.4551 409.366 71.0918 405.452 74.9859Z" fill="#56919C"/>
<path fill-rule="evenodd" clip-rule="evenodd" d="M461.629 116.001C451.029 116.182 440.408 116.433 429.827 117.094C425.49 117.367 421.156 117.771 416.836 118.229C415.954 118.323 406.195 118.718 410.555 122.321C412.523 123.947 420.62 121.698 423.295 121.464C427.792 121.07 432.288 120.813 436.8 120.623C447.25 120.179 457.733 119.787 468.195 119.969C487.302 120.3 506.285 120.449 525.396 120.022C528.111 119.961 549.384 120.53 550.106 117.705C550.688 115.429 543.081 116.473 541.693 116.514C536.606 116.666 531.517 116.631 526.427 116.605C504.863 116.494 483.175 115.636 461.629 116.001Z" fill="#56919C"/>
<path fill-rule="evenodd" clip-rule="evenodd" d="M546.505 71.2092C546.842 80.6458 548.448 90.0717 548.962 99.5374C549.197 103.864 549.473 108.187 549.685 112.515C549.754 113.912 549.191 117.276 550.842 118.08C553.107 119.181 553.412 116.961 553.836 115.46C555.061 111.123 554.232 105.49 554.121 101.034C554.014 96.7209 554.006 92.3989 553.688 88.093C553.362 83.6946 552.477 79.3779 552.065 74.9946C551.892 73.1406 552.499 70.0552 550.531 68.9046C548.83 67.9098 546.431 69.1637 546.505 71.2092Z" fill="#56919C"/>
<path fill-rule="evenodd" clip-rule="evenodd" d="M433.319 84.1108C436.677 85.07 439.435 84.713 442.644 87.1574C445.304 89.1856 448.032 92.1516 448.914 95.4294C450.953 103.002 444.043 107.153 437.565 107.235C430.93 107.318 421.108 105.779 421.448 97.2748C421.71 90.7406 426.481 84.3645 433.319 84.1108ZM433.555 79.8306C424.845 80.264 417.82 90.0459 417.895 98.2781C417.987 108.257 429.292 110.828 437.324 110.897C446.389 110.974 455.428 104.715 453 94.5217C451.053 86.3551 441.93 79.3962 433.555 79.8306Z" fill="#56919C"/>
<path fill-rule="evenodd" clip-rule="evenodd" d="M424.794 93.228C424.794 96.0112 429.19 96.0112 429.19 93.228C429.19 90.4782 424.794 90.3599 424.794 93.228Z" fill="#56919C"/>
<path fill-rule="evenodd" clip-rule="evenodd" d="M434.015 92.0074C434.015 94.8121 438.447 94.8121 438.447 92.0074C438.447 89.235 434.015 89.1156 434.015 92.0074Z" fill="#56919C"/>
<path fill-rule="evenodd" clip-rule="evenodd" d="M428.932 98.3545C426.07 101.211 436.122 106.219 438.493 102.245C440.441 98.9803 436.201 100.063 434.698 99.8869C433.065 99.6944 430.264 97.0242 428.932 98.3545Z" fill="#56919C"/>
<path fill-rule="evenodd" clip-rule="evenodd" d="M509.301 92.0643C509.026 92.1805 509.026 92.1805 509.301 92.0643ZM471.553 87.4143C468.655 87.9573 459.147 91.1653 459.019 94.6023C458.784 100.85 468.096 94.4506 470.118 93.629C475.611 91.3965 478.498 95.9508 484.017 96.1906C488.809 96.3993 493.216 92.2977 497.73 92.7827C502.461 93.2913 504.736 98.3232 510.196 95.6519C513.086 94.2388 513.013 92.0589 509.77 91.8535C507.81 91.7299 506.463 92.5396 504.419 91.6965C501.223 90.3781 499.936 88.2316 496.112 88.5725C493.225 88.8306 490.617 90.4566 487.8 91.0868C481.35 92.5278 477.772 86.2485 471.553 87.4143Z" fill="#56919C"/>
<path fill-rule="evenodd" clip-rule="evenodd" d="M531.556 94.7776C531.356 94.8615 531.356 94.8615 531.556 94.7776ZM532.286 92.1762C532.537 92.4935 532.318 92.1902 532.286 92.1762ZM528.965 90.1899C528.84 90.2867 528.84 90.2867 528.965 90.1899ZM529.037 90.1652C529.681 90.5513 534.859 94.0915 531.099 94.926C529.189 95.3487 527.609 91.5073 529.037 90.1652ZM527.323 86.2432C519.028 90.0254 527.954 103.559 534.464 98.0608C537.203 95.7466 537.563 91.0696 534.898 88.6586C533.302 87.2143 529.49 85.2528 527.323 86.2432Z" fill="#56919C"/>
<path fill-rule="evenodd" clip-rule="evenodd" d="M449.458 139.577C439.107 139.58 428.666 139.363 418.33 139.976C416.591 140.079 409.964 139.748 409.067 141.566C407.428 144.893 414.246 143.242 415.237 143.142C435.818 141.081 457.316 142.267 477.965 142.855C494.853 143.334 511.65 143.632 528.518 144.503C532.951 144.731 537.381 144.984 541.812 145.252C543.256 145.339 546.891 146.296 547.195 143.989C547.477 141.854 542.943 142.337 541.811 142.277C532.804 141.803 523.804 141.306 514.8 140.8C493.128 139.578 471.164 139.572 449.458 139.577Z" fill="#89C5CC"/>
<path fill-rule="evenodd" clip-rule="evenodd" d="M408.735 143.275C406.802 145.197 407.708 152.535 407.654 154.96C407.559 159.203 407.359 163.442 407.27 167.682C407.176 172.115 407.307 176.568 407.568 180.995C407.678 182.853 409.204 191.835 411.605 186.694C412.678 184.397 411.579 178 411.595 175.397C411.625 170.661 411.88 165.945 412.116 161.214C412.319 157.148 412.327 153.077 412.504 149.01C412.56 147.713 412.714 139.284 408.735 143.275Z" fill="#89C5CC"/>
<path fill-rule="evenodd" clip-rule="evenodd" d="M548.936 181.167C538.863 182.199 528.628 181.712 518.518 182.475C509.804 183.132 501.097 183.4 492.36 183.585C472.577 184.003 452.76 184.41 433.034 186.059C428.538 186.434 424.049 186.833 419.541 187.034C417.287 187.134 407.826 186.108 407.122 188.485C405.923 192.533 416.038 190.93 418.22 190.867C423.018 190.729 427.794 190.382 432.579 190.017C452.693 188.485 472.883 188.027 493.04 187.39C504.002 187.044 514.888 186.242 525.826 185.513C531.278 185.149 536.745 185.137 542.196 184.785C543.623 184.692 548.672 184.874 549.698 183.726C550.402 182.938 550.581 181.014 548.936 181.167Z" fill="#89C5CC"/>
<path fill-rule="evenodd" clip-rule="evenodd" d="M545.522 143.963C545.867 153.624 546.413 163.275 546.739 172.935C546.837 175.839 545.96 181.045 547.577 183.608C550.178 187.727 552.209 183.367 552.685 180.8C554.189 172.699 552.572 163.751 552.152 155.599C551.993 152.49 552.958 145.569 551.455 142.786C550.024 140.135 545.394 140.402 545.522 143.963Z" fill="#89C5CC"/>
<path fill-rule="evenodd" clip-rule="evenodd" d="M528.61 157.722C532.47 158.767 533.033 167.156 528.679 167.778C522.197 168.702 525.032 159.451 528.61 157.722ZM527.529 154.385C526.352 154.348 523.635 154.024 522.909 154.982C522.303 155.784 522.916 157.476 522.845 158.239C522.59 160.969 520.37 162.545 521.363 165.768C522.036 167.956 523.84 170.011 526.038 170.77C537.636 174.779 537.495 152.369 527.529 154.385Z" fill="#89C5CC"/>
<path fill-rule="evenodd" clip-rule="evenodd" d="M431.925 151.044C431.88 150.656 431.833 150.267 431.788 149.879C438.077 152.847 443.081 158.369 440.993 165.781C439.4 171.436 433.643 173.441 428.28 172.045C422.344 170.499 419.507 165.606 421.107 159.597C421.846 156.825 424.114 153.1 427.045 152.208C428.409 151.793 431.427 152.851 431.925 151.044ZM428.247 148.696C426.656 148.804 425.108 149.466 423.81 150.373C425.025 149.345 426.645 148.733 428.247 148.696ZM428.293 145.044C424.364 145.164 421.788 147.543 419.458 150.4C418.726 151.296 416.253 153.674 416.559 154.883C416.801 155.838 417.435 157.235 418.769 156.169C411.781 170.096 429.833 181.974 440.853 172.289C451.138 163.252 440.933 144.62 428.293 145.044Z" fill="#89C5CC"/>
<path fill-rule="evenodd" clip-rule="evenodd" d="M424.723 157.981C424.723 159.835 427.602 159.835 427.602 157.981C427.602 156.126 424.723 156.126 424.723 157.981Z" fill="#89C5CC"/>
<path fill-rule="evenodd" clip-rule="evenodd" d="M429.635 158.297C429.635 160.182 432.56 160.182 432.56 158.297C432.56 156.412 429.635 156.412 429.635 158.297Z" fill="#89C5CC"/>
<path fill-rule="evenodd" clip-rule="evenodd" d="M431.864 164.917C430.497 165.027 425.487 164.563 424.608 165.761C423.139 167.764 425.483 167.834 426.635 168.05C427.673 168.245 432.183 168.135 432.818 167.214C433.38 166.4 433.249 164.798 431.864 164.917Z" fill="#89C5CC"/>
<path fill-rule="evenodd" clip-rule="evenodd" d="M492.221 159.721C491.985 159.819 491.985 159.819 492.221 159.721ZM473.293 158.337C470.208 158.564 467.597 160.337 464.648 161.045C461.502 161.801 460.139 160.412 457.278 159.502C454.301 158.555 452.183 158.93 449.791 160.962C448.436 162.114 445.461 164.766 446.309 166.812C448.249 171.496 452.641 163.875 454.706 163.521C457.928 162.968 460.795 165.785 464.512 164.98C467.879 164.25 470.866 161.938 474.383 161.913C477.324 161.891 480.096 163.501 482.999 163.891C487.432 164.485 490.342 162.911 494.439 161.743C497.992 160.73 500.483 162.066 503.825 163.189C505.353 163.702 510.449 165.569 509.511 162.185C509.245 161.228 502.53 159.518 501.489 159.19C497.817 158.03 495.492 158.481 491.994 159.815C489.077 160.928 486.623 161.47 483.496 160.858C480.05 160.183 476.917 158.062 473.293 158.337Z" fill="#89C5CC"/>
</g>
<g opacity="0.5">
<path fill-rule="evenodd" clip-rule="evenodd" d="M59.1177 242.034C50.0585 242.135 41.0036 242.47 31.9616 243.042C23.3637 243.587 14.0346 243.173 5.57656 244.84C3.1741 245.313 -0.0698508 247.502 3.12356 249.91C5.36793 251.602 13.5808 249.656 16.2607 249.49C26.1318 248.884 36.0083 248.157 45.8935 247.808C55.2516 247.477 64.6098 247.361 73.9722 247.267C75.4015 247.253 77.7738 246.795 79.1976 247.21C81.243 247.806 80.758 247.968 80.9107 250.564C81.1882 255.268 81.1118 259.989 81.0183 264.697C80.9279 269.254 80.7602 273.809 80.7763 278.368C80.7882 281.62 79.7482 288.082 81.3796 290.906C83.7294 294.972 86.1652 290.557 86.3405 287.855C86.6771 282.688 86.5265 277.458 86.5276 272.284C86.5286 267.429 86.5641 262.572 86.3931 257.719C86.2684 254.213 86.7695 248.093 84.8811 244.906C82.9572 241.659 78.3265 242.359 74.9466 242.204C69.6749 241.962 64.3936 241.979 59.1177 242.034Z" fill="#89C5CC"/>
<path fill-rule="evenodd" clip-rule="evenodd" d="M1.47724 247.893C1.48692 257.017 0.431298 266.08 0.135562 275.193C-4.62475e-05 279.384 -0.275243 283.985 0.784675 288.098C1.8547 292.251 5.25298 293.152 5.64443 288.514C6.437 279.126 6.24343 269.391 6.85963 259.926C7.07794 256.585 8.4964 250.461 7.17258 247.332C6.00684 244.576 1.47186 244.048 1.47724 247.893Z" fill="#89C5CC"/>
<path fill-rule="evenodd" clip-rule="evenodd" d="M86.4299 288.11C70.6968 290.193 54.2495 289.434 38.4034 289.762C30.8014 289.919 23.2015 289.929 15.5984 290.008C12.9443 290.035 6.20586 289.026 3.91094 290.518C0.256291 292.892 4.22066 294.725 6.64032 294.778C21.6444 295.106 36.8162 294.416 51.817 293.924C58.5565 293.702 65.3187 293.595 72.041 293.021C76.1792 292.669 80.7012 292.327 84.72 291.215C85.576 290.977 87.4408 291.027 87.6322 289.859C87.7505 289.137 87.5365 287.958 86.4299 288.11Z" fill="#89C5CC"/>
<path fill-rule="evenodd" clip-rule="evenodd" d="M21.0065 301.373C16.6339 301.399 3.45698 299.367 1.646 303.631C-0.767849 309.318 8.6501 307.991 11.1827 307.925C16.9361 307.778 22.6841 307.762 28.4386 307.765C34.0845 307.767 39.7304 307.731 45.3751 307.596C47.0108 307.558 50.8178 308.236 51.7588 306.266C52.4739 304.77 51.9082 303.589 50.5898 302.797C47.4163 300.89 39.1733 301.996 35.4589 301.824C30.6486 301.603 25.8222 301.373 21.0065 301.373Z" fill="#89C5CC"/>
<path fill-rule="evenodd" clip-rule="evenodd" d="M74.2036 302.426C71.7044 302.574 66.65 301.544 64.411 302.688C61.8666 303.988 62.7635 306.023 64.9595 306.918C66.4812 307.537 72.7217 307.212 74.2036 306.495C75.7479 305.747 77.4944 302.224 74.2036 302.426Z" fill="#89C5CC"/>
<path fill-rule="evenodd" clip-rule="evenodd" d="M101.601 248.789C98.9315 249.521 99.7413 264.674 99.6725 267.075C99.4843 273.657 98.7444 281.934 100.931 288.272C102.326 292.313 105.004 291.764 104.547 287.511C104.147 283.777 103.459 280.086 103.161 276.329C102.489 267.826 101.573 258.756 102.208 250.245C102.479 250.74 105.011 255.326 105.607 254.983C105.427 255.091 102.687 248.503 101.601 248.789Z" fill="#89C5CC"/>
<path fill-rule="evenodd" clip-rule="evenodd" d="M131.623 243.208C126.222 243.288 120.82 243.384 115.421 243.533C111.126 243.653 104.38 242.947 100.443 244.754C95.7547 246.904 97.9786 251.695 102.382 251.796C106.279 251.886 110.433 251.007 114.363 250.873C124.981 250.508 135.618 250.432 146.24 250.341C155.847 250.258 165.862 251.283 175.385 249.84C176.797 262.382 172.977 274.977 174.276 287.664C174.477 289.633 174.387 292.415 176.895 292.863C180.06 293.43 180.19 290.295 180.31 288.051C180.652 281.643 180.467 275.229 180.936 268.812C181.371 262.865 182.227 256.788 181.503 250.831C180.614 243.502 177.101 244.089 170.893 243.785C157.781 243.142 144.75 243.015 131.623 243.208Z" fill="#89C5CC"/>
<path fill-rule="evenodd" clip-rule="evenodd" d="M113.521 287.743C110.768 287.813 106.198 286.965 104.434 289.604C102.6 292.35 104.776 294.745 107.444 295.309C110.603 295.976 114.721 295.061 117.998 295.052C121.412 295.041 124.826 295.08 128.239 295.093C142.874 295.15 157.57 295.371 172.194 294.767C174.237 294.682 180.033 295.367 181.446 293.407C182.701 291.671 181.824 290.112 180.171 289.227C177.461 287.774 171.894 288.327 168.88 288.212C165.157 288.07 161.429 288.024 157.704 287.966C143.002 287.739 128.222 287.38 113.521 287.743Z" fill="#89C5CC"/>
<path fill-rule="evenodd" clip-rule="evenodd" d="M125.901 300.437C120.425 300.531 114.581 300.29 109.159 301.121C104.391 301.851 103.804 306.46 108.936 306.999C113.653 307.495 119.371 306.569 124.11 306.265C125.793 306.156 127.75 306.31 128.557 304.449C129.399 302.505 127.789 300.641 125.901 300.437Z" fill="#89C5CC"/>
<path fill-rule="evenodd" clip-rule="evenodd" d="M167.302 300.921C164.379 300.994 155.842 299.737 154.393 303.076C151.983 308.634 163.542 306.523 165.759 306.441C168.554 306.338 179.446 307.969 179.448 303.52C179.45 299.159 169.979 300.855 167.302 300.921Z" fill="#89C5CC"/>
<path fill-rule="evenodd" clip-rule="evenodd" d="M1.00414 328.542C1.01167 338.653 0.382019 348.859 1.30418 358.946C1.68595 363.117 1.62035 371.109 4.03678 374.644C5.75205 377.154 8.13084 376.979 9.06752 373.965C9.69341 371.949 8.6922 367.92 8.58036 365.764C8.47282 363.696 8.347 361.628 8.25129 359.558C8.00502 354.227 8.02545 348.905 8.09858 343.571C8.16095 338.995 9.26216 332.941 8.2244 328.542C7.25546 324.441 1.00414 323.482 1.00414 328.542Z" fill="#56919C"/>
<path fill-rule="evenodd" clip-rule="evenodd" d="M102.627 319.646C85.0835 320.086 67.5007 319.694 49.9737 320.561C41.3296 320.989 32.7189 321.93 24.1178 322.867C19.8926 323.328 15.6694 323.804 11.4517 324.323C10.1784 324.48 -0.398598 324.89 3.57975 328.912C5.31653 330.669 10.8452 328.835 13.0326 328.575C17.2675 328.075 21.511 327.64 25.7514 327.191C33.8223 326.337 41.9018 325.529 50.0071 325.08C69.0944 324.022 88.2613 324.339 107.367 323.635C112.536 323.445 117.689 323.308 122.859 323.511C124.217 323.564 134.194 324.072 129.862 320.386C127.814 318.644 120.091 319.543 117.532 319.49C112.563 319.388 107.593 319.522 102.627 319.646Z" fill="#56919C"/>
<path fill-rule="evenodd" clip-rule="evenodd" d="M126.541 336.682C126.455 332.01 126.368 327.337 126.155 322.67C125.932 317.755 132.628 317.01 134.613 320.989C136.044 323.854 135.792 328.728 135.577 332.906C135.49 334.589 135.408 336.16 135.446 337.44C135.531 340.374 135.747 343.408 135.965 346.482C136.516 354.218 137.085 362.21 135.638 369.513C134.935 373.061 131.942 374.926 129.949 372.993C129.946 372.996 129.944 373 129.941 373.004C129.191 374.109 126.859 374.107 125.14 374.105C124.667 374.105 124.24 374.104 123.907 374.126C119.2 374.447 114.58 374.986 109.913 375.685C100.618 377.079 91.4025 377.935 82.0067 378.168C75.6306 378.326 69.2459 378.378 62.8602 378.431C50.6307 378.533 38.3958 378.634 26.205 379.471C22.0959 379.753 18.0481 380.237 14.0057 381.011C13.6615 381.076 13.2787 381.161 12.8722 381.252C9.86643 381.921 5.51535 382.889 5.21746 378.688C4.86366 373.701 15.6704 373.049 21.2302 372.713C22.0798 372.661 22.8068 372.617 23.352 372.567C40.2369 370.997 57.3864 371.24 74.3423 371.48C75.1639 371.491 75.9855 371.503 76.806 371.515C78.1288 371.533 79.4515 371.555 80.7743 371.576C88.0343 371.696 95.2858 371.815 102.543 371.372C105.846 371.17 109.192 371.066 112.544 370.962C117.892 370.796 123.255 370.63 128.486 370.063C127.696 367.005 127.559 363.396 127.428 359.993C127.378 358.669 127.328 357.376 127.242 356.159C126.783 349.676 126.663 343.179 126.541 336.682Z" fill="#56919C"/>
<path fill-rule="evenodd" clip-rule="evenodd" d="M140.74 326.272C138.37 326.593 136.393 328.623 137.451 331.195C138.784 334.434 142.753 333.168 145.375 332.963C153.709 332.31 162.411 333.615 170.646 332.631C172.894 332.362 176.156 331.137 174.138 328.115C172.62 325.845 167.091 326.243 164.74 326.026C156.701 325.281 148.768 325.48 140.74 326.272Z" fill="#C1DEE2"/>
<path fill-rule="evenodd" clip-rule="evenodd" d="M154.806 340.404C151.575 340.621 144.05 340.45 142.688 344.128C140.244 350.725 149.814 348.4 152.729 348.025C156.114 347.589 164.094 348.756 165.896 345.474C169.119 339.605 157.641 340.208 154.806 340.404Z" fill="#C1DEE2"/>
<path fill-rule="evenodd" clip-rule="evenodd" d="M146.495 354.883C144.961 356.416 144.959 359.155 146.495 360.69C148.375 362.568 152.472 362.178 154.942 362.315C158.388 362.507 168.285 364.33 169.995 360.273C172.304 354.798 163.342 354.913 160.394 354.602C156.987 354.243 149.319 352.058 146.495 354.883Z" fill="#C1DEE2"/>
<path fill-rule="evenodd" clip-rule="evenodd" d="M25.7031 261.173C25.7031 267.059 34.8957 267.059 34.8957 261.173C34.8957 255.319 25.7031 255.23 25.7031 261.173Z" fill="#89C5CC"/>
<path fill-rule="evenodd" clip-rule="evenodd" d="M43.1396 261.24C43.1396 267.969 53.6109 267.955 53.6109 261.24C53.6109 254.534 43.1396 254.466 43.1396 261.24Z" fill="#89C5CC"/>
<path fill-rule="evenodd" clip-rule="evenodd" d="M32.5908 270.186C27.502 271.592 32.1908 275.905 34.5535 276.89C38.3099 278.456 43.4363 279.611 47.1927 277.262C48.6875 276.328 49.9006 275.087 48.8058 273.274C47.6379 271.342 46.0409 272.201 44.2633 272.379C42.0125 272.606 40.1929 272.57 38.0195 271.849C36.3967 271.31 34.361 269.699 32.5908 270.186Z" fill="#89C5CC"/>
<path fill-rule="evenodd" clip-rule="evenodd" d="M124.912 261.545C124.912 265.526 131.094 265.526 131.094 261.545C131.094 257.564 124.912 257.564 124.912 261.545Z" fill="#89C5CC"/>
<path fill-rule="evenodd" clip-rule="evenodd" d="M138.583 262.144C138.583 266.568 145.45 266.569 145.45 262.144C145.45 257.721 138.583 257.721 138.583 262.144Z" fill="#89C5CC"/>
<path fill-rule="evenodd" clip-rule="evenodd" d="M138.074 271.743C134.467 272.209 124.034 273.266 123.45 277.713C122.55 284.573 133.981 279.021 136.59 278.482C139.914 277.796 142.881 277.975 146.199 278.109C148.021 278.181 150.443 278.476 150.252 275.702C149.939 271.145 141.227 271.339 138.074 271.743Z" fill="#89C5CC"/>
<path fill-rule="evenodd" clip-rule="evenodd" d="M47.3775 335.005C44.7621 335.703 41.3423 340.223 43.1415 342.99C46.0913 347.527 47.3915 340.561 48.626 339.89C50.8726 338.67 52.6954 343.129 55.043 340.79C58.7467 337.099 49.709 334.381 47.3775 335.005Z" fill="#56919C"/>
<path fill-rule="evenodd" clip-rule="evenodd" d="M77.3365 331.652C74.2361 331.68 67.6901 336.07 67.2266 339.311C66.9513 341.237 68.2278 343.088 70.3044 343.114C73.1317 343.148 74.0296 339.472 76.4805 338.703C79.1238 337.874 78.7313 339.784 81.0144 340.774C82.6856 341.498 84.7751 341.195 85.3558 339.141C86.4505 335.266 80.5229 331.591 77.3365 331.652Z" fill="#56919C"/>
<path fill-rule="evenodd" clip-rule="evenodd" d="M53.602 350.211C48.6423 353.117 56.8024 359.347 59.6318 360.127C63.9023 361.301 72.498 359.107 73.511 353.89C73.9132 351.814 72.6141 349.933 70.3235 350.305C68.4362 350.611 67.2263 352.977 65.4788 353.826C63.1194 354.969 61.0223 354.891 59.0189 353.17C57.3853 351.766 56.511 348.514 53.602 350.211Z" fill="#56919C"/>
<path fill-rule="evenodd" clip-rule="evenodd" d="M57.1959 393.153C52.7652 394.099 48.2604 393.464 43.8082 394.352C39.2678 395.259 36.5546 396.974 32.3369 395.246C32.1379 395.162 31.94 395.078 31.7421 394.994C28.4772 393.589 25.0553 393.173 21.6387 395.414C19.6159 396.74 13.4764 401.327 14.2163 404.127C15.8197 410.194 22.7281 400.679 24.4896 399.752C27.8492 397.983 30.1516 400.242 33.6101 400.88C37.7526 401.644 41.0853 399.455 44.9879 398.583C49.5508 397.564 54.6848 397.209 59.3284 396.662C61.162 396.447 68.1102 397.898 68.7371 395.615C69.8147 391.693 58.938 392.784 57.1959 393.153Z" fill="#C1DEE2"/>
<path fill-rule="evenodd" clip-rule="evenodd" d="M89.1648 405.375C89.4552 405.595 89.2229 405.418 89.1648 405.375ZM101.575 392.917C105.369 392.532 117.505 389.822 119.998 393.742C121.62 396.295 119.045 405.717 116.588 406.937C114.623 407.91 110.049 406.834 107.894 406.757C103.884 406.616 99.8662 406.554 95.8603 406.303C94.5171 406.219 90.195 406.467 89.1422 405.277C87.899 403.874 87.9539 396.39 87.6614 394.534C91.1489 395.663 97.9283 393.287 101.575 392.917ZM109.675 389.073C104.817 389.284 99.9597 389.649 95.1376 390.3C92.4502 390.664 89.7262 391.629 87.2441 392.088C86.444 392.235 85.1449 391.825 84.1642 392.299C81.2961 393.685 83.8071 403.051 84.4986 405.553C85.5611 409.397 88.2335 410.02 91.9791 410.381C96.912 410.86 101.946 410.709 106.895 410.649C111.664 410.59 118.096 411.647 120.773 406.861C122.503 403.766 124.358 396.56 122.88 393.111C120.934 388.573 113.67 388.905 109.675 389.073Z" fill="#C1DEE2"/>
<path fill-rule="evenodd" clip-rule="evenodd" d="M164.079 407.95C163.819 408.283 163.819 408.283 164.079 407.95ZM165.144 406.666C165.063 406.788 164.69 407.182 165.144 406.666ZM153.558 406.313C155.7 405.911 157.842 405.512 159.985 405.12C157.955 407.963 155.817 406.788 152.349 406.541C152.752 406.465 153.155 406.389 153.558 406.313ZM143.34 405.307C143.883 405.126 144.426 404.945 144.969 404.763C144.952 405.176 145.041 405.563 145.235 405.924C144.306 405.823 143.378 405.715 142.45 405.601C142.746 405.503 143.044 405.405 143.34 405.307ZM138.606 401.811C138.575 401.066 139.697 401.578 140.34 401.527C139.101 402.618 138.522 402.714 138.606 401.811ZM155.538 393.354C155.702 393.146 155.918 393.156 156.186 393.386C155.893 393.483 154.764 393.963 155.538 393.354ZM166.519 392.063C167.158 392.885 166.548 392.063 166.519 392.063ZM166.212 391.793C166.371 391.915 166.371 391.915 166.212 391.793ZM164.841 391.633C167.086 392.012 166.915 394.647 164.841 391.633ZM138.463 391.453C138.163 391.465 138.006 391.833 138.463 391.453ZM147.049 385.844C143.237 386.065 136.24 385.843 133.057 387.873C128.903 390.524 131.089 399.65 131.46 403.65C132.01 409.563 134.792 411.247 140.361 411.867C147.007 412.608 153.835 412.746 160.515 412.571C166.531 412.413 169.957 410.344 171.06 404.009C171.397 402.071 172.253 399.072 172.227 397.216C172.208 395.929 171.566 395.342 171.323 394.247C169.942 388.013 167.631 387.273 161.242 387.002C156.54 386.802 151.664 385.602 147.049 385.844Z" fill="#89C5CC"/>
</g>
</svg>
