<svg width="382" height="292" viewBox="0 0 382 292" fill="none" xmlns="http://www.w3.org/2000/svg">
<g clip-path="url(#clip0_8_82)">
<path d="M361 134.245C361.158 203.156 300.483 198.888 200.793 199.179C178.634 199.245 137.401 256.91 117.781 251.919H117.776C117.053 251.738 116.336 251.549 115.619 251.355C115.415 251.307 115.21 251.253 115.012 251.195C113.886 250.898 112.766 250.59 111.652 250.273C109.359 249.623 107.089 248.939 104.849 248.23C103.687 247.859 102.531 247.484 101.387 247.096C90.765 243.53 80.7253 239.26 71.3942 234.374C66.6954 231.917 62.1709 229.298 57.8506 226.541C54.2714 224.256 50.8304 221.875 47.5395 219.397C46.5029 218.622 45.4903 217.839 44.4897 217.047C44.0799 216.728 43.682 216.41 43.2902 216.09C40.451 213.807 37.7381 211.448 35.1454 209.023C34.3072 208.24 33.481 207.447 32.667 206.647C27.1372 201.215 22.2203 195.457 17.9826 189.429C6.50115 173.077 0.0450216 154.716 0.000234483 135.302C-0.158724 66.3903 80.522 10.2939 180.212 10.0011C279.902 9.70966 360.84 65.3335 361 134.245Z" fill="#E6E6E6"/>
<path d="M330.527 287.127L326.428 287.126L324.479 271.319L330.528 271.32L330.527 287.127Z" fill="#FFB6B6"/>
<path d="M316.485 287.034C316.358 287.249 316.29 287.942 316.29 288.192C316.29 288.96 316.913 289.583 317.681 289.583H330.374C330.897 289.583 331.322 289.159 331.322 288.634V288.106C331.322 288.106 331.95 286.518 330.657 284.56C330.657 284.56 329.051 286.093 326.65 283.692L325.942 282.41L320.818 286.158L317.977 286.508C317.356 286.584 316.805 286.495 316.485 287.034Z" fill="#2F2E41"/>
<path d="M346.052 287.126H341.954L340.005 271.319H346.053L346.052 287.126Z" fill="#FFB6B6"/>
<path d="M332.012 287.034C331.884 287.249 331.817 287.942 331.817 288.192C331.817 288.96 332.439 289.583 333.207 289.583H345.899C346.424 289.583 346.848 289.158 346.848 288.634V288.106C346.848 288.106 347.476 286.518 346.183 284.56C346.183 284.56 344.577 286.093 342.176 283.692L341.468 282.41L336.343 286.158L333.504 286.507C332.881 286.584 332.331 286.495 332.012 287.034Z" fill="#2F2E41"/>
<path d="M322.628 192.257L322.537 280.043H333.273L338.344 215.128L338.489 280.043L348.411 279.927L356.093 205.252C356.093 205.252 357.126 197.454 353.869 193.47C350.61 189.485 322.628 192.257 322.628 192.257Z" fill="#2F2E41"/>
<path d="M322.389 202.25C322.608 204.965 321.384 207.28 319.656 207.418C317.928 207.558 316.35 205.469 316.131 202.754C316.035 201.565 316.217 200.453 316.595 199.567L315.812 188.049L321.225 187.797L321.422 199.179C321.937 199.992 322.293 201.061 322.389 202.25Z" fill="#FFB6B6"/>
<path d="M262.589 69.005V25.2968C262.589 11.3258 251.263 3.46665e-09 237.292 3.46665e-09H144.689C130.718 -0.000228798 119.392 11.3254 119.392 25.2965V265.082C119.392 279.053 130.717 290.379 144.688 290.379H237.29C251.261 290.379 262.588 279.053 262.588 265.082V100.118C263.468 100.118 264.181 99.4037 264.181 98.524L264.182 70.5984C264.182 69.7184 263.469 69.005 262.589 69.005Z" fill="#3F3D56"/>
<path d="M257.838 23.1934V266.367C243.054 265.458 228.418 282.41 238.659 285.55H144.156C133.559 285.552 124.967 276.963 124.963 266.367V23.1934C124.967 12.5971 133.559 4.00914 144.155 4.0105H151.124C149.226 8.67789 164.544 10.1965 165.718 10.1979H214.118C219.157 10.1916 231.312 5.09827 230.87 4.0105H238.656C249.247 4.01231 257.835 12.5975 257.838 23.1898V23.1934Z" fill="white"/>
<path d="M233.975 193.083H149.998C149.14 193.082 148.443 192.386 148.442 191.527V170.697C148.444 169.839 149.14 169.143 149.998 169.142H233.975C234.834 169.143 235.529 169.839 235.53 170.697V191.528C235.528 192.386 234.833 193.082 233.975 193.083ZM149.998 169.764C149.483 169.765 149.065 170.182 149.065 170.697V191.528C149.065 192.043 149.483 192.461 149.998 192.462H233.975C234.49 192.461 234.908 192.043 234.908 191.528V170.697C234.908 170.182 234.49 169.765 233.975 169.764H149.998Z" fill="#E6E6E6"/>
<path d="M233.975 233.229H149.998C149.14 233.228 148.443 232.532 148.442 231.674V210.843C148.444 209.984 149.14 209.289 149.998 209.288H233.975C234.834 209.289 235.529 209.984 235.53 210.843V231.675C235.529 232.533 234.834 233.228 233.975 233.229ZM149.998 209.91C149.483 209.91 149.065 210.328 149.065 210.843V231.675C149.065 232.19 149.483 232.607 149.998 232.607H233.975C234.49 232.607 234.908 232.19 234.908 231.675V210.843C234.908 210.328 234.49 209.91 233.975 209.91H149.998Z" fill="#E6E6E6"/>
<path d="M389.478 291.14H87.7284C87.2908 291.14 86.9365 290.948 86.9365 290.712C86.9365 290.477 87.2912 290.286 87.7284 290.286H389.478C389.915 290.286 390.269 290.477 390.269 290.712C390.269 290.948 389.915 291.14 389.478 291.14Z" fill="#E6E6E6"/>
<path d="M154.449 107.206C154.543 107.101 154.638 107.002 154.735 106.9C157.105 104.408 158.35 102.93 161.242 102.93C161.779 102.93 164.145 102.955 164.635 103.004C166.666 103.202 168.29 103.814 169.508 104.839C171.305 106.353 172.207 108.756 172.211 112.047C172.211 112.229 172.222 112.569 172.239 113.019C172.346 115.646 174.148 118.435 174.498 119.383C175.066 120.925 174.148 125.868 173.412 126.875C172.985 127.464 172.899 125.988 171.586 126.265C171.344 126.317 170.336 128.267 170.063 128.305C168.654 128.492 167.234 128.575 165.814 128.556C165.628 128.556 165.441 128.556 165.246 128.552H165.244C164.571 128.548 163.852 128.529 163.089 128.5C161.064 128.458 159.047 128.233 157.061 127.827H157.059C156.797 127.768 156.54 127.701 156.288 127.63L156.242 127.617L156.221 127.576C155.862 126.845 155.657 126.048 155.62 125.235C155.235 125.753 154.952 126.339 154.786 126.962L154.754 127.082L154.118 125.022C153.232 124.641 152.986 126.038 152.415 125.261C151.868 124.451 151.54 123.512 151.463 122.538C151.177 119.892 152.265 109.641 154.449 107.206Z" fill="#2F2E41"/>
<path d="M153.741 192.317H166.302L168.408 181.903L169.091 192.317H181.577C181.582 184.599 178.4 165.583 178.781 165.423C179.162 165.264 178.587 164.757 178.587 164.757L176.551 157.765L176.36 157.106H161.821C160.985 157.893 160.213 158.745 159.513 159.655C159.277 159.957 159.029 160.284 158.776 160.635C158.599 160.885 158.418 161.147 158.236 161.422C156.615 163.833 155.404 166.496 154.651 169.303V169.304C154.523 169.784 154.41 170.275 154.312 170.777V170.78C154.224 171.226 154.146 171.679 154.085 172.141C154.039 172.48 153.999 172.821 153.97 173.166C153.795 175.082 153.857 177.012 154.152 178.913L153.741 192.317Z" fill="#2F2E41"/>
<path d="M164.496 121.472C168.544 121.472 171.828 118.188 171.828 114.14C171.828 110.09 168.544 106.807 164.496 106.807C160.446 106.807 157.163 110.09 157.163 114.14C157.163 118.188 160.446 121.472 164.496 121.472Z" fill="#FFB6B6"/>
<path d="M159.678 105.026H166.856C167.724 104.824 168.619 104.761 169.507 104.839C170.598 104.923 171.641 105.325 172.504 105.998C173.789 107.029 174.497 108.673 174.497 110.626C174.493 111.251 174.622 112.072 174.497 112.684L173.624 111.246L173.394 112.684C172.732 112.854 172.903 112.888 172.238 113.019C172.078 113.051 171.917 113.083 171.756 113.112C170.883 113.273 170.053 113.581 170.053 113.581L169.062 113.468C168.444 112.899 168.34 111.495 168.009 110.722C167.945 110.947 167.865 111.344 167.787 111.775C167.588 112.882 166.621 113.693 165.495 113.694H165.476C162.722 113.692 162.723 111.56 160.05 110.9C159.874 110.86 161.671 123.323 161.497 123.277L155.99 119.737L156.701 108.002C156.703 106.359 158.034 105.028 159.678 105.026Z" fill="#2F2E41"/>
<path d="M152.153 104.376C150.83 107.078 151.792 107.685 154.494 109.007C157.196 110.329 160.617 111.865 161.938 109.163C163.26 106.46 160.945 104.253 158.243 102.93C158.82 100.691 154.955 99.6642 153.08 103.035C153.724 103.573 152.241 105.037 152.56 105.814C151.901 105.282 153.042 104.264 152.203 104.367C152.186 104.37 152.17 104.372 152.153 104.376Z" fill="#2F2E41"/>
<path d="M233.975 233.229H149.998C149.14 233.228 148.443 232.532 148.442 231.674V210.843C148.444 209.984 149.14 209.289 149.998 209.288H233.975C234.834 209.289 235.529 209.984 235.53 210.843V231.675C235.529 232.533 234.834 233.228 233.975 233.229ZM149.998 209.91C149.483 209.91 149.065 210.328 149.065 210.843V231.675C149.065 232.19 149.483 232.607 149.998 232.607H233.975C234.49 232.607 234.908 232.19 234.908 231.675V210.843C234.908 210.328 234.49 209.91 233.975 209.91H149.998Z" fill="#E6E6E6"/>
<path d="M166.306 216.903C165.705 216.903 165.218 217.391 165.218 217.992C165.218 218.593 165.705 219.081 166.306 219.081H217.624C218.226 219.104 218.732 218.636 218.755 218.034C218.777 217.434 218.309 216.928 217.708 216.904C217.692 216.904 217.676 216.903 217.661 216.904L166.306 216.903Z" fill="#E6E6E6"/>
<path d="M166.306 223.436C165.705 223.436 165.218 223.923 165.218 224.524C165.218 225.125 165.705 225.612 166.306 225.612H217.624C218.226 225.636 218.732 225.167 218.755 224.566C218.777 223.965 218.309 223.459 217.708 223.436C217.692 223.436 217.676 223.436 217.661 223.436H166.306Z" fill="#E6E6E6"/>
<path d="M233.975 70.6913H149.998C149.14 70.6904 148.443 69.9947 148.442 69.1362V48.3055C148.444 47.4471 149.14 46.7516 149.998 46.7505H233.975C234.834 46.7516 235.529 47.4471 235.53 48.3055V69.1367C235.529 69.995 234.834 70.6902 233.975 70.6913ZM149.998 47.3723C149.483 47.3728 149.065 47.7903 149.065 48.3055V69.1367C149.065 69.6519 149.483 70.0694 149.998 70.0699H233.975C234.49 70.0694 234.908 69.6519 234.908 69.1367V48.3055C234.908 47.7903 234.49 47.3728 233.975 47.3723H149.998Z" fill="#E6E6E6"/>
<path d="M175.968 54.3662C175.366 54.3662 174.879 54.8536 174.879 55.4549C174.879 56.0561 175.366 56.5435 175.968 56.5435H227.287C227.888 56.5664 228.394 56.098 228.416 55.4971C228.44 54.8962 227.971 54.3904 227.371 54.3674C227.354 54.3668 227.338 54.3665 227.323 54.3666L175.968 54.3662Z" fill="#E6E6E6"/>
<path d="M175.968 60.8975C175.366 60.8975 174.879 61.3849 174.879 61.9861C174.879 62.5873 175.366 63.0747 175.968 63.0747H227.287C227.888 63.0978 228.394 62.6293 228.416 62.0285C228.44 61.4275 227.971 60.9217 227.371 60.8986C227.354 60.8981 227.338 60.8978 227.323 60.8979L175.968 60.8975Z" fill="#E6E6E6"/>
<path d="M160.883 65.2519C164.49 65.2519 167.415 62.3277 167.415 58.7205C167.415 55.1132 164.49 52.189 160.883 52.189C157.276 52.189 154.352 55.1132 154.352 58.7205C154.352 62.3277 157.276 65.2519 160.883 65.2519Z" fill="#E6E6E6"/>
<path d="M346.156 136.444L334.634 135.652L331.186 141.086L322.884 144.461V171.239C323.747 173.831 324.194 176.545 324.207 179.277C324.175 184.612 322.804 190.897 323.278 192.273C327.92 205.733 353.446 192.273 353.446 192.273L352.982 177.885L353.612 145.369L348.396 141.209L346.156 136.444Z" fill="#6C63FF"/>
<path d="M324.764 143.749L324.629 143.771C322.063 144.206 319.877 145.878 318.786 148.24C317.383 151.275 315.425 195.255 315.425 195.255C315.425 195.255 320.659 194.858 323.263 196.103C323.263 196.103 324.439 189.626 323.735 188.5C323.031 187.373 324.349 176.109 324.349 176.109C327.214 168.621 326.084 156.297 324.764 143.749Z" fill="#6C63FF"/>
<path d="M361.503 201.712C361.494 204.435 360.08 206.639 358.346 206.633C356.612 206.627 355.216 204.413 355.225 201.689C355.229 200.496 355.502 199.403 355.954 198.553L356.14 187.01L361.554 187.212L360.796 198.57C361.242 199.424 361.507 200.519 361.503 201.712Z" fill="#FFB6B6"/>
<path d="M351.218 144.544L351.354 144.559C353.938 144.865 356.205 146.424 357.413 148.727C358.966 151.687 363.016 189.366 362.887 190.053C362.757 190.741 363.142 195.515 363.142 195.515C363.142 195.515 357.894 195.384 355.356 196.758L353.262 176.842L351.218 144.544Z" fill="#6C63FF"/>
<path d="M118.646 74.3586C117.972 74.3586 117.424 74.9067 117.424 75.5807V85.3566C117.424 86.0306 117.972 86.5787 118.646 86.5787C119.32 86.5787 119.868 86.0306 119.868 85.3566V75.5807C119.868 74.9067 119.32 74.3586 118.646 74.3586Z" fill="#3F3D56"/>
<path d="M118.646 103.687C117.972 103.687 117.424 104.234 117.424 104.909V123.85C117.424 124.523 117.972 125.071 118.646 125.071C119.32 125.071 119.868 124.523 119.868 123.85V104.909C119.868 104.234 119.32 103.687 118.646 103.687Z" fill="#3F3D56"/>
<path d="M118.646 130.571C117.972 130.571 117.424 131.119 117.424 131.793V150.734C117.424 151.408 117.972 151.956 118.646 151.956C119.32 151.956 119.868 151.408 119.868 150.734V131.793C119.868 131.119 119.32 130.571 118.646 130.571Z" fill="#3F3D56"/>
<path d="M202.192 113.093C204.448 113.093 206.278 111.263 206.278 109.007C206.278 106.75 204.448 104.921 202.192 104.921C199.935 104.921 198.106 106.75 198.106 109.007C198.106 111.263 199.935 113.093 202.192 113.093Z" fill="#E6E6E6"/>
<path d="M220.226 108.341C220.063 108.059 219.769 107.888 219.442 107.888C219.115 107.888 218.821 108.059 218.658 108.341L216.901 112.276C216.203 107.694 213.616 103.725 210.371 99.9697C210.13 99.5571 209.706 99.3113 209.228 99.3113C208.749 99.3113 208.324 99.5571 208.083 99.9697C206.549 106.838 202.343 113.466 196.791 119.971C196.308 121.178 197.196 122.49 198.495 122.49H224.741C226.4 122.49 227.576 120.87 227.062 119.293C226.093 114.854 224.069 111.051 220.226 108.341Z" fill="#6C63FF"/>
<path d="M212.243 89.3955C199.402 89.3955 188.954 99.8427 188.954 112.685C188.954 117.89 190.67 122.702 193.571 126.584C197.82 132.28 204.607 135.973 212.243 135.973C220.092 135.973 227.045 132.071 231.266 126.106C233.95 122.31 235.532 117.677 235.532 112.685C235.532 99.8427 225.084 89.3955 212.243 89.3955ZM230.813 125.321C226.763 131.254 219.948 135.156 212.243 135.156C204.745 135.156 198.098 131.466 194.016 125.812C191.344 122.118 189.771 117.579 189.771 112.685C189.771 100.293 199.851 90.2127 212.243 90.2127C224.631 90.2127 234.715 100.293 234.715 112.685C234.715 117.366 233.276 121.718 230.813 125.321Z" fill="#E6E6E6"/>
<path d="M188.875 120.483C189.942 118.897 191.625 118.161 192.635 118.839C193.644 119.518 193.598 121.354 192.531 122.941C192.064 123.636 191.479 124.167 190.884 124.488L186.28 131.153L183.198 128.927L188.064 122.592C188.137 121.92 188.408 121.178 188.875 120.483Z" fill="#FFB6B6"/>
<path d="M187.936 129.388L175.336 143.859L174.176 145.191L168.778 143.238L160.451 140.219H160.447L154.22 137.963C154.286 137.412 154.376 136.865 154.494 136.321C154.621 135.725 154.776 135.132 154.964 134.547C155.528 132.782 156.357 131.104 157.428 129.575C157.828 129.739 158.228 129.935 158.633 130.159L167.916 134.18L173.08 136.415L175.192 134.356L184.291 125.481L185.141 126.393L185.146 126.396L187.682 129.118L187.687 129.122L187.936 129.388Z" fill="#6C63FF"/>
<path d="M178.445 160.329L157.346 159.417C157.66 158.768 157.183 158.094 157.342 157.526C157.485 157.031 158.285 156.635 158.31 156.173C158.457 153.673 158.077 149.604 155.209 145.236C154.617 144.329 154.326 143.144 154.191 141.824C154.057 140.525 154.069 139.234 154.22 137.963C154.286 137.411 154.375 136.865 154.494 136.321C154.62 135.725 154.776 135.132 154.964 134.547C155.527 132.782 156.357 131.103 157.427 129.575C157.497 129.469 157.571 129.367 157.644 129.265C158.041 128.717 158.465 128.19 158.923 127.683C159.45 127.099 160.018 126.544 160.618 126.021L161.53 125.233L170.004 124.08L174.437 132.86L175.192 134.356L176.01 135.974C175.54 138.176 175.331 140.132 175.298 141.918C175.287 142.589 175.298 143.234 175.336 143.859C175.388 144.835 175.486 145.763 175.626 146.654C175.961 148.839 176.496 150.826 176.998 152.836C177.264 153.886 177.517 154.94 177.726 156.034C177.823 156.55 178.857 157.563 179.004 158.029C179.205 158.654 178.143 159.802 178.445 160.329Z" fill="#6C63FF"/>
<path d="M194.377 142.717C196.143 141.985 197.952 142.302 198.418 143.426C198.884 144.549 197.83 146.054 196.065 146.787C195.292 147.107 194.511 147.227 193.838 147.166L186.317 150.176L184.979 146.617L192.535 144.027C192.967 143.507 193.604 143.038 194.377 142.717Z" fill="#FFB6B6"/>
<path d="M154.964 134.548C154.776 135.132 154.621 135.724 154.494 136.321L168.468 155.184L176.999 152.835L188.676 149.62L188.615 149.256L188.002 145.579L187.798 144.35L175.626 146.653L172.411 147.262L166.973 138.899H166.968L163.826 134.066C162.34 131.185 160.08 129.526 157.645 129.265L154.964 134.548Z" fill="#6C63FF"/>
<path d="M233.975 194.929C235.338 194.929 236.443 193.824 236.443 192.461C236.443 191.098 235.338 189.993 233.975 189.993C232.612 189.993 231.507 191.098 231.507 192.461C231.507 193.824 232.612 194.929 233.975 194.929Z" fill="#E6E6E6"/>
<path d="M340.796 133.988C345.759 133.988 349.783 129.964 349.783 125.001C349.783 120.038 345.759 116.015 340.796 116.015C335.833 116.015 331.81 120.038 331.81 125.001C331.81 129.964 335.833 133.988 340.796 133.988Z" fill="#FFB6B6"/>
<path d="M347.049 132.693C348.299 131.715 348.421 129.851 349.487 128.675C351.27 126.711 352.108 124.596 351.174 122.269C350.348 120.209 350.524 117.677 348.744 116.352C349.618 116.036 346.594 116.352 347.527 115.114C348.46 113.875 346.694 114.364 346.811 113.857C346.928 113.35 345.338 112.422 344.306 113.433C344.15 113.585 344.014 113.756 343.901 113.942C342.85 112.367 339.976 111.751 338.366 112.751C336.786 113.731 337.792 115.121 336.094 114.83C335.296 114.692 333.572 114.581 333.026 115.18C332.514 115.827 334.131 117.147 333.309 117.069C332.513 116.918 330.474 119.53 330.474 119.53L329.718 118.603C328.516 119.386 328.911 121.43 330.12 122.199C330.575 122.488 331.627 123.209 332.156 123.274C332.583 123.328 332.939 121.277 333.381 121.232C333.845 121.184 333.85 122.572 334.294 122.463C335.971 122.052 337.703 121.909 339.425 122.039C342.054 122.411 343.887 125.553 342.912 128.026C343.923 127.034 345.792 127.857 346.315 129.172C346.839 130.489 345.403 130.998 345.015 132.361" fill="#2F2E41"/>
<path d="M318.317 282.66H185.683C180.344 282.66 176 278.315 176 272.976V172.683C176 167.344 180.344 163 185.683 163H318.317C323.656 163 328 167.344 328 172.683V272.976C328 278.315 323.656 282.66 318.317 282.66Z" fill="white"/>
<path d="M318.317 282.66H185.683C180.344 282.66 176 278.315 176 272.976V172.683C176 167.344 180.344 163 185.683 163H318.317C323.656 163 328 167.344 328 172.683V272.976C328 278.315 323.656 282.66 318.317 282.66ZM185.683 164.617C181.236 164.617 177.617 168.236 177.617 172.683V272.976C177.617 277.424 181.236 281.043 185.683 281.043H318.317C322.764 281.043 326.383 277.424 326.383 272.976V172.683C326.383 168.236 322.764 164.617 318.317 164.617H185.683Z" fill="#3F3D56"/>
<path d="M303.745 175.128C305.084 175.128 306.17 174.042 306.17 172.702C306.17 171.363 305.084 170.277 303.745 170.277C302.405 170.277 301.319 171.363 301.319 172.702C301.319 174.042 302.405 175.128 303.745 175.128Z" fill="#3F3D56"/>
<path d="M310.213 175.128C311.552 175.128 312.638 174.042 312.638 172.702C312.638 171.363 311.552 170.277 310.213 170.277C308.873 170.277 307.787 171.363 307.787 172.702C307.787 174.042 308.873 175.128 310.213 175.128Z" fill="#3F3D56"/>
<path d="M316.681 175.128C318.02 175.128 319.106 174.042 319.106 172.702C319.106 171.363 318.02 170.277 316.681 170.277C315.341 170.277 314.255 171.363 314.255 172.702C314.255 174.042 315.341 175.128 316.681 175.128Z" fill="#3F3D56"/>
<path d="M189.745 211.915C189.076 211.915 188.532 212.459 188.532 213.128C188.532 213.454 188.658 213.755 188.887 213.978C189.117 214.214 189.419 214.34 189.745 214.34H315.064C315.733 214.34 316.277 213.796 316.277 213.128C316.277 212.801 316.151 212.5 315.922 212.277C315.692 212.041 315.39 211.915 315.064 211.915H189.745Z" fill="#E6E6E6"/>
<path d="M292.426 211.511V214.745H189.745C189.3 214.745 188.896 214.567 188.605 214.268C188.306 213.977 188.128 213.572 188.128 213.128C188.128 212.238 188.855 211.511 189.745 211.511H292.426Z" fill="#6C63FF"/>
<path d="M313.042 205.447H296.872C295.089 205.447 293.638 203.996 293.638 202.213C293.638 200.429 295.089 198.979 296.872 198.979H313.042C314.826 198.979 316.276 200.429 316.276 202.213C316.276 203.996 314.826 205.447 313.042 205.447Z" fill="#E6E6E6"/>
<path d="M207.128 188.468H190.957C189.174 188.468 187.723 187.018 187.723 185.234C187.723 183.45 189.174 182 190.957 182H207.128C208.911 182 210.362 183.45 210.362 185.234C210.362 187.018 208.911 188.468 207.128 188.468Z" fill="#E6E6E6"/>
<path d="M189.745 248.298C189.076 248.298 188.532 248.842 188.532 249.511C188.532 249.837 188.658 250.138 188.887 250.361C189.117 250.597 189.419 250.723 189.745 250.723H315.064C315.733 250.723 316.277 250.179 316.277 249.511C316.277 249.185 316.151 248.883 315.922 248.66C315.692 248.424 315.39 248.298 315.064 248.298H189.745Z" fill="#E6E6E6"/>
<path d="M230.17 247.894V251.128H189.745C189.3 251.128 188.896 250.95 188.605 250.651C188.306 250.359 188.128 249.955 188.128 249.511C188.128 248.621 188.855 247.894 189.745 247.894H230.17Z" fill="#6C63FF"/>
<path d="M313.042 241.83H296.872C295.089 241.83 293.638 240.379 293.638 238.596C293.638 236.812 295.089 235.362 296.872 235.362H313.042C314.826 235.362 316.276 236.812 316.276 238.596C316.276 240.379 314.826 241.83 313.042 241.83Z" fill="#E6E6E6"/>
</g>
<defs>
<clipPath id="clip0_8_82">
<rect width="390" height="291.14" fill="white"/>
</clipPath>
</defs>
</svg>
