<svg width="430" height="321" viewBox="0 0 430 321" fill="none" xmlns="http://www.w3.org/2000/svg">
<path d="M316.016 202.132C316.155 255.799 262.915 252.475 175.441 252.702C155.997 252.753 119.817 297.662 102.601 293.775L102.596 293.775C101.962 293.634 101.333 293.487 100.704 293.336C100.525 293.298 100.345 293.256 100.171 293.211C99.1831 292.98 98.2005 292.74 97.2232 292.493C95.2104 291.987 93.2187 291.454 91.2533 290.902C90.2336 290.613 89.2192 290.321 88.2153 290.019C78.8952 287.242 70.0858 283.916 61.8981 280.111C57.7751 278.198 53.805 276.158 50.0141 274.011C46.8735 272.231 43.8541 270.377 40.9665 268.447C40.0569 267.844 39.1684 267.234 38.2904 266.617C37.9308 266.369 37.5817 266.121 37.2379 265.872C34.7466 264.094 32.3661 262.257 30.0911 260.368C29.3556 259.758 28.6307 259.141 27.9164 258.518C23.0642 254.287 18.7498 249.803 15.0314 245.109C4.95687 232.374 -0.708138 218.075 -0.747437 202.955C-0.886917 149.288 69.9074 105.601 157.382 105.373C244.856 105.146 315.876 148.465 316.016 202.132Z" fill="#F2F2F2"/>
<path d="M364.427 316.576L359.908 316.575L357.759 299.146L364.428 299.147L364.427 316.576Z" fill="#FFB6B6"/>
<path d="M348.945 316.473C348.805 316.71 348.73 317.475 348.73 317.75C348.73 318.597 349.417 319.284 350.264 319.284H364.258C364.835 319.284 365.304 318.816 365.304 318.238V317.655C365.304 317.655 365.996 315.904 364.571 313.746C364.571 313.746 362.8 315.436 360.153 312.789L359.372 311.375L353.722 315.507L350.59 315.893C349.905 315.977 349.298 315.879 348.945 316.473Z" fill="#2F2E41"/>
<path d="M381.545 316.575L377.026 316.575L374.877 299.146L381.546 299.146L381.545 316.575Z" fill="#FFB6B6"/>
<path d="M366.064 316.473C365.923 316.71 365.849 317.475 365.849 317.75C365.849 318.597 366.535 319.284 367.382 319.284H381.376C381.954 319.284 382.422 318.815 382.422 318.238V317.655C382.422 317.655 383.114 315.904 381.689 313.746C381.689 313.746 379.918 315.436 377.271 312.789L376.49 311.375L370.84 315.507L367.709 315.892C367.023 315.977 366.416 315.879 366.064 316.473Z" fill="#2F2E41"/>
<path d="M355.718 211.976L355.618 308.765H367.455L373.046 237.192L373.206 308.765L384.146 308.637L392.615 226.303C392.615 226.303 393.755 217.706 390.163 213.313C386.57 208.919 355.718 211.976 355.718 211.976Z" fill="#2F2E41"/>
<path d="M355.455 222.993C355.696 225.987 354.347 228.539 352.441 228.692C350.536 228.846 348.796 226.543 348.555 223.549C348.449 222.238 348.649 221.012 349.066 220.035L348.203 207.336L354.171 207.058L354.388 219.607C354.956 220.504 355.349 221.683 355.455 222.993Z" fill="#FFB6B6"/>
<path d="M289.521 76.0824V27.8914C289.521 12.4874 277.034 3.82221e-09 261.63 3.82221e-09H159.529C144.125 -0.000252265 131.637 12.487 131.637 27.891V292.27C131.637 307.674 144.124 320.162 159.528 320.162H261.628C277.032 320.162 289.52 307.674 289.52 292.27V110.386C290.49 110.386 291.277 109.599 291.277 108.629L291.278 77.8393C291.278 76.869 290.492 76.0824 289.521 76.0824Z" fill="#3F3D56"/>
<path d="M284.283 25.5723V293.687C267.983 292.685 251.845 311.375 263.137 314.837H158.941C147.257 314.839 137.784 305.37 137.78 293.687V25.5723C137.784 13.8892 147.257 4.42038 158.94 4.42188H166.624C164.531 9.56798 181.42 11.2423 182.715 11.2439H236.079C241.634 11.2369 255.036 5.62122 254.549 4.42188H263.133C274.811 4.42388 284.279 13.8896 284.283 25.5683L284.283 25.5723Z" fill="white"/>
<path d="M257.972 212.886H165.382C164.436 212.885 163.668 212.118 163.667 211.171V188.204C163.669 187.258 164.436 186.491 165.382 186.49H257.972C258.919 186.491 259.686 187.258 259.687 188.204V211.172C259.685 212.118 258.918 212.885 257.972 212.886ZM165.382 187.175C164.814 187.176 164.354 187.636 164.353 188.204V211.172C164.354 211.74 164.814 212.2 165.382 212.201H257.972C258.54 212.2 259.001 211.74 259.001 211.172V188.204C259.001 187.636 258.54 187.176 257.972 187.175H165.382Z" fill="#E6E6E6"/>
<path d="M257.972 257.15H165.382C164.436 257.149 163.668 256.382 163.667 255.435V232.468C163.669 231.521 164.436 230.755 165.382 230.753H257.972C258.919 230.755 259.686 231.521 259.687 232.468V255.436C259.686 256.382 258.919 257.149 257.972 257.15V257.15ZM165.382 231.439C164.814 231.439 164.354 231.9 164.353 232.468V255.436C164.354 256.004 164.814 256.464 165.382 256.464H257.972C258.54 256.464 259.001 256.004 259.001 255.436V232.468C259.001 231.9 258.54 231.439 257.972 231.439H165.382Z" fill="#E6E6E6"/>
<path d="M429.424 321H96.7261C96.2436 321 95.853 320.789 95.853 320.529C95.853 320.269 96.244 320.059 96.7261 320.059H429.424C429.906 320.059 430.297 320.269 430.297 320.529C430.297 320.789 429.906 321 429.424 321Z" fill="#E6E6E6"/>
<path d="M170.29 118.201C170.394 118.086 170.498 117.976 170.605 117.864C173.218 115.116 174.591 113.487 177.78 113.487C178.372 113.487 180.98 113.514 181.521 113.568C183.76 113.787 185.551 114.462 186.893 115.592C188.875 117.261 189.869 119.91 189.874 123.539C189.874 123.74 189.886 124.114 189.904 124.611C190.022 127.507 192.009 130.582 192.395 131.627C193.021 133.328 192.009 138.777 191.198 139.888C190.727 140.537 190.632 138.91 189.184 139.215C188.918 139.272 187.806 141.422 187.505 141.464C185.952 141.67 184.386 141.762 182.82 141.741C182.615 141.741 182.409 141.741 182.194 141.737H182.192C181.45 141.732 180.657 141.711 179.816 141.679C177.583 141.633 175.359 141.385 173.17 140.937H173.168C172.879 140.872 172.595 140.798 172.318 140.72L172.267 140.706L172.244 140.661C171.848 139.855 171.622 138.976 171.581 138.08C171.157 138.651 170.845 139.297 170.661 139.984L170.626 140.116L169.925 137.845C168.948 137.425 168.677 138.965 168.047 138.108C167.444 137.215 167.083 136.18 166.998 135.106C166.682 132.188 167.882 120.886 170.29 118.201Z" fill="#2F2E41"/>
<path d="M169.51 212.042H183.359L185.681 200.56L186.434 212.042H200.2C200.206 203.532 196.698 182.566 197.118 182.39C197.538 182.214 196.904 181.655 196.904 181.655L194.659 173.946L194.448 173.22H178.418C177.496 174.087 176.645 175.027 175.874 176.03C175.613 176.363 175.34 176.724 175.061 177.111C174.866 177.386 174.666 177.675 174.465 177.978C172.678 180.637 171.343 183.573 170.513 186.667V186.669C170.372 187.198 170.247 187.739 170.139 188.293V188.296C170.042 188.788 169.956 189.287 169.889 189.797C169.838 190.17 169.794 190.546 169.762 190.927C169.569 193.039 169.637 195.167 169.963 197.263L169.51 212.042Z" fill="#2F2E41"/>
<path d="M181.367 133.93C185.831 133.93 189.451 130.31 189.451 125.846C189.451 121.381 185.831 117.761 181.367 117.761C176.902 117.761 173.282 121.381 173.282 125.846C173.282 130.31 176.902 133.93 181.367 133.93Z" fill="#FFB6B6"/>
<path d="M176.055 115.798H183.969C184.926 115.575 185.913 115.506 186.892 115.592C188.095 115.684 189.245 116.128 190.197 116.87C191.613 118.007 192.394 119.819 192.394 121.972C192.39 122.661 192.532 123.567 192.394 124.242L191.432 122.656L191.178 124.242C190.448 124.429 190.637 124.466 189.903 124.611C189.727 124.646 189.55 124.681 189.372 124.713C188.41 124.891 187.494 125.231 187.494 125.231L186.402 125.106C185.72 124.479 185.606 122.93 185.241 122.078C185.17 122.326 185.082 122.764 184.996 123.239C184.776 124.46 183.71 125.354 182.469 125.355L182.448 125.355C179.412 125.353 179.413 123.002 176.465 122.275C176.271 122.23 178.253 135.972 178.061 135.921L171.989 132.018L172.773 119.079C172.775 117.268 174.243 115.8 176.055 115.798Z" fill="#2F2E41"/>
<path d="M167.758 115.081C166.3 118.06 167.36 118.73 170.34 120.187C173.319 121.645 177.09 123.338 178.547 120.359C180.005 117.379 177.452 114.945 174.473 113.487C175.109 111.018 170.848 109.886 168.78 113.602C169.491 114.196 167.855 115.81 168.207 116.666C167.481 116.08 168.739 114.958 167.813 115.071C167.795 115.074 167.777 115.077 167.758 115.081Z" fill="#2F2E41"/>
<path d="M257.972 257.15H165.382C164.436 257.149 163.668 256.382 163.667 255.435V232.468C163.669 231.521 164.436 230.755 165.382 230.753H257.972C258.919 230.755 259.686 231.521 259.687 232.468V255.436C259.686 256.382 258.919 257.149 257.972 257.15V257.15ZM165.382 231.439C164.814 231.439 164.354 231.9 164.353 232.468V255.436C164.354 256.004 164.814 256.464 165.382 256.464H257.972C258.54 256.464 259.001 256.004 259.001 255.436V232.468C259.001 231.9 258.54 231.439 257.972 231.439H165.382Z" fill="#E6E6E6"/>
<path d="M183.363 239.15C182.7 239.15 182.163 239.688 182.163 240.35C182.163 241.013 182.7 241.551 183.363 241.551H239.945C240.608 241.576 241.166 241.06 241.191 240.397C241.216 239.735 240.7 239.177 240.037 239.151C240.02 239.151 240.002 239.15 239.985 239.151L183.363 239.15Z" fill="#E6E6E6"/>
<path d="M183.363 246.352C182.7 246.352 182.163 246.889 182.163 247.552C182.163 248.215 182.7 248.752 183.363 248.752H239.945C240.608 248.778 241.166 248.261 241.191 247.598C241.216 246.936 240.7 246.378 240.037 246.353C240.02 246.352 240.002 246.352 239.985 246.352L183.363 246.352Z" fill="#E6E6E6"/>
<path d="M257.972 77.9415H165.382C164.436 77.9405 163.668 77.1734 163.667 76.2269V53.2597C163.669 52.3133 164.436 51.5464 165.382 51.5452H257.972C258.919 51.5464 259.686 52.3133 259.687 53.2597V76.2274C259.686 77.1738 258.919 77.9407 257.972 77.9419V77.9415ZM165.382 52.2308C164.814 52.2313 164.354 52.6917 164.353 53.2597V76.2274C164.354 76.7955 164.814 77.2558 165.382 77.2563H257.972C258.54 77.2558 259.001 76.7955 259.001 76.2274V53.2597C259.001 52.6917 258.54 52.2313 257.972 52.2308H165.382Z" fill="#E6E6E6"/>
<path d="M194.016 59.9423C193.353 59.9423 192.816 60.4797 192.816 61.1426C192.816 61.8055 193.353 62.3429 194.016 62.3429H250.599C251.261 62.3682 251.819 61.8517 251.844 61.1892C251.87 60.5266 251.353 59.969 250.691 59.9436C250.673 59.9429 250.655 59.9426 250.638 59.9427L194.016 59.9423Z" fill="#E6E6E6"/>
<path d="M194.016 67.1434C193.353 67.1434 192.816 67.6808 192.816 68.3437C192.816 69.0066 193.353 69.544 194.016 69.544H250.599C251.261 69.5694 251.819 69.0529 251.844 68.3904C251.87 67.7278 251.353 67.1701 250.691 67.1447C250.673 67.1441 250.655 67.1438 250.638 67.1439L194.016 67.1434Z" fill="#E6E6E6"/>
<path d="M177.384 71.9442C181.361 71.9442 184.585 68.7201 184.585 64.7429C184.585 60.7657 181.361 57.5415 177.384 57.5415C173.407 57.5415 170.183 60.7657 170.183 64.7429C170.183 68.7201 173.407 71.9442 177.384 71.9442Z" fill="#E6E6E6"/>
<path d="M381.659 150.438L368.955 149.565L365.154 155.556L356 159.278V188.802C356.952 191.66 357.445 194.652 357.459 197.665C357.424 203.547 355.912 210.476 356.435 211.993C361.553 226.834 389.697 211.993 389.697 211.993L389.185 196.13L389.88 160.279L384.129 155.692L381.659 150.438Z" fill="#E6E6E6"/>
<path d="M358.073 158.492L357.924 158.517C355.095 158.996 352.685 160.84 351.482 163.444C349.935 166.79 347.776 215.281 347.776 215.281C347.776 215.281 353.547 214.844 356.418 216.216C356.418 216.216 357.715 209.075 356.938 207.833C356.162 206.591 357.616 194.171 357.616 194.171C360.774 185.915 359.528 172.328 358.073 158.492Z" fill="#E6E6E6"/>
<path d="M398.58 222.4C398.57 225.403 397.011 227.833 395.1 227.826C393.188 227.819 391.648 225.379 391.658 222.375C391.663 221.06 391.964 219.855 392.462 218.917L392.667 206.19L398.637 206.413L397.801 218.936C398.292 219.878 398.585 221.085 398.58 222.4Z" fill="#FFB6B6"/>
<path d="M387.24 159.369L387.391 159.386C390.239 159.723 392.739 161.442 394.071 163.981C395.783 167.245 400.249 208.788 400.106 209.546C399.963 210.304 400.387 215.568 400.387 215.568C400.387 215.568 394.601 215.423 391.803 216.938L389.494 194.98L387.24 159.369Z" fill="#E6E6E6"/>
<path d="M130.815 81.9852C130.072 81.9852 129.468 82.5895 129.468 83.3326V94.1112C129.468 94.8543 130.072 95.4586 130.815 95.4586C131.558 95.4586 132.162 94.8543 132.162 94.1112V83.3326C132.162 82.5895 131.558 81.9852 130.815 81.9852Z" fill="#3F3D56"/>
<path d="M130.815 114.321C130.072 114.321 129.468 114.925 129.468 115.669V136.552C129.468 137.295 130.072 137.899 130.815 137.899C131.558 137.899 132.162 137.295 132.162 136.552V115.669C132.162 114.925 131.558 114.321 130.815 114.321Z" fill="#3F3D56"/>
<path d="M130.815 143.963C130.072 143.963 129.468 144.567 129.468 145.31V166.194C129.468 166.937 130.072 167.541 130.815 167.541C131.558 167.541 132.162 166.937 132.162 166.194V145.31C132.162 144.567 131.558 143.963 130.815 143.963Z" fill="#3F3D56"/>
<path d="M222.929 124.692C225.417 124.692 227.434 122.675 227.434 120.187C227.434 117.699 225.417 115.682 222.929 115.682C220.441 115.682 218.424 117.699 218.424 120.187C218.424 122.675 220.441 124.692 222.929 124.692Z" fill="#E6E6E6"/>
<path d="M242.813 119.453C242.633 119.142 242.309 118.953 241.949 118.953C241.588 118.953 241.264 119.142 241.084 119.453L239.147 123.791C238.378 118.739 235.525 114.363 231.948 110.223C231.682 109.768 231.214 109.497 230.687 109.497C230.159 109.497 229.691 109.768 229.425 110.223C227.733 117.796 223.096 125.103 216.975 132.276C216.442 133.606 217.421 135.053 218.853 135.053H247.791C249.621 135.053 250.917 133.267 250.35 131.528C249.282 126.634 247.05 122.441 242.813 119.453Z" fill="#6C63FF"/>
<path d="M234.011 98.5643C219.853 98.5643 208.334 110.083 208.334 124.242C208.334 129.981 210.226 135.287 213.424 139.567C218.109 145.847 225.592 149.919 234.011 149.919C242.665 149.919 250.332 145.617 254.986 139.04C257.945 134.855 259.689 129.747 259.689 124.242C259.689 110.083 248.17 98.5643 234.011 98.5643ZM254.486 138.175C250.021 144.716 242.507 149.018 234.011 149.018C225.745 149.018 218.416 144.95 213.915 138.716C210.969 134.643 209.235 129.638 209.235 124.242C209.235 110.579 220.348 99.4653 234.011 99.4653C247.67 99.4653 258.788 110.579 258.788 124.242C258.788 129.404 257.202 134.202 254.486 138.175Z" fill="#E6E6E6"/>
<path d="M208.247 132.84C209.423 131.091 211.279 130.28 212.392 131.028C213.505 131.776 213.454 133.801 212.278 135.55C211.763 136.316 211.118 136.902 210.462 137.256L205.386 144.605L201.988 142.15L207.353 135.165C207.433 134.424 207.732 133.606 208.247 132.84Z" fill="#FFB6B6"/>
<path d="M207.212 142.658L193.319 158.614L192.04 160.082L186.089 157.929L176.908 154.6H176.903L170.038 152.113C170.11 151.505 170.209 150.902 170.34 150.303C170.48 149.645 170.651 148.992 170.858 148.347C171.48 146.401 172.394 144.55 173.574 142.865C174.016 143.045 174.457 143.262 174.903 143.509L185.138 147.942L190.832 150.406L193.161 148.136L203.193 138.351L204.13 139.356L204.135 139.36L206.932 142.361L206.937 142.365L207.212 142.658Z" fill="#6C63FF"/>
<path d="M196.747 176.773L173.484 175.768C173.831 175.052 173.304 174.309 173.48 173.682C173.637 173.137 174.52 172.7 174.547 172.191C174.709 169.434 174.29 164.948 171.128 160.132C170.475 159.132 170.155 157.826 170.006 156.37C169.858 154.938 169.871 153.514 170.038 152.113C170.11 151.505 170.209 150.902 170.34 150.303C170.479 149.645 170.651 148.992 170.858 148.347C171.479 146.401 172.394 144.55 173.574 142.865C173.651 142.748 173.732 142.635 173.813 142.523C174.25 141.919 174.718 141.338 175.223 140.779C175.804 140.135 176.43 139.523 177.092 138.946L178.097 138.077L187.44 136.806L192.328 146.487L193.161 148.136L194.062 149.92C193.544 152.348 193.314 154.505 193.278 156.474C193.265 157.213 193.278 157.925 193.319 158.614C193.377 159.69 193.485 160.713 193.639 161.695C194.008 164.105 194.598 166.295 195.152 168.511C195.445 169.669 195.724 170.831 195.954 172.038C196.062 172.606 197.202 173.723 197.364 174.237C197.585 174.926 196.414 176.192 196.747 176.773Z" fill="#6C63FF"/>
<path d="M214.313 157.355C216.26 156.548 218.255 156.897 218.769 158.136C219.283 159.375 218.121 161.034 216.174 161.842C215.322 162.195 214.461 162.327 213.719 162.26L205.427 165.579L203.952 161.655L212.282 158.799C212.759 158.226 213.461 157.709 214.313 157.355Z" fill="#FFB6B6"/>
<path d="M170.858 148.348C170.651 148.992 170.48 149.645 170.34 150.303L185.747 171.101L195.153 168.511L208.027 164.966L207.96 164.565L207.284 160.51L207.059 159.155L193.639 161.695L190.094 162.366L184.098 153.145H184.093L180.629 147.816C178.99 144.64 176.498 142.811 173.814 142.523L170.858 148.348Z" fill="#6C63FF"/>
<path d="M257.972 214.922C259.475 214.922 260.693 213.703 260.693 212.201C260.693 210.698 259.475 209.48 257.972 209.48C256.469 209.48 255.251 210.698 255.251 212.201C255.251 213.703 256.469 214.922 257.972 214.922Z" fill="#E6E6E6"/>
<path d="M375.75 147.73C381.222 147.73 385.658 143.294 385.658 137.822C385.658 132.35 381.222 127.914 375.75 127.914C370.278 127.914 365.842 132.35 365.842 137.822C365.842 143.294 370.278 147.73 375.75 147.73Z" fill="#FFB6B6"/>
<path d="M382.644 146.303C384.022 145.224 384.156 143.169 385.332 141.873C387.298 139.707 388.222 137.375 387.192 134.809C386.281 132.538 386.475 129.747 384.513 128.286C385.476 127.937 382.142 128.286 383.171 126.921C384.199 125.555 382.252 126.094 382.381 125.535C382.51 124.976 380.757 123.952 379.619 125.067C379.447 125.235 379.298 125.423 379.173 125.628C378.014 123.892 374.845 123.213 373.07 124.315C371.328 125.396 372.437 126.928 370.565 126.607C369.685 126.455 367.785 126.333 367.183 126.993C366.618 127.707 368.401 129.162 367.495 129.076C366.617 128.91 364.369 131.79 364.369 131.79L363.535 130.768C362.21 131.631 362.645 133.884 363.979 134.732C364.48 135.051 365.64 135.846 366.223 135.918C366.694 135.977 367.087 133.716 367.574 133.666C368.086 133.613 368.091 135.144 368.581 135.023C370.43 134.57 372.339 134.413 374.238 134.556C377.137 134.966 379.157 138.43 378.083 141.157C379.197 140.063 381.258 140.971 381.835 142.421C382.412 143.872 380.829 144.434 380.401 145.936" fill="#2F2E41"/>
</svg>
