<svg width="129" height="20" viewBox="0 0 129 20" fill="none" xmlns="http://www.w3.org/2000/svg">
<path d="M8.83346 8.60833C8.77099 6.62919 7.39592 5.6083 5.37503 5.6083C3.58338 5.6083 2.04169 6.60831 1.7083 8.60833H8.83346ZM0 9.39989C0 6.2958 2.22918 4.06653 5.33343 4.06653C8.25011 4.06653 10.521 5.67077 10.521 9.1708C10.521 9.44164 10.5001 9.73328 10.4793 10.025H1.7083C1.89587 12.025 3.50003 13.2542 5.45845 13.2542C6.60428 13.2542 8.06262 12.8166 8.72924 11.9833L9.89594 13.0042H9.87506C8.79179 14.2542 7.02094 14.8375 5.41678 14.8375C2.22918 14.8375 0 12.7542 0 9.39989Z" fill="#007377"/>
<path d="M11.4805 4.29286H13.3555L15.043 8.31369L16.7722 12.7929L18.5014 8.33449L20.1681 4.29286H22.0639L17.7097 14.6054H15.8556L11.4805 4.29286Z" fill="#007377"/>
<path d="M31.8959 8.60833C31.8333 6.62919 30.4583 5.6083 28.4374 5.6083C26.6457 5.6083 25.1041 6.60831 24.7708 8.60833H31.8959ZM23.0625 9.39989C23.0625 6.2958 25.2917 4.06653 28.3959 4.06653C31.3125 4.06653 33.5833 5.67077 33.5833 9.1708C33.5833 9.44164 33.5626 9.73328 33.5417 10.025H24.7708C24.9583 12.025 26.5625 13.2542 28.5208 13.2542C29.6666 13.2542 31.125 12.8166 31.7917 11.9833L32.9584 13.0042H32.9375C31.8542 14.2542 30.0833 14.8375 28.4791 14.8375C25.2917 14.8375 23.0625 12.7542 23.0625 9.39989Z" fill="#007377"/>
<path d="M35.918 4.29174H37.5013L37.6471 5.81247C38.418 4.45836 39.7097 4.0625 40.8764 4.0625C41.7513 4.0625 42.5847 4.43756 43.2097 4.87502L42.4389 6.33335C41.8764 5.93758 41.3764 5.75 40.6472 5.75C39.0013 5.75 37.6264 6.95838 37.6264 8.83338V14.5835H35.918V4.29174Z" fill="#007377"/>
<path d="M44.959 0.0032568H46.6465V14.5867H44.959V0.0032568Z" fill="#007377"/>
<path d="M49.9792 16.0897H51.625C51.8542 17.6522 52.9167 18.3397 54.6668 18.3397C56.375 18.3397 57.8542 17.2563 57.8542 14.8813V12.9439C56.9583 14.2772 55.6875 14.7981 54.2501 14.8188C51.6459 14.8188 49.75 12.9855 49.75 9.98545V4.29799H51.4583V9.96473C51.4583 11.9855 52.625 13.2564 54.6043 13.2564C56.5001 13.2564 57.7709 11.6522 57.7709 9.81883V4.29799H59.5001V14.9021C59.5001 18.3606 57.2917 19.9439 54.6875 19.9439C51.8542 19.9439 50.1459 18.5273 49.9792 16.0897Z" fill="#007377"/>
<path d="M68.1465 -7.62939e-06H69.8131V6.00004C70.7299 4.64585 71.8757 4.08337 73.209 4.0625C76.105 4.0625 77.4174 6.00004 77.4174 8.83346V14.5835H75.709V8.83346C75.709 6.83336 74.8132 5.68753 72.9382 5.68753C71.0214 5.68753 69.8548 7.2501 69.8548 9.12517V14.5835H68.1465V-7.62939e-06Z" fill="#007377"/>
<path d="M88.6889 8.60833C88.6265 6.62919 87.2514 5.6083 85.2305 5.6083C83.4388 5.6083 81.8972 6.60831 81.5638 8.60833H88.6889ZM79.8555 9.39989C79.8555 6.2958 82.0847 4.06653 85.1889 4.06653C88.1056 4.06653 90.3764 5.67077 90.3764 9.1708C90.3764 9.44164 90.3556 9.73328 90.3348 10.025H81.5638C81.7513 12.025 83.3555 13.2542 85.3138 13.2542C86.4597 13.2542 87.9181 12.8166 88.5847 11.9833L89.7514 13.0042H89.7305C88.6473 14.2542 86.8763 14.8375 85.2722 14.8375C82.0847 14.8375 79.8555 12.7542 79.8555 9.39989Z" fill="#007377"/>
<path d="M101.167 9.46252C101.167 7.56656 99.9168 5.69157 97.4167 5.69157C95.375 5.69157 93.7083 7.08744 93.7083 9.50411C93.7083 11.775 95.375 13.2751 97.4167 13.2751C99.9168 13.2751 101.167 11.3791 101.167 9.46252ZM92.0625 9.44164C92.0625 5.96249 94.4376 4.06653 97.3542 4.06653C98.9792 4.06653 100.375 4.71236 101.167 6.17077L101.188 4.29578H102.854V14.5875H101.167L101.125 12.7751C100.313 14.1708 98.7501 14.8375 97.3335 14.8375C94.375 14.8375 92.0625 12.7959 92.0625 9.44164Z" fill="#007377"/>
<path d="M106.125 0.0032568H107.813V14.5867H106.125V0.0032568Z" fill="#007377"/>
<path d="M112.273 11.3374V5.75404H110.211V4.29578H112.273V1.48316L114.003 1.29567V4.29578H117.169V5.75404H113.982V11.3374C113.982 12.5457 114.357 13.3166 115.607 13.3166C116.065 13.3166 116.544 13.15 117.024 12.9208L117.524 14.3375C116.815 14.6708 116.128 14.8375 115.378 14.8375C113.253 14.8375 112.273 13.5457 112.273 11.3374Z" fill="#007377"/>
<path d="M119.543 -7.62939e-06H121.21V6.00004C122.126 4.64585 123.272 4.08337 124.605 4.0625C127.501 4.0625 128.814 6.00004 128.814 8.83346V14.5835H127.106V8.83346C127.106 6.83336 126.21 5.68753 124.335 5.68753C122.418 5.68753 121.251 7.2501 121.251 9.12517V14.5835H119.543V-7.62939e-06Z" fill="#007377"/>
</svg>
