<svg xmlns="http://www.w3.org/2000/svg" id="Isolation_Mode" data-name="Isolation Mode" viewBox="0 0 290.58 70.24"><g><path d="m98.17,49.83c-8.11,0-14.71-6.6-14.71-14.71s6.6-14.71,14.71-14.71c4.21,0,8,1.78,10.69,4.62l14.27-14.27C116.79,4.27,107.95.24,98.17.24c-19.27,0-34.88,15.62-34.88,34.88s15.62,34.88,34.88,34.88c9.48,0,18.07-3.79,24.36-9.93l-14.27-14.27c-2.64,2.49-6.19,4.02-10.09,4.02Z" fill="#14467c" stroke-width="0"></path><rect x="41.54" y="0" width="23.59" height="70.24" rx="8.06" ry="8.06" fill="#f4831e" stroke-width="0"></rect><rect x="0" y="0" width="23.37" height="70.24" rx="7.98" ry="7.98" fill="#f4831e" stroke-width="0"></rect><rect x="41.54" y="0" width="23.59" height="70.24" rx="8.06" ry="8.06" transform="translate(18.21 88.46) rotate(-90)" fill="#f4831e" stroke-width="0"></rect></g><g><path d="m252.97,23.01v10.16h-5.98v-2.36c-.91,1.76-2.74,2.67-5.4,2.67-4.39,0-6.82-2.47-6.82-5.64,0-3.38,2.47-5.47,8.14-5.47h3.65c-.1-1.86-1.35-2.9-3.88-2.9-1.76,0-3.71.61-4.96,1.59l-2.16-4.36c2.09-1.38,5.2-2.13,8.07-2.13,5.94,0,9.35,2.63,9.35,8.44Zm-6.42,4.29v-1.59h-2.77c-2.06,0-2.8.74-2.8,1.86s.88,1.86,2.4,1.86c1.42,0,2.67-.68,3.17-2.13Z" fill="#14467c" stroke-width="0"></path><path d="m255.33,8.12h6.42v25.06h-6.42V8.12Z" fill="#14467c" stroke-width="0"></path><path d="m153.04,23.99c0-5.5,4.36-9.42,10.33-9.42s10.33,3.92,10.33,9.42-4.29,9.49-10.33,9.49-10.33-3.95-10.33-9.49Zm14.18,0c0-2.77-1.65-4.32-3.85-4.32s-3.85,1.55-3.85,4.32,1.69,4.39,3.85,4.39,3.85-1.59,3.85-4.39Z" fill="#14467c" stroke-width="0"></path><path d="m173.53,31.59l1.92-4.39c1.69,1.05,4.15,1.69,6.38,1.69s2.87-.47,2.87-1.25c0-2.47-10.81.34-10.81-6.99,0-3.44,3.17-6.08,8.91-6.08,2.57,0,5.4.54,7.23,1.55l-1.92,4.36c-1.82-1.01-3.65-1.35-5.27-1.35-2.16,0-2.94.61-2.94,1.28,0,2.53,10.77-.2,10.77,7.06,0,3.38-3.11,6.01-9.05,6.01-3.11,0-6.31-.78-8.1-1.89Z" fill="#14467c" stroke-width="0"></path><path d="m212.26,24.02c0,5.81-4.02,9.45-8.98,9.45-2.13,0-3.85-.64-5.1-1.92v6.39h-6.42V14.87h6.11v1.82c1.22-1.45,3-2.13,5.4-2.13,4.96,0,8.98,3.65,8.98,9.45Zm-6.48,0c0-2.77-1.69-4.36-3.85-4.36s-3.85,1.59-3.85,4.36,1.69,4.36,3.85,4.36,3.85-1.59,3.85-4.36Z" fill="#14467c" stroke-width="0"></path><path d="m212.83,10.61c0-1.92,1.55-3.41,3.92-3.41s3.92,1.38,3.92,3.31c0,2.03-1.55,3.51-3.92,3.51s-3.92-1.49-3.92-3.41Zm.71,4.26h6.42v18.3h-6.42V14.87Z" fill="#14467c" stroke-width="0"></path><path d="m235.04,32.43c-1.11.71-2.77,1.05-4.46,1.05-4.69,0-7.43-2.3-7.43-6.99v-6.15h-2.67v-4.8h2.67v-4.76h6.42v4.76h4.19v4.8h-4.19v6.08c0,1.35.78,2.09,1.92,2.09.71,0,1.42-.2,1.96-.57l1.59,4.49Z" fill="#14467c" stroke-width="0"></path><g><path d="m151.37,37.6v25.06h-6.11v-1.82c-1.22,1.45-3.01,2.13-5.37,2.13-5,0-9.02-3.65-9.02-9.49s4.02-9.42,9.02-9.42c2.13,0,3.85.61,5.06,1.89v-8.34h6.42Zm-6.31,15.87c0-2.77-1.65-4.32-3.82-4.32s-3.85,1.55-3.85,4.32,1.65,4.39,3.85,4.39,3.82-1.59,3.82-4.39Z" fill="#047bc1" stroke-width="0"></path><path d="m170.95,52.49v10.16h-5.98v-2.36c-.91,1.76-2.74,2.67-5.4,2.67-4.39,0-6.82-2.47-6.82-5.64,0-3.38,2.47-5.47,8.14-5.47h3.65c-.1-1.86-1.35-2.9-3.88-2.9-1.76,0-3.71.61-4.96,1.59l-2.16-4.36c2.09-1.38,5.2-2.13,8.07-2.13,5.94,0,9.35,2.63,9.35,8.44Zm-6.42,4.29v-1.59h-2.77c-2.06,0-2.8.74-2.8,1.86s.88,1.86,2.4,1.86c1.42,0,2.67-.68,3.17-2.13Z" fill="#047bc1" stroke-width="0"></path></g><path d="m174.85,50.75c0-7.19,5.5-12.29,13-12.29,4.36,0,7.87,1.59,10.16,4.46l-4.25,3.85c-1.49-1.79-3.31-2.77-5.57-2.77-3.88,0-6.59,2.7-6.59,6.75s2.7,6.75,6.59,6.75c2.26,0,4.09-.98,5.57-2.77l4.25,3.85c-2.3,2.87-5.81,4.46-10.16,4.46-7.5,0-13-5.1-13-12.29Z" fill="#f7941d" stroke-width="0"></path><path d="m199.56,40.01c0-1.92,1.55-3.41,3.92-3.41s3.92,1.38,3.92,3.31c0,2.03-1.55,3.51-3.92,3.51s-3.92-1.49-3.92-3.41Zm.71,4.26h6.42v18.3h-6.42v-18.3Z" fill="#f7941d" stroke-width="0"></path><path d="m228.66,37.52v25.06h-6.11v-1.82c-1.22,1.45-3.01,2.13-5.37,2.13-5,0-9.02-3.65-9.02-9.49s4.02-9.42,9.02-9.42c2.13,0,3.85.61,5.06,1.89v-8.34h6.42Zm-6.31,15.87c0-2.77-1.65-4.32-3.82-4.32s-3.85,1.55-3.85,4.32,1.65,4.39,3.85,4.39,3.82-1.59,3.82-4.39Z" fill="#f7941d" stroke-width="0"></path><path d="m248.31,52.41v10.16h-5.98v-2.36c-.91,1.76-2.74,2.67-5.4,2.67-4.39,0-6.82-2.47-6.82-5.64,0-3.38,2.46-5.47,8.14-5.47h3.65c-.1-1.86-1.35-2.9-3.88-2.9-1.76,0-3.71.61-4.96,1.59l-2.16-4.36c2.09-1.38,5.2-2.13,8.07-2.13,5.94,0,9.35,2.63,9.35,8.44Zm-6.42,4.29v-1.59h-2.77c-2.06,0-2.8.74-2.8,1.86s.88,1.86,2.4,1.86c1.42,0,2.67-.68,3.17-2.13Z" fill="#f7941d" stroke-width="0"></path><path d="m269.93,37.52v25.06h-6.11v-1.82c-1.22,1.45-3.01,2.13-5.37,2.13-5,0-9.02-3.65-9.02-9.49s4.02-9.42,9.02-9.42c2.13,0,3.85.61,5.06,1.89v-8.34h6.42Zm-6.31,15.87c0-2.77-1.65-4.32-3.82-4.32s-3.85,1.55-3.85,4.32,1.65,4.39,3.85,4.39,3.82-1.59,3.82-4.39Z" fill="#f7941d" stroke-width="0"></path><path d="m290.47,55.04h-13.3c.54,1.86,2.13,2.94,4.49,2.94,1.79,0,2.97-.51,4.22-1.59l3.38,3.51c-1.76,1.96-4.32,2.97-7.8,2.97-6.52,0-10.74-4.02-10.74-9.49s4.29-9.42,10.06-9.42c5.4,0,9.79,3.44,9.79,9.49,0,.47-.07,1.08-.1,1.59Zm-13.41-3.38h7.5c-.34-1.92-1.76-3.14-3.75-3.14s-3.38,1.22-3.75,3.14Z" fill="#f7941d" stroke-width="0"></path><polygon points="145.27 9.54 144.82 9.54 144.82 18.42 137.42 18.42 137.42 9.54 136.96 9.54 130.87 9.54 130.87 33.17 136.96 33.17 137.42 33.17 137.42 23.95 144.82 23.95 144.82 33.17 145.27 33.17 151.37 33.17 151.37 9.54 145.27 9.54" fill="#14467c" stroke-width="0"></polygon></g></svg>