<svg width="106" height="32" viewBox="0 0 106 32" fill="grey" xmlns="http://www.w3.org/2000/svg">
<path d="M17.634 0.269775L10.8054 16.8275L3.73946 0.269775H0L9.20234 20.5572H12.0638L21.1361 0.269775H17.634Z" fill="white"></path>
<path d="M98.676 8.591C94.9918 7.72604 93.9057 7.07571 93.9057 5.55716C93.9057 3.86628 95.5543 2.99482 98.2858 2.99482C100.539 2.938 102.753 3.59218 104.614 4.86455L104.181 1.25841C102.663 0.432475 100.581 0 98.4158 0C93.7757 0 90.6573 2.25342 90.6573 5.76527C90.6573 8.97145 92.6083 10.6201 97.2452 11.6606C101.362 12.5288 102.448 13.3938 102.448 15.1269C102.448 16.8601 100.76 17.7283 97.7688 17.7283C95.0699 17.7835 92.4458 16.8397 90.4004 15.0782L90.8329 19.0225C92.8684 20.1931 95.0373 20.7134 97.811 20.7134C102.536 20.7134 105.7 18.4177 105.7 14.8603C105.696 11.368 103.875 9.80713 98.676 8.591Z" fill="white"></path>
<path d="M45.1667 9.13721C45.1667 14.4082 49.2639 18.1639 54.3821 18.1639C55.5834 18.1908 56.778 17.9771 57.8955 17.5353C59.0129 17.0935 60.0307 16.4325 60.8888 15.5913C61.747 14.7502 62.4281 13.7458 62.8922 12.6374C63.3562 11.5289 63.5938 10.3388 63.5909 9.13721C63.5984 8.00102 63.3424 6.87857 62.8431 5.85795C62.3438 4.83733 61.6147 3.94633 60.7131 3.25488L63.6397 2.40944V0.074707H54.7397C49.6703 0.074707 45.1667 3.94098 45.1667 9.13721ZM60.2449 9.13721C60.2449 12.4604 57.6435 15.2309 54.3918 15.2309C51.1401 15.2309 48.6038 12.4604 48.6038 9.13721C48.6038 5.81396 51.1726 3.17359 54.3918 3.17359C55.169 3.17475 55.9382 3.33068 56.6545 3.63229C57.3708 3.9339 58.0199 4.37515 58.5638 4.93029C59.1077 5.48543 59.5357 6.14334 59.8226 6.86564C60.1096 7.58793 60.2498 8.36014 60.2351 9.13721H60.2449Z" fill="white"></path>
<path d="M84.0604 3.65163C82.2395 1.35268 79.4235 0.052002 76.1718 0.052002C70.6244 0.052002 66.1143 4.47432 66.1143 10.4119C66.1143 16.4373 70.5789 20.7296 76.1718 20.7296C77.6126 20.7533 79.0413 20.4631 80.3586 19.8791C81.6759 19.2951 82.8504 18.4314 83.8003 17.3478L84.2523 20.5572H87.2016V0.28287H84.2425L84.0604 3.65163ZM76.6498 17.6535C72.6599 17.6535 69.5838 14.5318 69.5838 10.4119C69.5838 6.29203 72.6599 3.13137 76.6498 3.13137C80.7242 3.13137 83.8458 6.25301 83.8458 10.4119C83.8674 11.365 83.6963 12.3125 83.3429 13.1979C82.9895 14.0832 82.461 14.8881 81.789 15.5643C81.1171 16.2405 80.3156 16.774 79.4325 17.133C78.5494 17.492 77.6029 17.669 76.6498 17.6535V17.6535Z" fill="white"></path>
<path d="M56.3884 20.3069H48.9907V23.2334H56.3884C57.1292 23.2334 57.8396 23.5277 58.3634 24.0515C58.8873 24.5754 59.1816 25.2858 59.1816 26.0266C59.1816 26.7674 58.8873 27.4779 58.3634 28.0017C57.8396 28.5255 57.1292 28.8198 56.3884 28.8198H56.1477V32H56.3884C59.7083 32 62.6414 29.3986 62.6414 26.1112C62.6414 22.8237 59.8417 20.3069 56.3884 20.3069Z" fill="white"></path>
<path d="M38.8509 3.67776C37.03 1.37881 34.214 0.078125 30.9623 0.078125C25.4116 0.078125 20.9048 4.50044 20.9048 10.4381C20.9048 16.4635 25.3694 20.7557 30.9623 20.7557C32.4031 20.7795 33.8317 20.4892 35.1491 19.9052C36.4664 19.3213 37.6408 18.4575 38.5908 17.3739L39.0428 20.5834H41.9888V0.282984H39.033L38.8509 3.67776ZM31.437 17.6763C27.4504 17.6763 24.3711 14.558 24.3711 10.4381C24.3711 6.31814 27.4504 3.15749 31.437 3.15749C35.5114 3.15749 38.633 6.27587 38.633 10.4381C38.6546 11.3909 38.4836 12.3384 38.1301 13.2235C37.7767 14.1087 37.2481 14.9134 36.5761 15.5893C35.9041 16.2652 35.1026 16.7985 34.2195 17.1571C33.3364 17.5157 32.39 17.6924 31.437 17.6763Z" fill="white"></path>
</svg>